G04 #@! TF.FileFunction,Copper,L2,Bot,Signal*
%FSLAX46Y46*%
G04 Gerber Fmt 4.6, Leading zero omitted, Abs format (unit mm)*
G04 Created by KiCad (PCBNEW 4.0.7) date Sun Apr  1 16:38:54 2018*
%MOMM*%
%LPD*%
G01*
G04 APERTURE LIST*
%ADD10C,0.100000*%
%ADD11C,4.400000*%
%ADD12R,1.350000X1.350000*%
%ADD13O,1.350000X1.350000*%
%ADD14C,1.000000*%
%ADD15C,0.600000*%
%ADD16C,0.400000*%
%ADD17C,0.254000*%
G04 APERTURE END LIST*
D10*
D11*
X112200000Y-90600000D03*
X67225000Y-30625000D03*
X157175000Y-30600000D03*
X157200000Y-90600000D03*
X112200000Y-30600000D03*
X67200000Y-90600000D03*
D12*
X158200000Y-59600000D03*
D13*
X158200000Y-61600000D03*
D14*
X66400000Y-83100000D03*
X66400000Y-75600000D03*
X66400000Y-68100000D03*
X66400000Y-38400000D03*
X66400000Y-45600000D03*
X66400000Y-53100000D03*
X66400000Y-60600000D03*
X138200000Y-90100000D03*
X129700000Y-90100000D03*
X119700000Y-90100000D03*
X104700000Y-90100000D03*
X94700000Y-90100000D03*
X84700000Y-90100000D03*
X74700000Y-90100000D03*
X149700000Y-31100000D03*
X139700000Y-31100000D03*
X129700000Y-31100000D03*
X119700000Y-31100000D03*
X104700000Y-31100000D03*
X94700000Y-31100000D03*
X84700000Y-31100000D03*
X74700000Y-31100000D03*
X156300000Y-38100000D03*
X156300000Y-45600000D03*
X156300000Y-53100000D03*
X156300000Y-83100000D03*
X156300000Y-75600000D03*
X156300000Y-68100000D03*
D15*
X156000000Y-81000000D03*
X154600000Y-81000000D03*
X154600000Y-78200000D03*
X156000000Y-78200000D03*
X156000000Y-79600000D03*
X154600000Y-79600000D03*
X153100000Y-62000000D03*
X151700000Y-62000000D03*
X151700000Y-59200000D03*
X153100000Y-59200000D03*
X153100000Y-60600000D03*
X151700000Y-60600000D03*
X154600000Y-43000000D03*
X156000000Y-43000000D03*
X156000000Y-41600000D03*
X156000000Y-40200000D03*
X154600000Y-40200000D03*
X154600000Y-41600000D03*
X70800000Y-32299992D03*
X70800000Y-33700000D03*
D14*
X149699996Y-90100000D03*
D15*
X147700000Y-83000000D03*
X147700000Y-84400000D03*
X149100000Y-84400000D03*
X150500000Y-84400000D03*
X150500000Y-83000000D03*
X149100000Y-83000000D03*
X150500000Y-76200000D03*
X150500000Y-74800000D03*
X149100000Y-74800000D03*
X147700000Y-74800000D03*
X147700000Y-76200000D03*
X149100000Y-76200000D03*
X147700000Y-66800000D03*
X149100000Y-66800000D03*
X149100000Y-65400000D03*
X147700000Y-65400000D03*
X147700000Y-64000000D03*
X149100000Y-64000000D03*
X147700000Y-54400000D03*
X149100000Y-54400000D03*
X149100000Y-55800000D03*
X147700000Y-55800000D03*
X147700000Y-57200000D03*
X149100000Y-57200000D03*
X147700000Y-45000000D03*
X147700000Y-46400000D03*
X149100000Y-46400000D03*
X150500000Y-46400000D03*
X150500000Y-45000000D03*
X149100000Y-45000000D03*
X147700000Y-38200000D03*
X147700000Y-36800000D03*
X149100000Y-36800000D03*
X150500000Y-36800000D03*
X150500000Y-38200000D03*
X149100000Y-38200000D03*
D16*
X66400000Y-68100000D02*
X66400000Y-75600000D01*
X66400000Y-45600000D02*
X66400000Y-38100000D01*
X66400000Y-60600000D02*
X66400000Y-53100000D01*
X129700000Y-90100000D02*
X138200000Y-90100000D01*
X112200000Y-90600000D02*
X119200000Y-90600000D01*
X119200000Y-90600000D02*
X119700000Y-90100000D01*
X94700000Y-90100000D02*
X104700000Y-90100000D01*
X74700000Y-90100000D02*
X84700000Y-90100000D01*
X129700000Y-31100000D02*
X139700000Y-31100000D01*
X112200000Y-30600000D02*
X119200000Y-30600000D01*
X119200000Y-30600000D02*
X119700000Y-31100000D01*
X94700000Y-31100000D02*
X104700000Y-31100000D01*
X74700000Y-31100000D02*
X84700000Y-31100000D01*
X156300000Y-53100000D02*
X156300000Y-45600000D01*
X156300000Y-75600000D02*
X156300000Y-83100000D01*
X157200000Y-90600000D02*
X157200000Y-69000000D01*
X157200000Y-69000000D02*
X156300000Y-68100000D01*
X154600000Y-81000000D02*
X156000000Y-81000000D01*
X156000000Y-78200000D02*
X154600000Y-78200000D01*
X154600000Y-79600000D02*
X156000000Y-79600000D01*
X151700000Y-62000000D02*
X153100000Y-62000000D01*
X153100000Y-59200000D02*
X151700000Y-59200000D01*
X151700000Y-60600000D02*
X153100000Y-60600000D01*
X156000000Y-43000000D02*
X154600000Y-43000000D01*
X156000000Y-40200000D02*
X156000000Y-41600000D01*
X154600000Y-41600000D02*
X154600000Y-40200000D01*
X157200000Y-90600000D02*
X157200000Y-65600000D01*
X70800000Y-33700000D02*
X70800000Y-32299992D01*
X147700000Y-84400000D02*
X147700000Y-83000000D01*
X150500000Y-84400000D02*
X149100000Y-84400000D01*
X149100000Y-83000000D02*
X150500000Y-83000000D01*
X150500000Y-74800000D02*
X150500000Y-76200000D01*
X147700000Y-74800000D02*
X149100000Y-74800000D01*
X149100000Y-76200000D02*
X147700000Y-76200000D01*
X149100000Y-66800000D02*
X147700000Y-66800000D01*
X147700000Y-65400000D02*
X149100000Y-65400000D01*
X149100000Y-64000000D02*
X147700000Y-64000000D01*
X149100000Y-54400000D02*
X147700000Y-54400000D01*
X147700000Y-55800000D02*
X149100000Y-55800000D01*
X149100000Y-57200000D02*
X147700000Y-57200000D01*
X147700000Y-46400000D02*
X147700000Y-45000000D01*
X150500000Y-46400000D02*
X149100000Y-46400000D01*
X149100000Y-45000000D02*
X150500000Y-45000000D01*
X147700000Y-36800000D02*
X147700000Y-38200000D01*
X150500000Y-36800000D02*
X149100000Y-36800000D01*
X149100000Y-38200000D02*
X150500000Y-38200000D01*
D17*
G36*
X157587613Y-28642413D02*
X157960459Y-28754982D01*
X158304347Y-28937830D01*
X158606165Y-29183987D01*
X158854423Y-29484081D01*
X159039663Y-29826677D01*
X159154833Y-30198731D01*
X159198000Y-30609436D01*
X159198000Y-32773000D01*
X135300000Y-32773000D01*
X135264619Y-32778028D01*
X135232039Y-32792714D01*
X135204840Y-32815895D01*
X135185177Y-32845736D01*
X135174605Y-32879873D01*
X135173000Y-32900000D01*
X135173000Y-86773000D01*
X68327000Y-86773000D01*
X68327000Y-35727000D01*
X72700000Y-35727000D01*
X72735381Y-35721972D01*
X72767961Y-35707286D01*
X72795160Y-35684105D01*
X72814823Y-35654264D01*
X72825395Y-35620127D01*
X72827000Y-35600000D01*
X72827000Y-28602000D01*
X157175450Y-28602000D01*
X157587613Y-28642413D01*
X157587613Y-28642413D01*
G37*
X157587613Y-28642413D02*
X157960459Y-28754982D01*
X158304347Y-28937830D01*
X158606165Y-29183987D01*
X158854423Y-29484081D01*
X159039663Y-29826677D01*
X159154833Y-30198731D01*
X159198000Y-30609436D01*
X159198000Y-32773000D01*
X135300000Y-32773000D01*
X135264619Y-32778028D01*
X135232039Y-32792714D01*
X135204840Y-32815895D01*
X135185177Y-32845736D01*
X135174605Y-32879873D01*
X135173000Y-32900000D01*
X135173000Y-86773000D01*
X68327000Y-86773000D01*
X68327000Y-35727000D01*
X72700000Y-35727000D01*
X72735381Y-35721972D01*
X72767961Y-35707286D01*
X72795160Y-35684105D01*
X72814823Y-35654264D01*
X72825395Y-35620127D01*
X72827000Y-35600000D01*
X72827000Y-28602000D01*
X157175450Y-28602000D01*
X157587613Y-28642413D01*
G36*
X139773000Y-92598000D02*
X67224551Y-92598000D01*
X66812386Y-92557587D01*
X66439538Y-92445018D01*
X66095654Y-92262170D01*
X65793837Y-92016015D01*
X65545579Y-91715922D01*
X65360338Y-91373326D01*
X65245167Y-91001269D01*
X65202000Y-90590564D01*
X65202000Y-35727000D01*
X67573000Y-35727000D01*
X67573000Y-87400000D01*
X67578028Y-87435381D01*
X67592714Y-87467961D01*
X67615895Y-87495160D01*
X67645736Y-87514823D01*
X67679873Y-87525395D01*
X67700000Y-87527000D01*
X135800000Y-87527000D01*
X135835381Y-87521972D01*
X135867961Y-87507286D01*
X135895160Y-87484105D01*
X135914823Y-87454264D01*
X135925395Y-87420127D01*
X135927000Y-87400000D01*
X135927000Y-33527000D01*
X139773000Y-33527000D01*
X139773000Y-92598000D01*
X139773000Y-92598000D01*
G37*
X139773000Y-92598000D02*
X67224551Y-92598000D01*
X66812386Y-92557587D01*
X66439538Y-92445018D01*
X66095654Y-92262170D01*
X65793837Y-92016015D01*
X65545579Y-91715922D01*
X65360338Y-91373326D01*
X65245167Y-91001269D01*
X65202000Y-90590564D01*
X65202000Y-35727000D01*
X67573000Y-35727000D01*
X67573000Y-87400000D01*
X67578028Y-87435381D01*
X67592714Y-87467961D01*
X67615895Y-87495160D01*
X67645736Y-87514823D01*
X67679873Y-87525395D01*
X67700000Y-87527000D01*
X135800000Y-87527000D01*
X135835381Y-87521972D01*
X135867961Y-87507286D01*
X135895160Y-87484105D01*
X135914823Y-87454264D01*
X135925395Y-87420127D01*
X135927000Y-87400000D01*
X135927000Y-33527000D01*
X139773000Y-33527000D01*
X139773000Y-92598000D01*
G36*
X159198000Y-57973000D02*
X156700000Y-57973000D01*
X156664619Y-57978028D01*
X156632039Y-57992714D01*
X156604840Y-58015895D01*
X156585177Y-58045736D01*
X156574605Y-58079873D01*
X156573000Y-58100000D01*
X156573000Y-63100000D01*
X156578028Y-63135381D01*
X156592714Y-63167961D01*
X156615895Y-63195160D01*
X156645736Y-63214823D01*
X156679873Y-63225395D01*
X156700000Y-63227000D01*
X159198000Y-63227000D01*
X159198000Y-90575449D01*
X159157587Y-90987614D01*
X159045018Y-91360462D01*
X158862170Y-91704346D01*
X158616015Y-92006163D01*
X158315922Y-92254421D01*
X157973326Y-92439662D01*
X157601269Y-92554833D01*
X157190564Y-92598000D01*
X153327000Y-92598000D01*
X153327000Y-67000000D01*
X153321972Y-66964619D01*
X153307286Y-66932039D01*
X153284105Y-66904840D01*
X153254264Y-66885177D01*
X153220127Y-66874605D01*
X153200000Y-66873000D01*
X150127000Y-66873000D01*
X150127000Y-54427000D01*
X153200000Y-54427000D01*
X153235381Y-54421972D01*
X153267961Y-54407286D01*
X153295160Y-54384105D01*
X153314823Y-54354264D01*
X153325395Y-54320127D01*
X153327000Y-54300000D01*
X153327000Y-33527000D01*
X159198000Y-33527000D01*
X159198000Y-57973000D01*
X159198000Y-57973000D01*
G37*
X159198000Y-57973000D02*
X156700000Y-57973000D01*
X156664619Y-57978028D01*
X156632039Y-57992714D01*
X156604840Y-58015895D01*
X156585177Y-58045736D01*
X156574605Y-58079873D01*
X156573000Y-58100000D01*
X156573000Y-63100000D01*
X156578028Y-63135381D01*
X156592714Y-63167961D01*
X156615895Y-63195160D01*
X156645736Y-63214823D01*
X156679873Y-63225395D01*
X156700000Y-63227000D01*
X159198000Y-63227000D01*
X159198000Y-90575449D01*
X159157587Y-90987614D01*
X159045018Y-91360462D01*
X158862170Y-91704346D01*
X158616015Y-92006163D01*
X158315922Y-92254421D01*
X157973326Y-92439662D01*
X157601269Y-92554833D01*
X157190564Y-92598000D01*
X153327000Y-92598000D01*
X153327000Y-67000000D01*
X153321972Y-66964619D01*
X153307286Y-66932039D01*
X153284105Y-66904840D01*
X153254264Y-66885177D01*
X153220127Y-66874605D01*
X153200000Y-66873000D01*
X150127000Y-66873000D01*
X150127000Y-54427000D01*
X153200000Y-54427000D01*
X153235381Y-54421972D01*
X153267961Y-54407286D01*
X153295160Y-54384105D01*
X153314823Y-54354264D01*
X153325395Y-54320127D01*
X153327000Y-54300000D01*
X153327000Y-33527000D01*
X159198000Y-33527000D01*
X159198000Y-57973000D01*
G36*
X152573000Y-50773000D02*
X140527000Y-50773000D01*
X140527000Y-33527000D01*
X152573000Y-33527000D01*
X152573000Y-50773000D01*
X152573000Y-50773000D01*
G37*
X152573000Y-50773000D02*
X140527000Y-50773000D01*
X140527000Y-33527000D01*
X152573000Y-33527000D01*
X152573000Y-50773000D01*
G36*
X72073000Y-34973000D02*
X65202000Y-34973000D01*
X65202000Y-30624550D01*
X65242413Y-30212387D01*
X65354982Y-29839541D01*
X65537830Y-29495653D01*
X65783987Y-29193835D01*
X66084081Y-28945577D01*
X66426677Y-28760337D01*
X66798731Y-28645167D01*
X67209436Y-28602000D01*
X72073000Y-28602000D01*
X72073000Y-34973000D01*
X72073000Y-34973000D01*
G37*
X72073000Y-34973000D02*
X65202000Y-34973000D01*
X65202000Y-30624550D01*
X65242413Y-30212387D01*
X65354982Y-29839541D01*
X65537830Y-29495653D01*
X65783987Y-29193835D01*
X66084081Y-28945577D01*
X66426677Y-28760337D01*
X66798731Y-28645167D01*
X67209436Y-28602000D01*
X72073000Y-28602000D01*
X72073000Y-34973000D01*
G36*
X152573000Y-53673000D02*
X149600000Y-53673000D01*
X149564619Y-53678028D01*
X149532039Y-53692714D01*
X149504840Y-53715895D01*
X149485177Y-53745736D01*
X149474605Y-53779873D01*
X149473000Y-53800000D01*
X149473000Y-67400000D01*
X149478028Y-67435381D01*
X149492714Y-67467961D01*
X149515895Y-67495160D01*
X149545736Y-67514823D01*
X149579873Y-67525395D01*
X149600000Y-67527000D01*
X152573000Y-67527000D01*
X152573000Y-70773000D01*
X140527000Y-70773000D01*
X140527000Y-51427000D01*
X152573000Y-51427000D01*
X152573000Y-53673000D01*
X152573000Y-53673000D01*
G37*
X152573000Y-53673000D02*
X149600000Y-53673000D01*
X149564619Y-53678028D01*
X149532039Y-53692714D01*
X149504840Y-53715895D01*
X149485177Y-53745736D01*
X149474605Y-53779873D01*
X149473000Y-53800000D01*
X149473000Y-67400000D01*
X149478028Y-67435381D01*
X149492714Y-67467961D01*
X149515895Y-67495160D01*
X149545736Y-67514823D01*
X149579873Y-67525395D01*
X149600000Y-67527000D01*
X152573000Y-67527000D01*
X152573000Y-70773000D01*
X140527000Y-70773000D01*
X140527000Y-51427000D01*
X152573000Y-51427000D01*
X152573000Y-53673000D01*
G36*
X152573000Y-92598000D02*
X140527000Y-92598000D01*
X140527000Y-71521264D01*
X152573000Y-71521264D01*
X152573000Y-92598000D01*
X152573000Y-92598000D01*
G37*
X152573000Y-92598000D02*
X140527000Y-92598000D01*
X140527000Y-71521264D01*
X152573000Y-71521264D01*
X152573000Y-92598000D01*
M02*
