M48
;DRILL file {KiCad 4.0.7} date Sun Apr  1 16:38:07 2018
;FORMAT={-:-/ absolute / metric / decimal}
FMAT,2
METRIC,TZ
T1C0.300
T2C0.600
T3C0.800
T4C2.200
%
G90
G05
M71
T1
X70.8Y-32.3
X70.8Y-33.7
X147.7Y-36.8
X147.7Y-38.2
X147.7Y-45.
X147.7Y-46.4
X147.7Y-54.4
X147.7Y-55.8
X147.7Y-57.2
X147.7Y-64.
X147.7Y-65.4
X147.7Y-66.8
X147.7Y-74.8
X147.7Y-76.2
X147.7Y-83.
X147.7Y-84.4
X149.1Y-36.8
X149.1Y-38.2
X149.1Y-45.
X149.1Y-46.4
X149.1Y-54.4
X149.1Y-55.8
X149.1Y-57.2
X149.1Y-64.
X149.1Y-65.4
X149.1Y-66.8
X149.1Y-74.8
X149.1Y-76.2
X149.1Y-83.
X149.1Y-84.4
X150.5Y-36.8
X150.5Y-38.2
X150.5Y-45.
X150.5Y-46.4
X150.5Y-74.8
X150.5Y-76.2
X150.5Y-83.
X150.5Y-84.4
X151.7Y-59.2
X151.7Y-60.6
X151.7Y-62.
X153.1Y-59.2
X153.1Y-60.6
X153.1Y-62.
X154.6Y-40.2
X154.6Y-41.6
X154.6Y-43.
X154.6Y-78.2
X154.6Y-79.6
X154.6Y-81.
X156.Y-40.2
X156.Y-41.6
X156.Y-43.
X156.Y-78.2
X156.Y-79.6
X156.Y-81.
T2
X66.4Y-38.4
X66.4Y-45.6
X66.4Y-53.1
X66.4Y-60.6
X66.4Y-68.1
X66.4Y-75.6
X66.4Y-83.1
X74.7Y-31.1
X74.7Y-90.1
X84.7Y-31.1
X84.7Y-90.1
X94.7Y-31.1
X94.7Y-90.1
X104.7Y-31.1
X104.7Y-90.1
X119.7Y-31.1
X119.7Y-90.1
X129.7Y-31.1
X129.7Y-90.1
X138.2Y-90.1
X139.7Y-31.1
X149.7Y-90.1
X149.7Y-31.1
X156.3Y-38.1
X156.3Y-45.6
X156.3Y-53.1
X156.3Y-68.1
X156.3Y-75.6
X156.3Y-83.1
T3
X158.2Y-59.6
X158.2Y-61.6
T4
X67.2Y-90.6
X67.225Y-30.625
X112.2Y-30.6
X112.2Y-90.6
X157.175Y-30.6
X157.2Y-90.6
T0
M30
