G04 #@! TF.FileFunction,Copper,L2,Bot,Signal*
%FSLAX46Y46*%
G04 Gerber Fmt 4.6, Leading zero omitted, Abs format (unit mm)*
G04 Created by KiCad (PCBNEW 4.0.7) date Wed May  2 17:40:28 2018*
%MOMM*%
%LPD*%
G01*
G04 APERTURE LIST*
%ADD10C,0.100000*%
%ADD11C,4.400000*%
%ADD12R,2.150000X1.500000*%
%ADD13R,1.000000X1.400000*%
%ADD14R,1.000000X1.300000*%
%ADD15R,1.350000X1.350000*%
%ADD16O,1.350000X1.350000*%
%ADD17R,1.000000X0.600000*%
%ADD18R,1.000000X1.550000*%
%ADD19O,1.800000X1.000000*%
%ADD20R,2.000000X2.000000*%
%ADD21R,1.350000X0.400000*%
%ADD22R,1.200000X0.900000*%
%ADD23C,0.600000*%
%ADD24C,1.000000*%
%ADD25C,0.600000*%
%ADD26C,0.250000*%
%ADD27C,1.000000*%
%ADD28C,0.300000*%
%ADD29C,0.400000*%
G04 APERTURE END LIST*
D10*
D11*
X176900000Y-103800000D03*
X221900000Y-43800000D03*
X266900000Y-43800000D03*
X221900000Y-103800000D03*
X266900000Y-103800000D03*
X176900000Y-43800000D03*
D12*
X265117919Y-87638069D03*
D13*
X267217919Y-94600000D03*
D12*
X265117919Y-96638069D03*
D14*
X267217919Y-92100000D03*
D13*
X267217919Y-89600000D03*
D15*
X175900000Y-74800000D03*
D16*
X175900000Y-72800000D03*
D17*
X180925000Y-89325000D03*
X180925000Y-86100000D03*
D18*
X179200000Y-85350000D03*
X179200000Y-90050000D03*
D19*
X263450000Y-70125000D03*
X263450000Y-77500000D03*
X267350000Y-70100000D03*
D20*
X266900000Y-73800000D03*
D19*
X267350000Y-77500000D03*
D21*
X264225000Y-72500000D03*
X264225000Y-73150000D03*
X264225000Y-73800000D03*
X264225000Y-74450000D03*
X264225000Y-75100000D03*
D22*
X177300000Y-48800000D03*
X179500000Y-48800000D03*
X177300000Y-69800000D03*
X179500000Y-69800000D03*
D17*
X180925000Y-56725000D03*
X180925000Y-53500000D03*
D18*
X179200000Y-52750000D03*
X179200000Y-57450000D03*
D17*
X180925000Y-65525000D03*
X180925000Y-62300000D03*
D18*
X179200000Y-61550000D03*
X179200000Y-66250000D03*
D23*
X202100000Y-66100000D03*
X259200000Y-96800000D03*
X257800002Y-96800000D03*
X256399999Y-96800000D03*
D24*
X194400000Y-103300000D03*
X204400000Y-103300000D03*
X214400000Y-103300000D03*
X229400000Y-103300000D03*
X239400000Y-103300000D03*
X249400000Y-103300000D03*
X259300000Y-103300000D03*
D23*
X188200000Y-71000000D03*
X212400000Y-79899992D03*
X212400000Y-78700012D03*
X181800000Y-71000000D03*
X257800000Y-98100000D03*
X257800000Y-95500000D03*
X184100000Y-83900000D03*
X184099980Y-83000000D03*
X186500000Y-99700000D03*
X185000000Y-99700000D03*
X185000000Y-102700000D03*
X185000000Y-101200000D03*
X186500000Y-101200000D03*
X186500000Y-102700000D03*
X188000000Y-102700000D03*
X188000000Y-101200000D03*
D24*
X204400000Y-44300000D03*
X214400000Y-44300000D03*
X194400000Y-44300000D03*
X184400000Y-44300000D03*
D23*
X227300000Y-72000000D03*
X221200000Y-66250000D03*
X175900000Y-49600000D03*
X175900000Y-52800000D03*
X175900000Y-56000000D03*
X175900000Y-59200000D03*
X175900000Y-62400000D03*
X175900000Y-65600000D03*
X175900000Y-68800000D03*
X225500000Y-79700000D03*
X209300000Y-49300000D03*
X209300000Y-50800000D03*
X210800000Y-50800000D03*
X210800000Y-49300000D03*
X215300000Y-50800000D03*
X213800000Y-50800000D03*
X212300000Y-50800000D03*
X212300000Y-49300000D03*
X213800000Y-49300000D03*
X215300000Y-49300000D03*
X175900000Y-94800000D03*
X175900000Y-78800000D03*
X175900000Y-82000000D03*
X175900000Y-85200000D03*
X175900000Y-88400000D03*
X175900000Y-91600000D03*
X252000000Y-87799998D03*
X252000000Y-86400000D03*
X253400000Y-86400000D03*
X253400000Y-87800000D03*
X252000000Y-89200000D03*
X253400000Y-89200000D03*
X217600000Y-93400000D03*
X216200000Y-93400000D03*
X214800000Y-93400000D03*
X206200000Y-98899996D03*
X215300000Y-76700000D03*
X216700000Y-76700000D03*
X215300000Y-72900000D03*
X216700002Y-72900000D03*
X206800006Y-76200000D03*
X208100000Y-76200000D03*
X225500000Y-78200000D03*
X197500000Y-88200000D03*
X202400000Y-88300000D03*
X253200000Y-97000000D03*
X252500000Y-96300000D03*
X253900000Y-96300000D03*
X198800000Y-88200000D03*
X253200000Y-95600000D03*
X256500000Y-82200000D03*
X256500000Y-80800000D03*
X198700000Y-90400000D03*
X200100000Y-90400000D03*
X259400000Y-75000000D03*
X195900000Y-89000000D03*
X259400000Y-72700000D03*
X193400000Y-89000000D03*
X259400000Y-70300000D03*
X259400000Y-69300000D03*
X258400000Y-70300000D03*
X258400000Y-69300000D03*
X257400000Y-70300000D03*
X257400000Y-69300000D03*
X256400000Y-69300000D03*
X256400000Y-70300000D03*
X204900000Y-71800000D03*
X218700000Y-63800000D03*
X205900002Y-73300000D03*
X223900000Y-63800000D03*
X187600000Y-83100000D03*
X189800000Y-53500000D03*
X187300000Y-53500000D03*
X195899992Y-60400000D03*
D24*
X229400000Y-44300000D03*
X239400000Y-44300000D03*
X249400000Y-44300000D03*
X259300000Y-44300000D03*
D23*
X203900000Y-71300000D03*
X218000000Y-75000000D03*
X188900010Y-94800000D03*
X210600000Y-81700000D03*
X192300000Y-53500000D03*
D25*
X202100000Y-66524264D02*
X202100000Y-66100000D01*
X202100000Y-77200000D02*
X202100000Y-66524264D01*
X204200000Y-79300000D02*
X202100000Y-77200000D01*
X212400000Y-79300000D02*
X204200000Y-79300000D01*
D26*
X259100000Y-96800000D02*
X259200000Y-96800000D01*
X257800000Y-98100000D02*
X259100000Y-96800000D01*
X257800000Y-96800000D02*
X257800002Y-96800000D01*
X257800000Y-95500000D02*
X257800000Y-96800000D01*
X260599998Y-96800001D02*
X260599999Y-96800000D01*
X260275736Y-96800001D02*
X260599998Y-96800001D01*
X256824264Y-96800001D02*
X260275736Y-96800001D01*
X256399999Y-96800000D02*
X256824264Y-96800001D01*
X257800000Y-96800000D02*
X260275736Y-96800001D01*
X214400000Y-103300000D02*
X204400000Y-103300000D01*
X239400000Y-103300000D02*
X229400000Y-103300000D01*
X259300000Y-103300000D02*
X249400000Y-103300000D01*
D25*
X212400000Y-78700012D02*
X212400000Y-79899992D01*
X181800000Y-71000000D02*
X188200000Y-71000000D01*
X212400000Y-79300008D02*
X212400000Y-79899992D01*
X181800000Y-71000000D02*
X181800000Y-82200000D01*
X181800000Y-82200000D02*
X182600000Y-83000000D01*
X182600000Y-83000000D02*
X184099980Y-83000000D01*
X184099980Y-83899980D02*
X184100000Y-83900000D01*
X184099980Y-83000000D02*
X184099980Y-83899980D01*
X184100000Y-82999980D02*
X184099980Y-83000000D01*
D27*
X267217919Y-94600000D02*
X264160986Y-94600000D01*
D26*
X267217919Y-103482081D02*
X266900000Y-103800000D01*
D28*
X185000000Y-99700000D02*
X186500000Y-99700000D01*
X185000000Y-101200000D02*
X185000000Y-102700000D01*
X186500000Y-102700000D02*
X186500000Y-101200000D01*
X188000000Y-101200000D02*
X188000000Y-102700000D01*
D26*
X184400000Y-44300000D02*
X194400000Y-44300000D01*
D25*
X226450000Y-66250000D02*
X227300000Y-67100000D01*
X227300000Y-67100000D02*
X227300000Y-72000000D01*
X221200000Y-66250000D02*
X226450000Y-66250000D01*
D28*
X176900000Y-69800000D02*
X176100000Y-69800000D01*
X176100000Y-69800000D02*
X175900000Y-69600000D01*
X175900000Y-69600000D02*
X175900000Y-68800000D01*
X175900000Y-52800000D02*
X175900000Y-49600000D01*
X175900000Y-59200000D02*
X175900000Y-56000000D01*
X175900000Y-65600000D02*
X175900000Y-62400000D01*
D26*
X175900000Y-78800000D02*
X176324264Y-78800000D01*
X176324264Y-78800000D02*
X179200000Y-75924264D01*
X179200000Y-75924264D02*
X179200000Y-71550000D01*
X177450000Y-69800000D02*
X177300000Y-69800000D01*
X210800000Y-50800000D02*
X209300000Y-50800000D01*
X212300000Y-49300000D02*
X210800000Y-49300000D01*
X212300000Y-50800000D02*
X213800000Y-50800000D01*
X213800000Y-49300000D02*
X212300000Y-49300000D01*
X177300000Y-69800000D02*
X176900000Y-69800000D01*
X175900000Y-85200000D02*
X175900000Y-82000000D01*
X175900000Y-91600000D02*
X175900000Y-88400000D01*
X252000002Y-87800000D02*
X252000000Y-87799998D01*
X253400000Y-87800000D02*
X252000002Y-87800000D01*
X253400000Y-86400000D02*
X252000000Y-86400000D01*
X253400000Y-89200000D02*
X252000000Y-89200000D01*
X214800000Y-93400000D02*
X216200000Y-93400000D01*
X198800000Y-88200000D02*
X198500000Y-88200000D01*
X191100000Y-89900000D02*
X191100000Y-91300000D01*
X198500000Y-88200000D02*
X196800000Y-89900000D01*
X196800000Y-89900000D02*
X191100000Y-89900000D01*
X219400000Y-76200000D02*
X218900000Y-76700000D01*
X218900000Y-76700000D02*
X216700000Y-76700000D01*
X219400000Y-74500000D02*
X219400000Y-76200000D01*
X218400000Y-73500000D02*
X219400000Y-74500000D01*
X215475736Y-73500000D02*
X218400000Y-73500000D01*
X215300000Y-72900000D02*
X215300000Y-73324264D01*
X215300000Y-73324264D02*
X215475736Y-73500000D01*
X266900000Y-73800000D02*
X266900000Y-70550000D01*
X266900000Y-70550000D02*
X267350000Y-70100000D01*
X264225000Y-74450000D02*
X266250000Y-74450000D01*
X266250000Y-74450000D02*
X266900000Y-73800000D01*
X264225000Y-75100000D02*
X264225000Y-74450000D01*
X202400000Y-88300000D02*
X198900000Y-88300000D01*
X198900000Y-88300000D02*
X198800000Y-88200000D01*
X263800000Y-65800000D02*
X254900000Y-65800000D01*
X254900000Y-65800000D02*
X250300000Y-70400000D01*
X267350000Y-70100000D02*
X267350000Y-69350000D01*
X267350000Y-69350000D02*
X263800000Y-65800000D01*
D29*
X264225000Y-75100000D02*
X263150000Y-75100000D01*
D26*
X253900000Y-96300000D02*
X252500000Y-96300000D01*
X262050000Y-78900000D02*
X262050000Y-85050000D01*
X264225000Y-74450000D02*
X262450000Y-74450000D01*
X262050000Y-85050000D02*
X262100000Y-85100000D01*
X262100000Y-85100000D02*
X266700000Y-85100000D01*
X266700000Y-85100000D02*
X267217919Y-85617919D01*
X267217919Y-85617919D02*
X267217919Y-89600000D01*
D25*
X256500000Y-80800000D02*
X244800000Y-80800000D01*
X237100000Y-90400000D02*
X200100000Y-90400000D01*
X244800000Y-80800000D02*
X244000000Y-81600000D01*
X244000000Y-81600000D02*
X244000000Y-89800000D01*
X244000000Y-89800000D02*
X243400000Y-90400000D01*
X243400000Y-90400000D02*
X237100000Y-90400000D01*
X256500000Y-80800000D02*
X256500000Y-82200000D01*
D27*
X198800000Y-90400000D02*
X200100000Y-90400000D01*
D29*
X264225000Y-73800000D02*
X260600000Y-73800000D01*
X260600000Y-73800000D02*
X259699999Y-74700001D01*
X259699999Y-74700001D02*
X259400000Y-75000000D01*
D25*
X195900000Y-89000000D02*
X195200000Y-88300000D01*
X195200000Y-88300000D02*
X195200000Y-86300000D01*
X195200000Y-86300000D02*
X196400000Y-85100000D01*
X196400000Y-85100000D02*
X225200000Y-85100000D01*
X225200000Y-85100000D02*
X236400000Y-73900000D01*
X236400000Y-73900000D02*
X258300000Y-73900000D01*
X258300000Y-73900000D02*
X259400000Y-75000000D01*
X236100000Y-72700000D02*
X258975736Y-72700000D01*
X195900000Y-84000000D02*
X224800000Y-84000000D01*
D29*
X264225000Y-73150000D02*
X259850000Y-73150000D01*
D25*
X258975736Y-72700000D02*
X259400000Y-72700000D01*
D29*
X259699999Y-72999999D02*
X259400000Y-72700000D01*
D25*
X193400000Y-86500000D02*
X195900000Y-84000000D01*
D29*
X259850000Y-73150000D02*
X259699999Y-72999999D01*
D25*
X193400000Y-89000000D02*
X193400000Y-86500000D01*
X224800000Y-84000000D02*
X236100000Y-72700000D01*
D29*
X264225000Y-72500000D02*
X262200000Y-72500000D01*
D26*
X260500000Y-70300000D02*
X259400000Y-70300000D01*
X259400000Y-70300000D02*
X258400000Y-70300000D01*
D25*
X259400000Y-69300000D02*
X259400000Y-70300000D01*
D26*
X258400000Y-70300000D02*
X257400000Y-70300000D01*
D25*
X258400000Y-69300000D02*
X258400000Y-70300000D01*
D26*
X257400000Y-70300000D02*
X256400000Y-70300000D01*
D25*
X256400000Y-69300000D02*
X257400000Y-69300000D01*
D26*
X262700000Y-72500000D02*
X260500000Y-70300000D01*
D25*
X204900000Y-64300000D02*
X204900000Y-71375736D01*
X204900000Y-71375736D02*
X204900000Y-71800000D01*
X205400000Y-63800000D02*
X204900000Y-64300000D01*
X218700000Y-63800000D02*
X205400000Y-63800000D01*
X223900000Y-63800000D02*
X220100000Y-63800000D01*
X220100000Y-63800000D02*
X219000000Y-64900000D01*
X219000000Y-64900000D02*
X206100000Y-64900000D01*
X206100000Y-64900000D02*
X205900002Y-65099998D01*
X205900002Y-65099998D02*
X205900002Y-73300000D01*
X180925000Y-86100000D02*
X186900000Y-86100000D01*
X186900000Y-86100000D02*
X187600000Y-85400000D01*
X187600000Y-85400000D02*
X187600000Y-83100000D01*
X180925000Y-62300000D02*
X189300000Y-62300000D01*
X189300000Y-62300000D02*
X189800000Y-61800000D01*
X189800000Y-61800000D02*
X189800000Y-53500000D01*
X180925000Y-53500000D02*
X187300000Y-53500000D01*
X211500000Y-60400000D02*
X196324256Y-60400000D01*
X228100000Y-43800000D02*
X211500000Y-60400000D01*
X196324256Y-60400000D02*
X195899992Y-60400000D01*
D26*
X239400000Y-44300000D02*
X229400000Y-44300000D01*
X259300000Y-44300000D02*
X249400000Y-44300000D01*
X266900000Y-43800000D02*
X228100000Y-43800000D01*
D25*
X203900000Y-71724264D02*
X203900000Y-71300000D01*
X203900000Y-74100000D02*
X203900000Y-71724264D01*
X204800000Y-75000000D02*
X203900000Y-74100000D01*
X218000000Y-75000000D02*
X204800000Y-75000000D01*
X188900010Y-87799990D02*
X188900010Y-94375736D01*
X188900010Y-94375736D02*
X188900010Y-94800000D01*
X195000000Y-81700000D02*
X188900010Y-87799990D01*
X210600000Y-81700000D02*
X195000000Y-81700000D01*
D29*
X179500000Y-69800000D02*
X179500000Y-68700000D01*
X179500000Y-68700000D02*
X178900000Y-68100000D01*
X178900000Y-68100000D02*
X177400000Y-68100000D01*
X179100000Y-50900000D02*
X179500000Y-50500000D01*
X177400000Y-68100000D02*
X177200000Y-67900000D01*
X177200000Y-67900000D02*
X177200000Y-51300000D01*
X177200000Y-51300000D02*
X177600000Y-50900000D01*
X179500000Y-50500000D02*
X179500000Y-48800000D01*
X177600000Y-50900000D02*
X179100000Y-50900000D01*
D25*
X190400000Y-48800000D02*
X192300000Y-50700000D01*
X192300000Y-50700000D02*
X192300000Y-53500000D01*
X179500000Y-48800000D02*
X190400000Y-48800000D01*
D26*
G36*
X260134024Y-68628955D02*
X260166736Y-68638879D01*
X260196890Y-68654997D01*
X260223316Y-68676684D01*
X260245003Y-68703110D01*
X260261121Y-68733264D01*
X260271045Y-68765976D01*
X260275000Y-68806138D01*
X260275000Y-69775736D01*
X260275602Y-69787987D01*
X260281366Y-69846514D01*
X260286147Y-69870549D01*
X260303219Y-69926827D01*
X260312596Y-69949466D01*
X260340319Y-70001332D01*
X260353933Y-70021706D01*
X260391242Y-70067167D01*
X260399480Y-70076256D01*
X262123744Y-71800520D01*
X262132833Y-71808758D01*
X262178294Y-71846067D01*
X262198668Y-71859681D01*
X262250534Y-71887404D01*
X262273173Y-71896781D01*
X262329451Y-71913853D01*
X262353486Y-71918634D01*
X262412013Y-71924398D01*
X262424264Y-71925000D01*
X264693862Y-71925000D01*
X264734024Y-71928955D01*
X264766736Y-71938879D01*
X264796890Y-71954997D01*
X264823316Y-71976684D01*
X264845003Y-72003110D01*
X264861121Y-72033264D01*
X264871045Y-72065976D01*
X264875000Y-72106138D01*
X264875000Y-72393862D01*
X264871045Y-72434024D01*
X264861121Y-72466736D01*
X264845003Y-72496890D01*
X264823621Y-72522944D01*
X263550000Y-72522944D01*
X263524217Y-72525000D01*
X262103000Y-72525000D01*
X262096177Y-72519401D01*
X260876256Y-71299480D01*
X260867167Y-71291242D01*
X260821706Y-71253933D01*
X260801332Y-71240319D01*
X260749466Y-71212596D01*
X260726827Y-71203219D01*
X260670549Y-71186147D01*
X260646514Y-71181366D01*
X260587987Y-71175602D01*
X260575736Y-71175000D01*
X255706138Y-71175000D01*
X255665976Y-71171045D01*
X255633264Y-71161121D01*
X255603110Y-71145003D01*
X255576684Y-71123316D01*
X255554997Y-71096890D01*
X255538879Y-71066736D01*
X255528955Y-71034024D01*
X255525000Y-70993862D01*
X255525000Y-68806138D01*
X255528955Y-68765976D01*
X255538879Y-68733264D01*
X255554997Y-68703110D01*
X255576684Y-68676684D01*
X255603110Y-68654997D01*
X255633264Y-68638879D01*
X255665976Y-68628955D01*
X255706138Y-68625000D01*
X260093862Y-68625000D01*
X260134024Y-68628955D01*
X260134024Y-68628955D01*
G37*
X260134024Y-68628955D02*
X260166736Y-68638879D01*
X260196890Y-68654997D01*
X260223316Y-68676684D01*
X260245003Y-68703110D01*
X260261121Y-68733264D01*
X260271045Y-68765976D01*
X260275000Y-68806138D01*
X260275000Y-69775736D01*
X260275602Y-69787987D01*
X260281366Y-69846514D01*
X260286147Y-69870549D01*
X260303219Y-69926827D01*
X260312596Y-69949466D01*
X260340319Y-70001332D01*
X260353933Y-70021706D01*
X260391242Y-70067167D01*
X260399480Y-70076256D01*
X262123744Y-71800520D01*
X262132833Y-71808758D01*
X262178294Y-71846067D01*
X262198668Y-71859681D01*
X262250534Y-71887404D01*
X262273173Y-71896781D01*
X262329451Y-71913853D01*
X262353486Y-71918634D01*
X262412013Y-71924398D01*
X262424264Y-71925000D01*
X264693862Y-71925000D01*
X264734024Y-71928955D01*
X264766736Y-71938879D01*
X264796890Y-71954997D01*
X264823316Y-71976684D01*
X264845003Y-72003110D01*
X264861121Y-72033264D01*
X264871045Y-72065976D01*
X264875000Y-72106138D01*
X264875000Y-72393862D01*
X264871045Y-72434024D01*
X264861121Y-72466736D01*
X264845003Y-72496890D01*
X264823621Y-72522944D01*
X263550000Y-72522944D01*
X263524217Y-72525000D01*
X262103000Y-72525000D01*
X262096177Y-72519401D01*
X260876256Y-71299480D01*
X260867167Y-71291242D01*
X260821706Y-71253933D01*
X260801332Y-71240319D01*
X260749466Y-71212596D01*
X260726827Y-71203219D01*
X260670549Y-71186147D01*
X260646514Y-71181366D01*
X260587987Y-71175602D01*
X260575736Y-71175000D01*
X255706138Y-71175000D01*
X255665976Y-71171045D01*
X255633264Y-71161121D01*
X255603110Y-71145003D01*
X255576684Y-71123316D01*
X255554997Y-71096890D01*
X255538879Y-71066736D01*
X255528955Y-71034024D01*
X255525000Y-70993862D01*
X255525000Y-68806138D01*
X255528955Y-68765976D01*
X255538879Y-68733264D01*
X255554997Y-68703110D01*
X255576684Y-68676684D01*
X255603110Y-68654997D01*
X255633264Y-68638879D01*
X255665976Y-68628955D01*
X255706138Y-68625000D01*
X260093862Y-68625000D01*
X260134024Y-68628955D01*
G36*
X211199696Y-59675000D02*
X195906986Y-59675000D01*
X195833965Y-59674490D01*
X195694304Y-59701132D01*
X195562477Y-59754394D01*
X195443506Y-59832246D01*
X195341922Y-59931724D01*
X195261596Y-60049039D01*
X195205585Y-60179721D01*
X195176024Y-60318794D01*
X195174039Y-60460960D01*
X195199705Y-60600804D01*
X195252045Y-60732999D01*
X195329065Y-60852511D01*
X195427831Y-60954787D01*
X195544582Y-61035931D01*
X195674871Y-61092852D01*
X195813734Y-61123383D01*
X195955882Y-61126361D01*
X195963601Y-61125000D01*
X211500000Y-61125000D01*
X211566600Y-61118470D01*
X211633365Y-61112628D01*
X211637028Y-61111564D01*
X211640820Y-61111192D01*
X211704923Y-61091838D01*
X211769242Y-61073152D01*
X211772626Y-61071398D01*
X211776276Y-61070296D01*
X211835432Y-61038842D01*
X211894863Y-61008036D01*
X211897841Y-61005659D01*
X211901209Y-61003868D01*
X211953157Y-60961500D01*
X212005444Y-60919760D01*
X212010744Y-60914534D01*
X212010860Y-60914439D01*
X212010949Y-60914331D01*
X212012652Y-60912652D01*
X225400305Y-47525000D01*
X268900000Y-47525000D01*
X268900000Y-90175000D01*
X261653489Y-90175000D01*
X261642475Y-90175486D01*
X261589815Y-90180144D01*
X261568131Y-90184011D01*
X261517106Y-90197840D01*
X261496433Y-90205454D01*
X261448628Y-90228026D01*
X261429618Y-90239148D01*
X261386517Y-90269760D01*
X261369750Y-90284048D01*
X261332692Y-90321751D01*
X261318697Y-90338759D01*
X261288832Y-90382381D01*
X261278038Y-90401583D01*
X261256294Y-90449770D01*
X261249038Y-90470568D01*
X261236090Y-90521824D01*
X261232598Y-90543575D01*
X261228849Y-90596308D01*
X261228553Y-90607327D01*
X261269662Y-92991466D01*
X261267088Y-93027665D01*
X261259556Y-93057484D01*
X261246908Y-93085512D01*
X261229537Y-93110885D01*
X261207972Y-93132825D01*
X261182906Y-93150628D01*
X261155095Y-93163759D01*
X261125420Y-93171802D01*
X261089263Y-93175000D01*
X254700000Y-93175000D01*
X254687749Y-93175602D01*
X254629222Y-93181366D01*
X254605187Y-93186147D01*
X254548909Y-93203219D01*
X254526270Y-93212596D01*
X254474404Y-93240319D01*
X254454030Y-93253933D01*
X254408569Y-93291242D01*
X254391242Y-93308569D01*
X254353933Y-93354030D01*
X254340319Y-93374404D01*
X254312596Y-93426270D01*
X254303219Y-93448909D01*
X254286147Y-93505187D01*
X254281366Y-93529222D01*
X254275602Y-93587749D01*
X254275000Y-93600000D01*
X254275000Y-99193862D01*
X254271045Y-99234024D01*
X254261121Y-99266736D01*
X254245003Y-99296890D01*
X254223316Y-99323316D01*
X254196890Y-99345003D01*
X254166736Y-99361121D01*
X254134024Y-99371045D01*
X254093862Y-99375000D01*
X191206138Y-99375000D01*
X191165976Y-99371045D01*
X191133264Y-99361121D01*
X191103110Y-99345003D01*
X191076684Y-99323316D01*
X191054997Y-99296890D01*
X191038879Y-99266736D01*
X191028955Y-99234024D01*
X191025000Y-99193862D01*
X191025000Y-97400000D01*
X191024398Y-97387749D01*
X191018634Y-97329222D01*
X191013853Y-97305187D01*
X190996781Y-97248909D01*
X190987404Y-97226270D01*
X190959681Y-97174404D01*
X190946067Y-97154030D01*
X190908758Y-97108569D01*
X190891431Y-97091242D01*
X190845970Y-97053933D01*
X190825596Y-97040319D01*
X190773730Y-97012596D01*
X190751091Y-97003219D01*
X190694813Y-96986147D01*
X190670778Y-96981366D01*
X190612251Y-96975602D01*
X190600000Y-96975000D01*
X174900000Y-96975000D01*
X174900000Y-94860960D01*
X188174057Y-94860960D01*
X188199723Y-95000804D01*
X188252063Y-95132999D01*
X188329083Y-95252511D01*
X188427849Y-95354787D01*
X188544600Y-95435931D01*
X188674889Y-95492852D01*
X188813752Y-95523383D01*
X188955900Y-95526361D01*
X189095920Y-95501672D01*
X189228478Y-95450256D01*
X189348524Y-95374072D01*
X189451487Y-95276022D01*
X189533444Y-95159841D01*
X189591274Y-95029953D01*
X189622773Y-94891306D01*
X189623760Y-94820634D01*
X189624939Y-94810123D01*
X189625010Y-94800000D01*
X189625010Y-94731130D01*
X189625041Y-94728910D01*
X189625010Y-94728753D01*
X189625010Y-90393542D01*
X197875023Y-90393542D01*
X197891384Y-90573328D01*
X197942355Y-90746511D01*
X198025993Y-90906496D01*
X198139113Y-91047189D01*
X198277406Y-91163230D01*
X198435604Y-91250200D01*
X198607682Y-91304787D01*
X198787085Y-91324910D01*
X198800000Y-91325000D01*
X200100000Y-91325000D01*
X200279667Y-91307384D01*
X200452490Y-91255205D01*
X200611887Y-91170452D01*
X200667617Y-91125000D01*
X243400000Y-91125000D01*
X243466600Y-91118470D01*
X243533365Y-91112628D01*
X243537028Y-91111564D01*
X243540820Y-91111192D01*
X243604923Y-91091838D01*
X243669242Y-91073152D01*
X243672626Y-91071398D01*
X243676276Y-91070296D01*
X243735432Y-91038842D01*
X243794863Y-91008036D01*
X243797841Y-91005659D01*
X243801209Y-91003868D01*
X243853157Y-90961500D01*
X243905444Y-90919760D01*
X243910744Y-90914534D01*
X243910860Y-90914439D01*
X243910949Y-90914331D01*
X243912652Y-90912652D01*
X244512652Y-90312653D01*
X244555140Y-90260926D01*
X244598207Y-90209601D01*
X244600045Y-90206258D01*
X244602463Y-90203314D01*
X244634089Y-90144332D01*
X244666373Y-90085608D01*
X244667526Y-90081972D01*
X244669327Y-90078614D01*
X244688909Y-90014566D01*
X244709157Y-89950736D01*
X244709582Y-89946950D01*
X244710697Y-89943302D01*
X244717470Y-89876619D01*
X244724929Y-89810123D01*
X244724981Y-89802676D01*
X244724996Y-89802531D01*
X244724983Y-89802396D01*
X244725000Y-89800000D01*
X244725000Y-86888069D01*
X263615863Y-86888069D01*
X263615863Y-88388069D01*
X263621260Y-88455749D01*
X263656809Y-88570541D01*
X263722931Y-88670884D01*
X263814390Y-88748834D01*
X263923944Y-88798217D01*
X264042919Y-88815125D01*
X266192919Y-88815125D01*
X266260599Y-88809728D01*
X266375391Y-88774179D01*
X266475734Y-88708057D01*
X266553684Y-88616598D01*
X266603067Y-88507044D01*
X266619975Y-88388069D01*
X266619975Y-86888069D01*
X266614578Y-86820389D01*
X266579029Y-86705597D01*
X266512907Y-86605254D01*
X266421448Y-86527304D01*
X266311894Y-86477921D01*
X266192919Y-86461013D01*
X264042919Y-86461013D01*
X263975239Y-86466410D01*
X263860447Y-86501959D01*
X263760104Y-86568081D01*
X263682154Y-86659540D01*
X263632771Y-86769094D01*
X263615863Y-86888069D01*
X244725000Y-86888069D01*
X244725000Y-81900304D01*
X245100305Y-81525000D01*
X255775000Y-81525000D01*
X255775000Y-82192706D01*
X255774047Y-82260960D01*
X255799713Y-82400804D01*
X255852053Y-82532999D01*
X255929073Y-82652511D01*
X256027839Y-82754787D01*
X256144590Y-82835931D01*
X256274879Y-82892852D01*
X256413742Y-82923383D01*
X256555890Y-82926361D01*
X256695910Y-82901672D01*
X256828468Y-82850256D01*
X256948514Y-82774072D01*
X257051477Y-82676022D01*
X257133434Y-82559841D01*
X257191264Y-82429953D01*
X257222763Y-82291306D01*
X257223750Y-82220634D01*
X257224929Y-82210123D01*
X257225000Y-82200000D01*
X257225000Y-82131130D01*
X257225031Y-82128910D01*
X257225000Y-82128753D01*
X257225000Y-80800000D01*
X257224158Y-80791414D01*
X257225031Y-80728910D01*
X257197415Y-80589438D01*
X257143234Y-80457986D01*
X257064553Y-80339562D01*
X256964368Y-80238675D01*
X256846496Y-80159169D01*
X256715426Y-80104072D01*
X256576150Y-80075483D01*
X256433973Y-80074490D01*
X256431300Y-80075000D01*
X244800000Y-80075000D01*
X244733396Y-80081531D01*
X244666636Y-80087372D01*
X244662974Y-80088436D01*
X244659180Y-80088808D01*
X244595051Y-80108169D01*
X244530759Y-80126848D01*
X244527377Y-80128601D01*
X244523724Y-80129704D01*
X244464550Y-80161167D01*
X244405137Y-80191964D01*
X244402159Y-80194341D01*
X244398791Y-80196132D01*
X244346843Y-80238500D01*
X244294556Y-80280240D01*
X244289252Y-80285470D01*
X244289140Y-80285561D01*
X244289054Y-80285665D01*
X244287348Y-80287347D01*
X243487348Y-81087348D01*
X243444880Y-81139049D01*
X243401793Y-81190399D01*
X243399955Y-81193742D01*
X243397537Y-81196686D01*
X243365911Y-81255668D01*
X243333627Y-81314392D01*
X243332474Y-81318028D01*
X243330673Y-81321386D01*
X243311091Y-81385434D01*
X243290843Y-81449264D01*
X243290418Y-81453050D01*
X243289303Y-81456698D01*
X243282530Y-81523381D01*
X243275071Y-81589877D01*
X243275019Y-81597324D01*
X243275004Y-81597469D01*
X243275017Y-81597604D01*
X243275000Y-81600000D01*
X243275000Y-89499695D01*
X243099696Y-89675000D01*
X200668155Y-89675000D01*
X200622594Y-89636770D01*
X200464396Y-89549800D01*
X200292318Y-89495213D01*
X200112915Y-89475090D01*
X200100000Y-89475000D01*
X198800000Y-89475000D01*
X198620333Y-89492616D01*
X198447510Y-89544795D01*
X198288113Y-89629548D01*
X198148213Y-89743647D01*
X198033140Y-89882747D01*
X197947277Y-90041548D01*
X197893893Y-90214003D01*
X197875023Y-90393542D01*
X189625010Y-90393542D01*
X189625010Y-89060960D01*
X192674047Y-89060960D01*
X192699713Y-89200804D01*
X192752053Y-89332999D01*
X192829073Y-89452511D01*
X192927839Y-89554787D01*
X193044590Y-89635931D01*
X193174879Y-89692852D01*
X193313742Y-89723383D01*
X193455890Y-89726361D01*
X193595910Y-89701672D01*
X193728468Y-89650256D01*
X193848514Y-89574072D01*
X193951477Y-89476022D01*
X194033434Y-89359841D01*
X194091264Y-89229953D01*
X194122763Y-89091306D01*
X194123750Y-89020634D01*
X194124929Y-89010123D01*
X194125000Y-89000000D01*
X194125000Y-88931130D01*
X194125031Y-88928910D01*
X194125000Y-88928753D01*
X194125000Y-86800304D01*
X194475000Y-86450304D01*
X194475000Y-88300000D01*
X194481530Y-88366600D01*
X194487372Y-88433365D01*
X194488436Y-88437028D01*
X194488808Y-88440820D01*
X194508162Y-88504923D01*
X194526848Y-88569242D01*
X194528602Y-88572626D01*
X194529704Y-88576276D01*
X194561158Y-88635432D01*
X194591964Y-88694863D01*
X194594341Y-88697841D01*
X194596132Y-88701209D01*
X194638500Y-88753157D01*
X194680240Y-88805444D01*
X194685466Y-88810744D01*
X194685561Y-88810860D01*
X194685669Y-88810949D01*
X194687348Y-88812652D01*
X195381607Y-89506912D01*
X195427839Y-89554787D01*
X195544590Y-89635931D01*
X195674879Y-89692852D01*
X195813742Y-89723383D01*
X195955890Y-89726361D01*
X196095910Y-89701672D01*
X196228468Y-89650256D01*
X196348514Y-89574072D01*
X196451477Y-89476022D01*
X196533434Y-89359841D01*
X196591264Y-89229953D01*
X196622763Y-89091306D01*
X196623781Y-89018449D01*
X196624960Y-89007592D01*
X196624074Y-88997461D01*
X196625031Y-88928910D01*
X196597415Y-88789438D01*
X196543234Y-88657986D01*
X196464553Y-88539562D01*
X196364368Y-88438675D01*
X196363176Y-88437871D01*
X195925000Y-87999696D01*
X195925000Y-86600304D01*
X196700305Y-85825000D01*
X225200000Y-85825000D01*
X225266600Y-85818470D01*
X225333365Y-85812628D01*
X225337028Y-85811564D01*
X225340820Y-85811192D01*
X225404923Y-85791838D01*
X225469242Y-85773152D01*
X225472626Y-85771398D01*
X225476276Y-85770296D01*
X225535432Y-85738842D01*
X225594863Y-85708036D01*
X225597841Y-85705659D01*
X225601209Y-85703868D01*
X225653157Y-85661500D01*
X225705444Y-85619760D01*
X225710744Y-85614534D01*
X225710860Y-85614439D01*
X225710949Y-85614331D01*
X225712652Y-85612652D01*
X233405510Y-77919794D01*
X261997640Y-77919794D01*
X262059725Y-78094166D01*
X262194669Y-78275942D01*
X262362483Y-78427899D01*
X262556718Y-78544198D01*
X262769909Y-78620369D01*
X262993864Y-78653484D01*
X263175000Y-78489814D01*
X263175000Y-77750000D01*
X263725000Y-77750000D01*
X263725000Y-78489814D01*
X263906136Y-78653484D01*
X264130091Y-78620369D01*
X264343282Y-78544198D01*
X264537517Y-78427899D01*
X264705331Y-78275942D01*
X264840275Y-78094166D01*
X264902360Y-77919794D01*
X265897640Y-77919794D01*
X265959725Y-78094166D01*
X266094669Y-78275942D01*
X266262483Y-78427899D01*
X266456718Y-78544198D01*
X266669909Y-78620369D01*
X266893864Y-78653484D01*
X267075000Y-78489814D01*
X267075000Y-77750000D01*
X267625000Y-77750000D01*
X267625000Y-78489814D01*
X267806136Y-78653484D01*
X268030091Y-78620369D01*
X268243282Y-78544198D01*
X268437517Y-78427899D01*
X268605331Y-78275942D01*
X268740275Y-78094166D01*
X268802360Y-77919794D01*
X268692145Y-77750000D01*
X267625000Y-77750000D01*
X267075000Y-77750000D01*
X266007855Y-77750000D01*
X265897640Y-77919794D01*
X264902360Y-77919794D01*
X264792145Y-77750000D01*
X263725000Y-77750000D01*
X263175000Y-77750000D01*
X262107855Y-77750000D01*
X261997640Y-77919794D01*
X233405510Y-77919794D01*
X234245098Y-77080206D01*
X261997640Y-77080206D01*
X262107855Y-77250000D01*
X263175000Y-77250000D01*
X263175000Y-76510186D01*
X263725000Y-76510186D01*
X263725000Y-77250000D01*
X264792145Y-77250000D01*
X264902360Y-77080206D01*
X265897640Y-77080206D01*
X266007855Y-77250000D01*
X267075000Y-77250000D01*
X267075000Y-76510186D01*
X267625000Y-76510186D01*
X267625000Y-77250000D01*
X268692145Y-77250000D01*
X268802360Y-77080206D01*
X268740275Y-76905834D01*
X268605331Y-76724058D01*
X268437517Y-76572101D01*
X268243282Y-76455802D01*
X268030091Y-76379631D01*
X267806136Y-76346516D01*
X267625000Y-76510186D01*
X267075000Y-76510186D01*
X266893864Y-76346516D01*
X266669909Y-76379631D01*
X266456718Y-76455802D01*
X266262483Y-76572101D01*
X266094669Y-76724058D01*
X265959725Y-76905834D01*
X265897640Y-77080206D01*
X264902360Y-77080206D01*
X264840275Y-76905834D01*
X264705331Y-76724058D01*
X264537517Y-76572101D01*
X264343282Y-76455802D01*
X264130091Y-76379631D01*
X263906136Y-76346516D01*
X263725000Y-76510186D01*
X263175000Y-76510186D01*
X262993864Y-76346516D01*
X262769909Y-76379631D01*
X262556718Y-76455802D01*
X262362483Y-76572101D01*
X262194669Y-76724058D01*
X262059725Y-76905834D01*
X261997640Y-77080206D01*
X234245098Y-77080206D01*
X236700304Y-74625000D01*
X257837579Y-74625000D01*
X258819058Y-75688269D01*
X258826361Y-75695554D01*
X258862796Y-75729012D01*
X258879074Y-75741653D01*
X258920511Y-75768669D01*
X258938646Y-75778464D01*
X258983960Y-75798304D01*
X259003457Y-75804985D01*
X259051414Y-75817109D01*
X259071746Y-75820497D01*
X259121044Y-75824575D01*
X259131349Y-75825000D01*
X259675736Y-75825000D01*
X259687987Y-75824398D01*
X259746514Y-75818634D01*
X259770549Y-75813853D01*
X259826827Y-75796781D01*
X259849466Y-75787404D01*
X259901332Y-75759681D01*
X259921706Y-75746067D01*
X259967167Y-75708758D01*
X259976256Y-75700520D01*
X261196177Y-74480599D01*
X261227374Y-74454997D01*
X261257528Y-74438879D01*
X261290240Y-74428955D01*
X261330402Y-74425000D01*
X263535533Y-74425000D01*
X263550000Y-74427056D01*
X264900000Y-74427056D01*
X264925783Y-74425000D01*
X265300000Y-74425000D01*
X265312251Y-74424398D01*
X265370778Y-74418634D01*
X265394813Y-74413853D01*
X265451091Y-74396781D01*
X265473730Y-74387404D01*
X265525596Y-74359681D01*
X265545970Y-74346067D01*
X265591431Y-74308758D01*
X265608758Y-74291431D01*
X265646067Y-74245970D01*
X265659681Y-74225596D01*
X265687404Y-74173730D01*
X265696781Y-74151091D01*
X265713853Y-74094813D01*
X265718634Y-74070778D01*
X265724398Y-74012251D01*
X265725000Y-74000000D01*
X265725000Y-71600000D01*
X265724398Y-71587749D01*
X265718634Y-71529222D01*
X265713853Y-71505187D01*
X265696781Y-71448909D01*
X265687404Y-71426270D01*
X265659681Y-71374404D01*
X265646067Y-71354030D01*
X265608758Y-71308569D01*
X265591431Y-71291242D01*
X265545970Y-71253933D01*
X265525596Y-71240319D01*
X265473730Y-71212596D01*
X265451091Y-71203219D01*
X265394813Y-71186147D01*
X265370778Y-71181366D01*
X265312251Y-71175602D01*
X265300000Y-71175000D01*
X264327043Y-71175000D01*
X264343282Y-71169198D01*
X264537517Y-71052899D01*
X264705331Y-70900942D01*
X264840275Y-70719166D01*
X264902360Y-70544794D01*
X264886133Y-70519794D01*
X265897640Y-70519794D01*
X265959725Y-70694166D01*
X266094669Y-70875942D01*
X266262483Y-71027899D01*
X266456718Y-71144198D01*
X266669909Y-71220369D01*
X266893864Y-71253484D01*
X267075000Y-71089814D01*
X267075000Y-70350000D01*
X267625000Y-70350000D01*
X267625000Y-71089814D01*
X267806136Y-71253484D01*
X268030091Y-71220369D01*
X268243282Y-71144198D01*
X268437517Y-71027899D01*
X268605331Y-70875942D01*
X268740275Y-70694166D01*
X268802360Y-70519794D01*
X268692145Y-70350000D01*
X267625000Y-70350000D01*
X267075000Y-70350000D01*
X266007855Y-70350000D01*
X265897640Y-70519794D01*
X264886133Y-70519794D01*
X264792145Y-70375000D01*
X263725000Y-70375000D01*
X263725000Y-70420000D01*
X263175000Y-70420000D01*
X263175000Y-70375000D01*
X262107855Y-70375000D01*
X261997640Y-70544794D01*
X262039700Y-70662924D01*
X261081982Y-69705206D01*
X261997640Y-69705206D01*
X262107855Y-69875000D01*
X263175000Y-69875000D01*
X263175000Y-69135186D01*
X263725000Y-69135186D01*
X263725000Y-69875000D01*
X264792145Y-69875000D01*
X264902360Y-69705206D01*
X264893459Y-69680206D01*
X265897640Y-69680206D01*
X266007855Y-69850000D01*
X267075000Y-69850000D01*
X267075000Y-69110186D01*
X267625000Y-69110186D01*
X267625000Y-69850000D01*
X268692145Y-69850000D01*
X268802360Y-69680206D01*
X268740275Y-69505834D01*
X268605331Y-69324058D01*
X268437517Y-69172101D01*
X268243282Y-69055802D01*
X268030091Y-68979631D01*
X267806136Y-68946516D01*
X267625000Y-69110186D01*
X267075000Y-69110186D01*
X266893864Y-68946516D01*
X266669909Y-68979631D01*
X266456718Y-69055802D01*
X266262483Y-69172101D01*
X266094669Y-69324058D01*
X265959725Y-69505834D01*
X265897640Y-69680206D01*
X264893459Y-69680206D01*
X264840275Y-69530834D01*
X264705331Y-69349058D01*
X264537517Y-69197101D01*
X264343282Y-69080802D01*
X264130091Y-69004631D01*
X263906136Y-68971516D01*
X263725000Y-69135186D01*
X263175000Y-69135186D01*
X262993864Y-68971516D01*
X262769909Y-69004631D01*
X262556718Y-69080802D01*
X262362483Y-69197101D01*
X262194669Y-69349058D01*
X262059725Y-69530834D01*
X261997640Y-69705206D01*
X261081982Y-69705206D01*
X261080599Y-69703823D01*
X261054997Y-69672626D01*
X261038879Y-69642472D01*
X261028955Y-69609760D01*
X261025000Y-69569598D01*
X261025000Y-68400000D01*
X261024398Y-68387749D01*
X261018634Y-68329222D01*
X261013853Y-68305187D01*
X260996781Y-68248909D01*
X260987404Y-68226270D01*
X260959681Y-68174404D01*
X260946067Y-68154030D01*
X260908758Y-68108569D01*
X260891431Y-68091242D01*
X260845970Y-68053933D01*
X260825596Y-68040319D01*
X260773730Y-68012596D01*
X260751091Y-68003219D01*
X260694813Y-67986147D01*
X260670778Y-67981366D01*
X260612251Y-67975602D01*
X260600000Y-67975000D01*
X255300000Y-67975000D01*
X255287749Y-67975602D01*
X255229222Y-67981366D01*
X255205187Y-67986147D01*
X255148909Y-68003219D01*
X255126270Y-68012596D01*
X255074404Y-68040319D01*
X255054030Y-68053933D01*
X255008569Y-68091242D01*
X254991242Y-68108569D01*
X254953933Y-68154030D01*
X254940319Y-68174404D01*
X254912596Y-68226270D01*
X254903219Y-68248909D01*
X254886147Y-68305187D01*
X254881366Y-68329222D01*
X254875602Y-68387749D01*
X254875000Y-68400000D01*
X254875000Y-71975000D01*
X236100000Y-71975000D01*
X236033355Y-71981535D01*
X235966635Y-71987372D01*
X235962972Y-71988436D01*
X235959180Y-71988808D01*
X235895077Y-72008162D01*
X235830758Y-72026848D01*
X235827374Y-72028602D01*
X235823724Y-72029704D01*
X235764568Y-72061158D01*
X235705137Y-72091964D01*
X235702159Y-72094341D01*
X235698791Y-72096132D01*
X235646843Y-72138500D01*
X235594556Y-72180240D01*
X235589252Y-72185469D01*
X235589140Y-72185561D01*
X235589054Y-72185665D01*
X235587347Y-72187348D01*
X224499696Y-83275000D01*
X195900000Y-83275000D01*
X195833400Y-83281530D01*
X195766635Y-83287372D01*
X195762972Y-83288436D01*
X195759180Y-83288808D01*
X195695063Y-83308166D01*
X195630759Y-83326848D01*
X195627377Y-83328601D01*
X195623724Y-83329704D01*
X195564550Y-83361167D01*
X195505137Y-83391964D01*
X195502159Y-83394341D01*
X195498791Y-83396132D01*
X195446843Y-83438500D01*
X195394556Y-83480240D01*
X195389256Y-83485466D01*
X195389140Y-83485561D01*
X195389051Y-83485669D01*
X195387348Y-83487348D01*
X192887348Y-85987348D01*
X192844880Y-86039049D01*
X192801793Y-86090399D01*
X192799955Y-86093742D01*
X192797537Y-86096686D01*
X192765911Y-86155668D01*
X192733627Y-86214392D01*
X192732474Y-86218028D01*
X192730673Y-86221386D01*
X192711091Y-86285434D01*
X192690843Y-86349264D01*
X192690418Y-86353050D01*
X192689303Y-86356698D01*
X192682530Y-86423381D01*
X192675071Y-86489877D01*
X192675019Y-86497324D01*
X192675004Y-86497469D01*
X192675017Y-86497604D01*
X192675000Y-86500000D01*
X192675000Y-88992706D01*
X192674047Y-89060960D01*
X189625010Y-89060960D01*
X189625010Y-88100294D01*
X195300305Y-82425000D01*
X210590926Y-82425000D01*
X210655890Y-82426361D01*
X210795910Y-82401672D01*
X210928468Y-82350256D01*
X211048514Y-82274072D01*
X211151477Y-82176022D01*
X211233434Y-82059841D01*
X211291264Y-81929953D01*
X211322763Y-81791306D01*
X211323812Y-81716193D01*
X211324982Y-81705061D01*
X211324102Y-81695396D01*
X211325031Y-81628910D01*
X211297415Y-81489438D01*
X211243234Y-81357986D01*
X211164553Y-81239562D01*
X211064368Y-81138675D01*
X210946496Y-81059169D01*
X210815426Y-81004072D01*
X210676150Y-80975483D01*
X210533973Y-80974490D01*
X210531300Y-80975000D01*
X195000000Y-80975000D01*
X194933396Y-80981531D01*
X194866636Y-80987372D01*
X194862973Y-80988436D01*
X194859180Y-80988808D01*
X194795098Y-81008155D01*
X194730759Y-81026847D01*
X194727372Y-81028603D01*
X194723724Y-81029704D01*
X194664585Y-81061149D01*
X194605137Y-81091964D01*
X194602159Y-81094341D01*
X194598791Y-81096132D01*
X194546874Y-81138475D01*
X194494556Y-81180239D01*
X194489251Y-81185471D01*
X194489140Y-81185561D01*
X194489055Y-81185663D01*
X194487348Y-81187347D01*
X188387358Y-87287338D01*
X188344890Y-87339039D01*
X188301803Y-87390389D01*
X188299965Y-87393732D01*
X188297547Y-87396676D01*
X188265921Y-87455658D01*
X188233637Y-87514382D01*
X188232484Y-87518018D01*
X188230683Y-87521376D01*
X188211101Y-87585424D01*
X188190853Y-87649254D01*
X188190428Y-87653040D01*
X188189313Y-87656688D01*
X188182540Y-87723371D01*
X188175081Y-87789867D01*
X188175029Y-87797314D01*
X188175014Y-87797459D01*
X188175027Y-87797594D01*
X188175010Y-87799990D01*
X188175010Y-94792706D01*
X188174057Y-94860960D01*
X174900000Y-94860960D01*
X174900000Y-89275000D01*
X178272944Y-89275000D01*
X178272944Y-90825000D01*
X178278341Y-90892680D01*
X178313890Y-91007472D01*
X178380012Y-91107815D01*
X178471471Y-91185765D01*
X178581025Y-91235148D01*
X178700000Y-91252056D01*
X179700000Y-91252056D01*
X179767680Y-91246659D01*
X179882472Y-91211110D01*
X179982815Y-91144988D01*
X180060765Y-91053529D01*
X180110148Y-90943975D01*
X180127056Y-90825000D01*
X180127056Y-89275000D01*
X180121659Y-89207320D01*
X180086110Y-89092528D01*
X180019988Y-88992185D01*
X179928529Y-88914235D01*
X179818975Y-88864852D01*
X179700000Y-88847944D01*
X178700000Y-88847944D01*
X178632320Y-88853341D01*
X178517528Y-88888890D01*
X178417185Y-88955012D01*
X178339235Y-89046471D01*
X178289852Y-89156025D01*
X178272944Y-89275000D01*
X174900000Y-89275000D01*
X174900000Y-84575000D01*
X178272944Y-84575000D01*
X178272944Y-86125000D01*
X178278341Y-86192680D01*
X178313890Y-86307472D01*
X178380012Y-86407815D01*
X178471471Y-86485765D01*
X178581025Y-86535148D01*
X178700000Y-86552056D01*
X179700000Y-86552056D01*
X179767680Y-86546659D01*
X179882472Y-86511110D01*
X179982815Y-86444988D01*
X179999930Y-86424907D01*
X180003341Y-86467680D01*
X180038890Y-86582472D01*
X180105012Y-86682815D01*
X180196471Y-86760765D01*
X180306025Y-86810148D01*
X180425000Y-86827056D01*
X181425000Y-86827056D01*
X181450783Y-86825000D01*
X186900000Y-86825000D01*
X186966600Y-86818470D01*
X187033365Y-86812628D01*
X187037028Y-86811564D01*
X187040820Y-86811192D01*
X187104923Y-86791838D01*
X187169242Y-86773152D01*
X187172626Y-86771398D01*
X187176276Y-86770296D01*
X187235432Y-86738842D01*
X187294863Y-86708036D01*
X187297841Y-86705659D01*
X187301209Y-86703868D01*
X187353157Y-86661500D01*
X187405444Y-86619760D01*
X187410744Y-86614534D01*
X187410860Y-86614439D01*
X187410949Y-86614331D01*
X187412652Y-86612652D01*
X188112652Y-85912653D01*
X188155140Y-85860926D01*
X188198207Y-85809601D01*
X188200045Y-85806258D01*
X188202463Y-85803314D01*
X188234099Y-85744313D01*
X188266373Y-85685608D01*
X188267526Y-85681975D01*
X188269327Y-85678615D01*
X188288900Y-85614593D01*
X188309157Y-85550736D01*
X188309582Y-85546945D01*
X188310696Y-85543302D01*
X188317465Y-85476668D01*
X188324929Y-85410123D01*
X188324981Y-85402676D01*
X188324996Y-85402531D01*
X188324983Y-85402396D01*
X188325000Y-85400000D01*
X188325000Y-83100000D01*
X188324158Y-83091414D01*
X188325031Y-83028910D01*
X188297415Y-82889438D01*
X188243234Y-82757986D01*
X188164553Y-82639562D01*
X188064368Y-82538675D01*
X187946496Y-82459169D01*
X187815426Y-82404072D01*
X187676150Y-82375483D01*
X187533973Y-82374490D01*
X187394312Y-82401132D01*
X187262485Y-82454394D01*
X187143514Y-82532246D01*
X187041930Y-82631724D01*
X186961604Y-82749039D01*
X186905593Y-82879721D01*
X186876032Y-83018794D01*
X186874047Y-83160960D01*
X186875000Y-83166153D01*
X186875000Y-85099695D01*
X186599696Y-85375000D01*
X181439467Y-85375000D01*
X181425000Y-85372944D01*
X180425000Y-85372944D01*
X180357320Y-85378341D01*
X180242528Y-85413890D01*
X180142185Y-85480012D01*
X180127056Y-85497763D01*
X180127056Y-84575000D01*
X180121659Y-84507320D01*
X180086110Y-84392528D01*
X180019988Y-84292185D01*
X179928529Y-84214235D01*
X179818975Y-84164852D01*
X179700000Y-84147944D01*
X178700000Y-84147944D01*
X178632320Y-84153341D01*
X178517528Y-84188890D01*
X178417185Y-84255012D01*
X178339235Y-84346471D01*
X178289852Y-84456025D01*
X178272944Y-84575000D01*
X174900000Y-84575000D01*
X174900000Y-76413133D01*
X177097983Y-76423568D01*
X177108912Y-76423141D01*
X177161183Y-76418804D01*
X177182722Y-76415100D01*
X177233439Y-76401725D01*
X177254003Y-76394326D01*
X177301616Y-76372322D01*
X177320577Y-76361454D01*
X177363629Y-76331494D01*
X177380406Y-76317492D01*
X177417583Y-76280492D01*
X177431668Y-76263779D01*
X177461832Y-76220869D01*
X177472789Y-76201959D01*
X177495018Y-76154452D01*
X177502514Y-76133925D01*
X177516130Y-76083272D01*
X177519937Y-76061750D01*
X177524522Y-76009499D01*
X177525000Y-75998572D01*
X177525000Y-71600000D01*
X177524398Y-71587749D01*
X177518634Y-71529222D01*
X177513853Y-71505187D01*
X177496781Y-71448909D01*
X177487404Y-71426270D01*
X177459681Y-71374404D01*
X177446067Y-71354030D01*
X177408758Y-71308569D01*
X177391431Y-71291242D01*
X177345970Y-71253933D01*
X177325596Y-71240319D01*
X177273730Y-71212596D01*
X177251091Y-71203219D01*
X177194813Y-71186147D01*
X177170778Y-71181366D01*
X177112251Y-71175602D01*
X177100000Y-71175000D01*
X174900000Y-71175000D01*
X174900000Y-71060960D01*
X181074047Y-71060960D01*
X181075000Y-71066153D01*
X181075000Y-82200000D01*
X181081530Y-82266600D01*
X181087372Y-82333365D01*
X181088436Y-82337028D01*
X181088808Y-82340820D01*
X181108162Y-82404923D01*
X181126848Y-82469242D01*
X181128602Y-82472626D01*
X181129704Y-82476276D01*
X181161158Y-82535432D01*
X181191964Y-82594863D01*
X181194341Y-82597841D01*
X181196132Y-82601209D01*
X181238500Y-82653157D01*
X181280240Y-82705444D01*
X181285466Y-82710744D01*
X181285561Y-82710860D01*
X181285669Y-82710949D01*
X181287348Y-82712652D01*
X182087348Y-83512653D01*
X182139106Y-83555167D01*
X182190399Y-83598207D01*
X182193739Y-83600043D01*
X182196686Y-83602464D01*
X182255742Y-83634130D01*
X182314392Y-83666373D01*
X182318023Y-83667525D01*
X182321386Y-83669328D01*
X182385468Y-83688920D01*
X182449264Y-83709157D01*
X182453051Y-83709582D01*
X182456699Y-83710697D01*
X182523376Y-83717470D01*
X182589877Y-83724929D01*
X182597324Y-83724981D01*
X182597469Y-83724996D01*
X182597604Y-83724983D01*
X182600000Y-83725000D01*
X183374980Y-83725000D01*
X183374980Y-83894138D01*
X183374047Y-83960960D01*
X183399713Y-84100804D01*
X183452053Y-84232999D01*
X183529073Y-84352511D01*
X183627839Y-84454787D01*
X183744590Y-84535931D01*
X183874879Y-84592852D01*
X184013742Y-84623383D01*
X184155890Y-84626361D01*
X184295910Y-84601672D01*
X184428468Y-84550256D01*
X184548514Y-84474072D01*
X184651477Y-84376022D01*
X184733434Y-84259841D01*
X184791264Y-84129953D01*
X184822763Y-83991306D01*
X184823753Y-83920408D01*
X184824909Y-83910103D01*
X184824924Y-83907921D01*
X184824960Y-83907592D01*
X184824929Y-83907239D01*
X184824980Y-83899980D01*
X184824980Y-83832562D01*
X184825031Y-83828910D01*
X184824980Y-83828652D01*
X184824980Y-83002669D01*
X184824996Y-83002511D01*
X184824980Y-83002342D01*
X184824980Y-83000000D01*
X184824138Y-82991414D01*
X184825011Y-82928910D01*
X184797395Y-82789438D01*
X184743214Y-82657986D01*
X184664533Y-82539562D01*
X184564348Y-82438675D01*
X184446476Y-82359169D01*
X184315406Y-82304072D01*
X184176130Y-82275483D01*
X184033953Y-82274490D01*
X184031280Y-82275000D01*
X182900305Y-82275000D01*
X182525000Y-81899696D01*
X182525000Y-71725000D01*
X188190926Y-71725000D01*
X188255890Y-71726361D01*
X188395910Y-71701672D01*
X188528468Y-71650256D01*
X188648514Y-71574072D01*
X188751477Y-71476022D01*
X188833434Y-71359841D01*
X188891264Y-71229953D01*
X188922763Y-71091306D01*
X188923812Y-71016193D01*
X188924982Y-71005061D01*
X188924102Y-70995396D01*
X188925031Y-70928910D01*
X188897415Y-70789438D01*
X188843234Y-70657986D01*
X188764553Y-70539562D01*
X188664368Y-70438675D01*
X188546496Y-70359169D01*
X188415426Y-70304072D01*
X188276150Y-70275483D01*
X188133973Y-70274490D01*
X188131300Y-70275000D01*
X181806994Y-70275000D01*
X181733973Y-70274490D01*
X181594312Y-70301132D01*
X181462485Y-70354394D01*
X181343514Y-70432246D01*
X181241930Y-70531724D01*
X181161604Y-70649039D01*
X181105593Y-70779721D01*
X181076032Y-70918794D01*
X181074047Y-71060960D01*
X174900000Y-71060960D01*
X174900000Y-70183250D01*
X176067000Y-70183250D01*
X176067000Y-70312345D01*
X176091326Y-70434639D01*
X176139043Y-70549838D01*
X176208317Y-70653514D01*
X176296486Y-70741683D01*
X176400162Y-70810957D01*
X176515361Y-70858674D01*
X176637655Y-70883000D01*
X176866750Y-70883000D01*
X177025000Y-70724750D01*
X177025000Y-70025000D01*
X176225250Y-70025000D01*
X176067000Y-70183250D01*
X174900000Y-70183250D01*
X174900000Y-69287655D01*
X176067000Y-69287655D01*
X176067000Y-69416750D01*
X176225250Y-69575000D01*
X177025000Y-69575000D01*
X177025000Y-68875250D01*
X176866750Y-68717000D01*
X176637655Y-68717000D01*
X176515361Y-68741326D01*
X176400162Y-68789043D01*
X176296486Y-68858317D01*
X176208317Y-68946486D01*
X176139043Y-69050162D01*
X176091326Y-69165361D01*
X176067000Y-69287655D01*
X174900000Y-69287655D01*
X174900000Y-51300000D01*
X176575000Y-51300000D01*
X176575000Y-67900000D01*
X176580635Y-67957468D01*
X176585666Y-68014970D01*
X176586582Y-68018123D01*
X176586903Y-68021396D01*
X176603585Y-68076650D01*
X176619696Y-68132105D01*
X176621210Y-68135026D01*
X176622159Y-68138169D01*
X176649263Y-68189144D01*
X176675831Y-68240399D01*
X176677879Y-68242965D01*
X176679424Y-68245870D01*
X176715940Y-68290642D01*
X176751931Y-68335728D01*
X176756443Y-68340304D01*
X176756518Y-68340396D01*
X176756603Y-68340466D01*
X176758058Y-68341942D01*
X176958058Y-68541942D01*
X177002688Y-68578601D01*
X177046896Y-68615696D01*
X177049775Y-68617279D01*
X177052315Y-68619365D01*
X177103147Y-68646621D01*
X177153786Y-68674460D01*
X177156924Y-68675456D01*
X177159816Y-68677006D01*
X177215010Y-68693881D01*
X177270055Y-68711342D01*
X177273317Y-68711708D01*
X177276464Y-68712670D01*
X177333937Y-68718508D01*
X177391274Y-68724939D01*
X177397699Y-68724984D01*
X177397818Y-68724996D01*
X177397929Y-68724986D01*
X177400000Y-68725000D01*
X177725250Y-68725000D01*
X177575000Y-68875250D01*
X177575000Y-69575000D01*
X177595000Y-69575000D01*
X177595000Y-70025000D01*
X177575000Y-70025000D01*
X177575000Y-70724750D01*
X177733250Y-70883000D01*
X177962345Y-70883000D01*
X178084639Y-70858674D01*
X178199838Y-70810957D01*
X178303514Y-70741683D01*
X178391683Y-70653514D01*
X178460957Y-70549838D01*
X178508674Y-70434639D01*
X178510976Y-70423064D01*
X178513890Y-70432472D01*
X178580012Y-70532815D01*
X178671471Y-70610765D01*
X178781025Y-70660148D01*
X178900000Y-70677056D01*
X180100000Y-70677056D01*
X180167680Y-70671659D01*
X180282472Y-70636110D01*
X180382815Y-70569988D01*
X180460765Y-70478529D01*
X180510148Y-70368975D01*
X180527056Y-70250000D01*
X180527056Y-69350000D01*
X180521659Y-69282320D01*
X180486110Y-69167528D01*
X180419988Y-69067185D01*
X180328529Y-68989235D01*
X180218975Y-68939852D01*
X180125000Y-68926497D01*
X180125000Y-68700000D01*
X180119365Y-68642532D01*
X180114334Y-68585030D01*
X180113418Y-68581877D01*
X180113097Y-68578604D01*
X180096415Y-68523350D01*
X180080304Y-68467895D01*
X180078790Y-68464974D01*
X180077841Y-68461831D01*
X180050737Y-68410856D01*
X180024169Y-68359601D01*
X180022121Y-68357035D01*
X180020576Y-68354130D01*
X179984060Y-68309358D01*
X179948069Y-68264272D01*
X179943557Y-68259696D01*
X179943482Y-68259604D01*
X179943397Y-68259534D01*
X179941942Y-68258058D01*
X179341942Y-67658058D01*
X179297312Y-67621399D01*
X179253104Y-67584304D01*
X179250225Y-67582721D01*
X179247685Y-67580635D01*
X179196853Y-67553379D01*
X179146214Y-67525540D01*
X179143076Y-67524544D01*
X179140184Y-67522994D01*
X179084990Y-67506119D01*
X179029945Y-67488658D01*
X179026683Y-67488292D01*
X179023536Y-67487330D01*
X178966063Y-67481492D01*
X178908726Y-67475061D01*
X178902301Y-67475016D01*
X178902182Y-67475004D01*
X178902071Y-67475014D01*
X178900000Y-67475000D01*
X177825000Y-67475000D01*
X177825000Y-65475000D01*
X178272944Y-65475000D01*
X178272944Y-67025000D01*
X178278341Y-67092680D01*
X178313890Y-67207472D01*
X178380012Y-67307815D01*
X178471471Y-67385765D01*
X178581025Y-67435148D01*
X178700000Y-67452056D01*
X179700000Y-67452056D01*
X179767680Y-67446659D01*
X179882472Y-67411110D01*
X179982815Y-67344988D01*
X180060765Y-67253529D01*
X180110148Y-67143975D01*
X180127056Y-67025000D01*
X180127056Y-66160960D01*
X201374047Y-66160960D01*
X201375000Y-66166153D01*
X201375000Y-77200000D01*
X201381530Y-77266600D01*
X201387372Y-77333365D01*
X201388436Y-77337028D01*
X201388808Y-77340820D01*
X201408162Y-77404923D01*
X201426848Y-77469242D01*
X201428602Y-77472626D01*
X201429704Y-77476276D01*
X201461158Y-77535432D01*
X201491964Y-77594863D01*
X201494341Y-77597841D01*
X201496132Y-77601209D01*
X201538500Y-77653157D01*
X201580240Y-77705444D01*
X201585466Y-77710744D01*
X201585561Y-77710860D01*
X201585669Y-77710949D01*
X201587348Y-77712652D01*
X203687347Y-79812652D01*
X203739074Y-79855140D01*
X203790399Y-79898207D01*
X203793742Y-79900045D01*
X203796686Y-79902463D01*
X203855687Y-79934099D01*
X203914392Y-79966373D01*
X203918025Y-79967526D01*
X203921385Y-79969327D01*
X203985407Y-79988900D01*
X204049264Y-80009157D01*
X204053055Y-80009582D01*
X204056698Y-80010696D01*
X204123332Y-80017465D01*
X204189877Y-80024929D01*
X204197324Y-80024981D01*
X204197469Y-80024996D01*
X204197604Y-80024983D01*
X204200000Y-80025000D01*
X211685802Y-80025000D01*
X211699713Y-80100796D01*
X211752053Y-80232991D01*
X211829073Y-80352503D01*
X211927839Y-80454779D01*
X212044590Y-80535923D01*
X212174879Y-80592844D01*
X212313742Y-80623375D01*
X212455890Y-80626353D01*
X212595910Y-80601664D01*
X212728468Y-80550248D01*
X212848514Y-80474064D01*
X212951477Y-80376014D01*
X213033434Y-80259833D01*
X213091264Y-80129945D01*
X213122763Y-79991298D01*
X213123750Y-79920626D01*
X213124929Y-79910115D01*
X213125000Y-79899992D01*
X213125000Y-79831122D01*
X213125031Y-79828902D01*
X213125000Y-79828745D01*
X213125000Y-78700012D01*
X213124158Y-78691426D01*
X213125031Y-78628922D01*
X213097415Y-78489450D01*
X213043234Y-78357998D01*
X212964553Y-78239574D01*
X212864368Y-78138687D01*
X212746496Y-78059181D01*
X212615426Y-78004084D01*
X212476150Y-77975495D01*
X212333973Y-77974502D01*
X212194312Y-78001144D01*
X212062485Y-78054406D01*
X211943514Y-78132258D01*
X211841930Y-78231736D01*
X211761604Y-78349051D01*
X211705593Y-78479733D01*
X211685343Y-78575000D01*
X204500305Y-78575000D01*
X202825000Y-76899696D01*
X202825000Y-71360960D01*
X203174047Y-71360960D01*
X203175000Y-71366153D01*
X203175000Y-74100000D01*
X203181530Y-74166600D01*
X203187372Y-74233365D01*
X203188436Y-74237028D01*
X203188808Y-74240820D01*
X203208162Y-74304923D01*
X203226848Y-74369242D01*
X203228602Y-74372626D01*
X203229704Y-74376276D01*
X203261158Y-74435432D01*
X203291964Y-74494863D01*
X203294341Y-74497841D01*
X203296132Y-74501209D01*
X203338500Y-74553157D01*
X203380240Y-74605444D01*
X203385466Y-74610744D01*
X203385561Y-74610860D01*
X203385669Y-74610949D01*
X203387348Y-74612652D01*
X204287347Y-75512652D01*
X204339074Y-75555140D01*
X204390399Y-75598207D01*
X204393742Y-75600045D01*
X204396686Y-75602463D01*
X204455668Y-75634089D01*
X204514392Y-75666373D01*
X204518028Y-75667526D01*
X204521386Y-75669327D01*
X204585434Y-75688909D01*
X204649264Y-75709157D01*
X204653050Y-75709582D01*
X204656698Y-75710697D01*
X204723381Y-75717470D01*
X204789877Y-75724929D01*
X204797324Y-75724981D01*
X204797469Y-75724996D01*
X204797604Y-75724983D01*
X204800000Y-75725000D01*
X217990926Y-75725000D01*
X218055890Y-75726361D01*
X218195910Y-75701672D01*
X218328468Y-75650256D01*
X218448514Y-75574072D01*
X218551477Y-75476022D01*
X218633434Y-75359841D01*
X218691264Y-75229953D01*
X218722763Y-75091306D01*
X218723812Y-75016193D01*
X218724982Y-75005061D01*
X218724102Y-74995396D01*
X218725031Y-74928910D01*
X218697415Y-74789438D01*
X218643234Y-74657986D01*
X218564553Y-74539562D01*
X218464368Y-74438675D01*
X218346496Y-74359169D01*
X218215426Y-74304072D01*
X218076150Y-74275483D01*
X217933973Y-74274490D01*
X217931300Y-74275000D01*
X205100305Y-74275000D01*
X204625000Y-73799696D01*
X204625000Y-72471061D01*
X204674879Y-72492852D01*
X204813742Y-72523383D01*
X204955890Y-72526361D01*
X205095910Y-72501672D01*
X205175002Y-72470994D01*
X205175002Y-73292706D01*
X205174049Y-73360960D01*
X205199715Y-73500804D01*
X205252055Y-73632999D01*
X205329075Y-73752511D01*
X205427841Y-73854787D01*
X205544592Y-73935931D01*
X205674881Y-73992852D01*
X205813744Y-74023383D01*
X205955892Y-74026361D01*
X206095912Y-74001672D01*
X206228470Y-73950256D01*
X206348516Y-73874072D01*
X206451479Y-73776022D01*
X206533436Y-73659841D01*
X206591266Y-73529953D01*
X206622765Y-73391306D01*
X206623752Y-73320634D01*
X206624931Y-73310123D01*
X206625002Y-73300000D01*
X206625002Y-73231130D01*
X206625033Y-73228910D01*
X206625002Y-73228753D01*
X206625002Y-66310960D01*
X220474047Y-66310960D01*
X220499713Y-66450804D01*
X220552053Y-66582999D01*
X220629073Y-66702511D01*
X220727839Y-66804787D01*
X220844590Y-66885931D01*
X220974879Y-66942852D01*
X221113742Y-66973383D01*
X221255890Y-66976361D01*
X221263609Y-66975000D01*
X226149696Y-66975000D01*
X226575000Y-67400305D01*
X226575000Y-71992706D01*
X226574047Y-72060960D01*
X226599713Y-72200804D01*
X226652053Y-72332999D01*
X226729073Y-72452511D01*
X226827839Y-72554787D01*
X226944590Y-72635931D01*
X227074879Y-72692852D01*
X227213742Y-72723383D01*
X227355890Y-72726361D01*
X227495910Y-72701672D01*
X227628468Y-72650256D01*
X227748514Y-72574072D01*
X227851477Y-72476022D01*
X227933434Y-72359841D01*
X227991264Y-72229953D01*
X228022763Y-72091306D01*
X228023750Y-72020634D01*
X228024929Y-72010123D01*
X228025000Y-72000000D01*
X228025000Y-71931130D01*
X228025031Y-71928910D01*
X228025000Y-71928753D01*
X228025000Y-67100000D01*
X228018469Y-67033392D01*
X228012628Y-66966636D01*
X228011564Y-66962973D01*
X228011192Y-66959180D01*
X227991845Y-66895098D01*
X227973153Y-66830759D01*
X227971397Y-66827372D01*
X227970296Y-66823724D01*
X227938872Y-66764625D01*
X227908037Y-66705137D01*
X227905657Y-66702156D01*
X227903868Y-66698791D01*
X227861548Y-66646901D01*
X227819761Y-66594556D01*
X227814529Y-66589251D01*
X227814439Y-66589140D01*
X227814337Y-66589055D01*
X227812653Y-66587348D01*
X226962652Y-65737348D01*
X226910951Y-65694880D01*
X226859601Y-65651793D01*
X226856258Y-65649955D01*
X226853314Y-65647537D01*
X226794332Y-65615911D01*
X226735608Y-65583627D01*
X226731972Y-65582474D01*
X226728614Y-65580673D01*
X226664566Y-65561091D01*
X226600736Y-65540843D01*
X226596950Y-65540418D01*
X226593302Y-65539303D01*
X226526619Y-65532530D01*
X226460123Y-65525071D01*
X226452676Y-65525019D01*
X226452531Y-65525004D01*
X226452396Y-65525017D01*
X226450000Y-65525000D01*
X221206994Y-65525000D01*
X221133973Y-65524490D01*
X220994312Y-65551132D01*
X220862485Y-65604394D01*
X220743514Y-65682246D01*
X220641930Y-65781724D01*
X220561604Y-65899039D01*
X220505593Y-66029721D01*
X220476032Y-66168794D01*
X220474047Y-66310960D01*
X206625002Y-66310960D01*
X206625002Y-65625000D01*
X219000000Y-65625000D01*
X219066600Y-65618470D01*
X219133365Y-65612628D01*
X219137028Y-65611564D01*
X219140820Y-65611192D01*
X219204923Y-65591838D01*
X219269242Y-65573152D01*
X219272626Y-65571398D01*
X219276276Y-65570296D01*
X219335432Y-65538842D01*
X219394863Y-65508036D01*
X219397841Y-65505659D01*
X219401209Y-65503868D01*
X219453157Y-65461500D01*
X219505444Y-65419760D01*
X219510744Y-65414534D01*
X219510860Y-65414439D01*
X219510949Y-65414331D01*
X219512652Y-65412652D01*
X220400304Y-64525000D01*
X223890926Y-64525000D01*
X223955890Y-64526361D01*
X224095910Y-64501672D01*
X224228468Y-64450256D01*
X224348514Y-64374072D01*
X224451477Y-64276022D01*
X224533434Y-64159841D01*
X224591264Y-64029953D01*
X224622763Y-63891306D01*
X224623812Y-63816193D01*
X224624982Y-63805061D01*
X224624102Y-63795396D01*
X224625031Y-63728910D01*
X224597415Y-63589438D01*
X224543234Y-63457986D01*
X224464553Y-63339562D01*
X224364368Y-63238675D01*
X224246496Y-63159169D01*
X224115426Y-63104072D01*
X223976150Y-63075483D01*
X223833973Y-63074490D01*
X223831300Y-63075000D01*
X220100000Y-63075000D01*
X220033400Y-63081530D01*
X219966635Y-63087372D01*
X219962972Y-63088436D01*
X219959180Y-63088808D01*
X219895063Y-63108166D01*
X219830759Y-63126848D01*
X219827377Y-63128601D01*
X219823724Y-63129704D01*
X219764550Y-63161167D01*
X219705137Y-63191964D01*
X219702159Y-63194341D01*
X219698791Y-63196132D01*
X219646843Y-63238500D01*
X219594556Y-63280240D01*
X219589256Y-63285466D01*
X219589140Y-63285561D01*
X219589051Y-63285669D01*
X219587348Y-63287348D01*
X219364680Y-63510016D01*
X219343234Y-63457986D01*
X219264553Y-63339562D01*
X219164368Y-63238675D01*
X219046496Y-63159169D01*
X218915426Y-63104072D01*
X218776150Y-63075483D01*
X218633973Y-63074490D01*
X218631300Y-63075000D01*
X205400000Y-63075000D01*
X205333396Y-63081531D01*
X205266636Y-63087372D01*
X205262974Y-63088436D01*
X205259180Y-63088808D01*
X205195051Y-63108169D01*
X205130759Y-63126848D01*
X205127377Y-63128601D01*
X205123724Y-63129704D01*
X205064550Y-63161167D01*
X205005137Y-63191964D01*
X205002159Y-63194341D01*
X204998791Y-63196132D01*
X204946843Y-63238500D01*
X204894556Y-63280240D01*
X204889252Y-63285470D01*
X204889140Y-63285561D01*
X204889054Y-63285665D01*
X204887348Y-63287347D01*
X204387348Y-63787348D01*
X204344880Y-63839049D01*
X204301793Y-63890399D01*
X204299955Y-63893742D01*
X204297537Y-63896686D01*
X204265911Y-63955668D01*
X204233627Y-64014392D01*
X204232474Y-64018028D01*
X204230673Y-64021386D01*
X204211091Y-64085434D01*
X204190843Y-64149264D01*
X204190418Y-64153050D01*
X204189303Y-64156698D01*
X204182530Y-64223381D01*
X204175071Y-64289877D01*
X204175019Y-64297324D01*
X204175004Y-64297469D01*
X204175017Y-64297604D01*
X204175000Y-64300000D01*
X204175000Y-70629115D01*
X204115426Y-70604072D01*
X203976150Y-70575483D01*
X203833973Y-70574490D01*
X203694312Y-70601132D01*
X203562485Y-70654394D01*
X203443514Y-70732246D01*
X203341930Y-70831724D01*
X203261604Y-70949039D01*
X203205593Y-71079721D01*
X203176032Y-71218794D01*
X203174047Y-71360960D01*
X202825000Y-71360960D01*
X202825000Y-66100000D01*
X202824158Y-66091414D01*
X202825031Y-66028910D01*
X202797415Y-65889438D01*
X202743234Y-65757986D01*
X202664553Y-65639562D01*
X202564368Y-65538675D01*
X202446496Y-65459169D01*
X202315426Y-65404072D01*
X202176150Y-65375483D01*
X202033973Y-65374490D01*
X201894312Y-65401132D01*
X201762485Y-65454394D01*
X201643514Y-65532246D01*
X201541930Y-65631724D01*
X201461604Y-65749039D01*
X201405593Y-65879721D01*
X201376032Y-66018794D01*
X201374047Y-66160960D01*
X180127056Y-66160960D01*
X180127056Y-65475000D01*
X180121659Y-65407320D01*
X180086110Y-65292528D01*
X180019988Y-65192185D01*
X179928529Y-65114235D01*
X179818975Y-65064852D01*
X179700000Y-65047944D01*
X178700000Y-65047944D01*
X178632320Y-65053341D01*
X178517528Y-65088890D01*
X178417185Y-65155012D01*
X178339235Y-65246471D01*
X178289852Y-65356025D01*
X178272944Y-65475000D01*
X177825000Y-65475000D01*
X177825000Y-60775000D01*
X178272944Y-60775000D01*
X178272944Y-62325000D01*
X178278341Y-62392680D01*
X178313890Y-62507472D01*
X178380012Y-62607815D01*
X178471471Y-62685765D01*
X178581025Y-62735148D01*
X178700000Y-62752056D01*
X179700000Y-62752056D01*
X179767680Y-62746659D01*
X179882472Y-62711110D01*
X179982815Y-62644988D01*
X179999930Y-62624907D01*
X180003341Y-62667680D01*
X180038890Y-62782472D01*
X180105012Y-62882815D01*
X180196471Y-62960765D01*
X180306025Y-63010148D01*
X180425000Y-63027056D01*
X181425000Y-63027056D01*
X181450783Y-63025000D01*
X189300000Y-63025000D01*
X189366600Y-63018470D01*
X189433365Y-63012628D01*
X189437028Y-63011564D01*
X189440820Y-63011192D01*
X189504923Y-62991838D01*
X189569242Y-62973152D01*
X189572626Y-62971398D01*
X189576276Y-62970296D01*
X189635432Y-62938842D01*
X189694863Y-62908036D01*
X189697841Y-62905659D01*
X189701209Y-62903868D01*
X189753157Y-62861500D01*
X189805444Y-62819760D01*
X189810744Y-62814534D01*
X189810860Y-62814439D01*
X189810949Y-62814331D01*
X189812652Y-62812652D01*
X190312653Y-62312652D01*
X190355167Y-62260894D01*
X190398207Y-62209601D01*
X190400043Y-62206261D01*
X190402464Y-62203314D01*
X190434130Y-62144258D01*
X190466373Y-62085608D01*
X190467525Y-62081977D01*
X190469328Y-62078614D01*
X190488920Y-62014532D01*
X190509157Y-61950736D01*
X190509582Y-61946949D01*
X190510697Y-61943301D01*
X190517470Y-61876624D01*
X190524929Y-61810123D01*
X190524981Y-61802676D01*
X190524996Y-61802531D01*
X190524983Y-61802396D01*
X190525000Y-61800000D01*
X190525000Y-53500000D01*
X190524158Y-53491414D01*
X190525031Y-53428910D01*
X190497415Y-53289438D01*
X190443234Y-53157986D01*
X190364553Y-53039562D01*
X190264368Y-52938675D01*
X190146496Y-52859169D01*
X190015426Y-52804072D01*
X189876150Y-52775483D01*
X189733973Y-52774490D01*
X189594312Y-52801132D01*
X189462485Y-52854394D01*
X189343514Y-52932246D01*
X189241930Y-53031724D01*
X189161604Y-53149039D01*
X189105593Y-53279721D01*
X189076032Y-53418794D01*
X189074047Y-53560960D01*
X189075000Y-53566153D01*
X189075000Y-61499695D01*
X188999696Y-61575000D01*
X181439467Y-61575000D01*
X181425000Y-61572944D01*
X180425000Y-61572944D01*
X180357320Y-61578341D01*
X180242528Y-61613890D01*
X180142185Y-61680012D01*
X180127056Y-61697763D01*
X180127056Y-60775000D01*
X180121659Y-60707320D01*
X180086110Y-60592528D01*
X180019988Y-60492185D01*
X179928529Y-60414235D01*
X179818975Y-60364852D01*
X179700000Y-60347944D01*
X178700000Y-60347944D01*
X178632320Y-60353341D01*
X178517528Y-60388890D01*
X178417185Y-60455012D01*
X178339235Y-60546471D01*
X178289852Y-60656025D01*
X178272944Y-60775000D01*
X177825000Y-60775000D01*
X177825000Y-56675000D01*
X178272944Y-56675000D01*
X178272944Y-58225000D01*
X178278341Y-58292680D01*
X178313890Y-58407472D01*
X178380012Y-58507815D01*
X178471471Y-58585765D01*
X178581025Y-58635148D01*
X178700000Y-58652056D01*
X179700000Y-58652056D01*
X179767680Y-58646659D01*
X179882472Y-58611110D01*
X179982815Y-58544988D01*
X180060765Y-58453529D01*
X180110148Y-58343975D01*
X180127056Y-58225000D01*
X180127056Y-56675000D01*
X180121659Y-56607320D01*
X180086110Y-56492528D01*
X180019988Y-56392185D01*
X179928529Y-56314235D01*
X179818975Y-56264852D01*
X179700000Y-56247944D01*
X178700000Y-56247944D01*
X178632320Y-56253341D01*
X178517528Y-56288890D01*
X178417185Y-56355012D01*
X178339235Y-56446471D01*
X178289852Y-56556025D01*
X178272944Y-56675000D01*
X177825000Y-56675000D01*
X177825000Y-51975000D01*
X178272944Y-51975000D01*
X178272944Y-53525000D01*
X178278341Y-53592680D01*
X178313890Y-53707472D01*
X178380012Y-53807815D01*
X178471471Y-53885765D01*
X178581025Y-53935148D01*
X178700000Y-53952056D01*
X179700000Y-53952056D01*
X179767680Y-53946659D01*
X179882472Y-53911110D01*
X179982815Y-53844988D01*
X179999930Y-53824907D01*
X180003341Y-53867680D01*
X180038890Y-53982472D01*
X180105012Y-54082815D01*
X180196471Y-54160765D01*
X180306025Y-54210148D01*
X180425000Y-54227056D01*
X181425000Y-54227056D01*
X181450783Y-54225000D01*
X187290926Y-54225000D01*
X187355890Y-54226361D01*
X187495910Y-54201672D01*
X187628468Y-54150256D01*
X187748514Y-54074072D01*
X187851477Y-53976022D01*
X187933434Y-53859841D01*
X187991264Y-53729953D01*
X188022763Y-53591306D01*
X188023812Y-53516193D01*
X188024982Y-53505061D01*
X188024102Y-53495396D01*
X188025031Y-53428910D01*
X187997415Y-53289438D01*
X187943234Y-53157986D01*
X187864553Y-53039562D01*
X187764368Y-52938675D01*
X187646496Y-52859169D01*
X187515426Y-52804072D01*
X187376150Y-52775483D01*
X187233973Y-52774490D01*
X187231300Y-52775000D01*
X181439467Y-52775000D01*
X181425000Y-52772944D01*
X180425000Y-52772944D01*
X180357320Y-52778341D01*
X180242528Y-52813890D01*
X180142185Y-52880012D01*
X180127056Y-52897763D01*
X180127056Y-51975000D01*
X180121659Y-51907320D01*
X180086110Y-51792528D01*
X180019988Y-51692185D01*
X179928529Y-51614235D01*
X179818975Y-51564852D01*
X179700000Y-51547944D01*
X178700000Y-51547944D01*
X178632320Y-51553341D01*
X178517528Y-51588890D01*
X178417185Y-51655012D01*
X178339235Y-51746471D01*
X178289852Y-51856025D01*
X178272944Y-51975000D01*
X177825000Y-51975000D01*
X177825000Y-51558884D01*
X177858883Y-51525000D01*
X179100000Y-51525000D01*
X179157468Y-51519365D01*
X179214970Y-51514334D01*
X179218123Y-51513418D01*
X179221396Y-51513097D01*
X179276650Y-51496415D01*
X179332105Y-51480304D01*
X179335026Y-51478790D01*
X179338169Y-51477841D01*
X179389144Y-51450737D01*
X179440399Y-51424169D01*
X179442965Y-51422121D01*
X179445870Y-51420576D01*
X179490642Y-51384060D01*
X179535728Y-51348069D01*
X179540304Y-51343557D01*
X179540396Y-51343482D01*
X179540466Y-51343397D01*
X179541942Y-51341942D01*
X179941941Y-50941942D01*
X179978576Y-50897342D01*
X180015696Y-50853104D01*
X180017279Y-50850224D01*
X180019365Y-50847685D01*
X180046631Y-50796834D01*
X180074460Y-50746214D01*
X180075455Y-50743078D01*
X180077006Y-50740185D01*
X180093886Y-50684976D01*
X180111342Y-50629945D01*
X180111708Y-50626683D01*
X180112670Y-50623536D01*
X180118508Y-50566063D01*
X180124939Y-50508726D01*
X180124984Y-50502301D01*
X180124996Y-50502182D01*
X180124986Y-50502071D01*
X180125000Y-50500000D01*
X180125000Y-49675062D01*
X180167680Y-49671659D01*
X180282472Y-49636110D01*
X180382815Y-49569988D01*
X180421158Y-49525000D01*
X190099696Y-49525000D01*
X191575000Y-51000305D01*
X191575000Y-53492706D01*
X191574047Y-53560960D01*
X191599713Y-53700804D01*
X191652053Y-53832999D01*
X191729073Y-53952511D01*
X191827839Y-54054787D01*
X191944590Y-54135931D01*
X192074879Y-54192852D01*
X192213742Y-54223383D01*
X192355890Y-54226361D01*
X192495910Y-54201672D01*
X192628468Y-54150256D01*
X192748514Y-54074072D01*
X192851477Y-53976022D01*
X192933434Y-53859841D01*
X192991264Y-53729953D01*
X193022763Y-53591306D01*
X193023750Y-53520634D01*
X193024929Y-53510123D01*
X193025000Y-53500000D01*
X193025000Y-53431130D01*
X193025031Y-53428910D01*
X193025000Y-53428753D01*
X193025000Y-50700000D01*
X193018469Y-50633396D01*
X193012628Y-50566636D01*
X193011564Y-50562974D01*
X193011192Y-50559180D01*
X192991831Y-50495051D01*
X192973152Y-50430759D01*
X192971399Y-50427377D01*
X192970296Y-50423724D01*
X192938833Y-50364550D01*
X192908036Y-50305137D01*
X192905659Y-50302159D01*
X192903868Y-50298791D01*
X192861500Y-50246843D01*
X192819760Y-50194556D01*
X192814530Y-50189252D01*
X192814439Y-50189140D01*
X192814335Y-50189054D01*
X192812653Y-50187348D01*
X190912652Y-48287348D01*
X190860951Y-48244880D01*
X190809601Y-48201793D01*
X190806258Y-48199955D01*
X190803314Y-48197537D01*
X190744332Y-48165911D01*
X190685608Y-48133627D01*
X190681972Y-48132474D01*
X190678614Y-48130673D01*
X190614566Y-48111091D01*
X190550736Y-48090843D01*
X190546950Y-48090418D01*
X190543302Y-48089303D01*
X190476619Y-48082530D01*
X190410123Y-48075071D01*
X190402676Y-48075019D01*
X190402531Y-48075004D01*
X190402396Y-48075017D01*
X190400000Y-48075000D01*
X180425138Y-48075000D01*
X180419988Y-48067185D01*
X180328529Y-47989235D01*
X180218975Y-47939852D01*
X180100000Y-47922944D01*
X178900000Y-47922944D01*
X178832320Y-47928341D01*
X178717528Y-47963890D01*
X178617185Y-48030012D01*
X178539235Y-48121471D01*
X178511974Y-48181949D01*
X178508674Y-48165361D01*
X178460957Y-48050162D01*
X178391683Y-47946486D01*
X178303514Y-47858317D01*
X178199838Y-47789043D01*
X178084639Y-47741326D01*
X177962345Y-47717000D01*
X177733250Y-47717000D01*
X177575000Y-47875250D01*
X177575000Y-48575000D01*
X177595000Y-48575000D01*
X177595000Y-49025000D01*
X177575000Y-49025000D01*
X177575000Y-49724750D01*
X177733250Y-49883000D01*
X177962345Y-49883000D01*
X178084639Y-49858674D01*
X178199838Y-49810957D01*
X178303514Y-49741683D01*
X178391683Y-49653514D01*
X178460957Y-49549838D01*
X178508674Y-49434639D01*
X178510976Y-49423064D01*
X178513890Y-49432472D01*
X178580012Y-49532815D01*
X178671471Y-49610765D01*
X178781025Y-49660148D01*
X178875000Y-49673503D01*
X178875000Y-50241117D01*
X178841116Y-50275000D01*
X177600000Y-50275000D01*
X177542487Y-50280639D01*
X177485030Y-50285666D01*
X177481877Y-50286582D01*
X177478604Y-50286903D01*
X177423350Y-50303585D01*
X177367895Y-50319696D01*
X177364974Y-50321210D01*
X177361831Y-50322159D01*
X177310856Y-50349263D01*
X177259601Y-50375831D01*
X177257035Y-50377879D01*
X177254130Y-50379424D01*
X177209382Y-50415920D01*
X177164271Y-50451931D01*
X177159699Y-50456441D01*
X177159604Y-50456518D01*
X177159531Y-50456606D01*
X177158058Y-50458059D01*
X176758058Y-50858058D01*
X176721399Y-50902688D01*
X176684304Y-50946896D01*
X176682721Y-50949775D01*
X176680635Y-50952315D01*
X176653379Y-51003147D01*
X176625540Y-51053786D01*
X176624544Y-51056924D01*
X176622994Y-51059816D01*
X176606119Y-51115010D01*
X176588658Y-51170055D01*
X176588292Y-51173317D01*
X176587330Y-51176464D01*
X176581492Y-51233937D01*
X176575061Y-51291274D01*
X176575016Y-51297699D01*
X176575004Y-51297818D01*
X176575014Y-51297929D01*
X176575000Y-51300000D01*
X174900000Y-51300000D01*
X174900000Y-49183250D01*
X176067000Y-49183250D01*
X176067000Y-49312345D01*
X176091326Y-49434639D01*
X176139043Y-49549838D01*
X176208317Y-49653514D01*
X176296486Y-49741683D01*
X176400162Y-49810957D01*
X176515361Y-49858674D01*
X176637655Y-49883000D01*
X176866750Y-49883000D01*
X177025000Y-49724750D01*
X177025000Y-49025000D01*
X176225250Y-49025000D01*
X176067000Y-49183250D01*
X174900000Y-49183250D01*
X174900000Y-48287655D01*
X176067000Y-48287655D01*
X176067000Y-48416750D01*
X176225250Y-48575000D01*
X177025000Y-48575000D01*
X177025000Y-47875250D01*
X176866750Y-47717000D01*
X176637655Y-47717000D01*
X176515361Y-47741326D01*
X176400162Y-47789043D01*
X176296486Y-47858317D01*
X176208317Y-47946486D01*
X176139043Y-48050162D01*
X176091326Y-48165361D01*
X176067000Y-48287655D01*
X174900000Y-48287655D01*
X174900000Y-47525000D01*
X223349695Y-47525000D01*
X211199696Y-59675000D01*
X211199696Y-59675000D01*
G37*
X211199696Y-59675000D02*
X195906986Y-59675000D01*
X195833965Y-59674490D01*
X195694304Y-59701132D01*
X195562477Y-59754394D01*
X195443506Y-59832246D01*
X195341922Y-59931724D01*
X195261596Y-60049039D01*
X195205585Y-60179721D01*
X195176024Y-60318794D01*
X195174039Y-60460960D01*
X195199705Y-60600804D01*
X195252045Y-60732999D01*
X195329065Y-60852511D01*
X195427831Y-60954787D01*
X195544582Y-61035931D01*
X195674871Y-61092852D01*
X195813734Y-61123383D01*
X195955882Y-61126361D01*
X195963601Y-61125000D01*
X211500000Y-61125000D01*
X211566600Y-61118470D01*
X211633365Y-61112628D01*
X211637028Y-61111564D01*
X211640820Y-61111192D01*
X211704923Y-61091838D01*
X211769242Y-61073152D01*
X211772626Y-61071398D01*
X211776276Y-61070296D01*
X211835432Y-61038842D01*
X211894863Y-61008036D01*
X211897841Y-61005659D01*
X211901209Y-61003868D01*
X211953157Y-60961500D01*
X212005444Y-60919760D01*
X212010744Y-60914534D01*
X212010860Y-60914439D01*
X212010949Y-60914331D01*
X212012652Y-60912652D01*
X225400305Y-47525000D01*
X268900000Y-47525000D01*
X268900000Y-90175000D01*
X261653489Y-90175000D01*
X261642475Y-90175486D01*
X261589815Y-90180144D01*
X261568131Y-90184011D01*
X261517106Y-90197840D01*
X261496433Y-90205454D01*
X261448628Y-90228026D01*
X261429618Y-90239148D01*
X261386517Y-90269760D01*
X261369750Y-90284048D01*
X261332692Y-90321751D01*
X261318697Y-90338759D01*
X261288832Y-90382381D01*
X261278038Y-90401583D01*
X261256294Y-90449770D01*
X261249038Y-90470568D01*
X261236090Y-90521824D01*
X261232598Y-90543575D01*
X261228849Y-90596308D01*
X261228553Y-90607327D01*
X261269662Y-92991466D01*
X261267088Y-93027665D01*
X261259556Y-93057484D01*
X261246908Y-93085512D01*
X261229537Y-93110885D01*
X261207972Y-93132825D01*
X261182906Y-93150628D01*
X261155095Y-93163759D01*
X261125420Y-93171802D01*
X261089263Y-93175000D01*
X254700000Y-93175000D01*
X254687749Y-93175602D01*
X254629222Y-93181366D01*
X254605187Y-93186147D01*
X254548909Y-93203219D01*
X254526270Y-93212596D01*
X254474404Y-93240319D01*
X254454030Y-93253933D01*
X254408569Y-93291242D01*
X254391242Y-93308569D01*
X254353933Y-93354030D01*
X254340319Y-93374404D01*
X254312596Y-93426270D01*
X254303219Y-93448909D01*
X254286147Y-93505187D01*
X254281366Y-93529222D01*
X254275602Y-93587749D01*
X254275000Y-93600000D01*
X254275000Y-99193862D01*
X254271045Y-99234024D01*
X254261121Y-99266736D01*
X254245003Y-99296890D01*
X254223316Y-99323316D01*
X254196890Y-99345003D01*
X254166736Y-99361121D01*
X254134024Y-99371045D01*
X254093862Y-99375000D01*
X191206138Y-99375000D01*
X191165976Y-99371045D01*
X191133264Y-99361121D01*
X191103110Y-99345003D01*
X191076684Y-99323316D01*
X191054997Y-99296890D01*
X191038879Y-99266736D01*
X191028955Y-99234024D01*
X191025000Y-99193862D01*
X191025000Y-97400000D01*
X191024398Y-97387749D01*
X191018634Y-97329222D01*
X191013853Y-97305187D01*
X190996781Y-97248909D01*
X190987404Y-97226270D01*
X190959681Y-97174404D01*
X190946067Y-97154030D01*
X190908758Y-97108569D01*
X190891431Y-97091242D01*
X190845970Y-97053933D01*
X190825596Y-97040319D01*
X190773730Y-97012596D01*
X190751091Y-97003219D01*
X190694813Y-96986147D01*
X190670778Y-96981366D01*
X190612251Y-96975602D01*
X190600000Y-96975000D01*
X174900000Y-96975000D01*
X174900000Y-94860960D01*
X188174057Y-94860960D01*
X188199723Y-95000804D01*
X188252063Y-95132999D01*
X188329083Y-95252511D01*
X188427849Y-95354787D01*
X188544600Y-95435931D01*
X188674889Y-95492852D01*
X188813752Y-95523383D01*
X188955900Y-95526361D01*
X189095920Y-95501672D01*
X189228478Y-95450256D01*
X189348524Y-95374072D01*
X189451487Y-95276022D01*
X189533444Y-95159841D01*
X189591274Y-95029953D01*
X189622773Y-94891306D01*
X189623760Y-94820634D01*
X189624939Y-94810123D01*
X189625010Y-94800000D01*
X189625010Y-94731130D01*
X189625041Y-94728910D01*
X189625010Y-94728753D01*
X189625010Y-90393542D01*
X197875023Y-90393542D01*
X197891384Y-90573328D01*
X197942355Y-90746511D01*
X198025993Y-90906496D01*
X198139113Y-91047189D01*
X198277406Y-91163230D01*
X198435604Y-91250200D01*
X198607682Y-91304787D01*
X198787085Y-91324910D01*
X198800000Y-91325000D01*
X200100000Y-91325000D01*
X200279667Y-91307384D01*
X200452490Y-91255205D01*
X200611887Y-91170452D01*
X200667617Y-91125000D01*
X243400000Y-91125000D01*
X243466600Y-91118470D01*
X243533365Y-91112628D01*
X243537028Y-91111564D01*
X243540820Y-91111192D01*
X243604923Y-91091838D01*
X243669242Y-91073152D01*
X243672626Y-91071398D01*
X243676276Y-91070296D01*
X243735432Y-91038842D01*
X243794863Y-91008036D01*
X243797841Y-91005659D01*
X243801209Y-91003868D01*
X243853157Y-90961500D01*
X243905444Y-90919760D01*
X243910744Y-90914534D01*
X243910860Y-90914439D01*
X243910949Y-90914331D01*
X243912652Y-90912652D01*
X244512652Y-90312653D01*
X244555140Y-90260926D01*
X244598207Y-90209601D01*
X244600045Y-90206258D01*
X244602463Y-90203314D01*
X244634089Y-90144332D01*
X244666373Y-90085608D01*
X244667526Y-90081972D01*
X244669327Y-90078614D01*
X244688909Y-90014566D01*
X244709157Y-89950736D01*
X244709582Y-89946950D01*
X244710697Y-89943302D01*
X244717470Y-89876619D01*
X244724929Y-89810123D01*
X244724981Y-89802676D01*
X244724996Y-89802531D01*
X244724983Y-89802396D01*
X244725000Y-89800000D01*
X244725000Y-86888069D01*
X263615863Y-86888069D01*
X263615863Y-88388069D01*
X263621260Y-88455749D01*
X263656809Y-88570541D01*
X263722931Y-88670884D01*
X263814390Y-88748834D01*
X263923944Y-88798217D01*
X264042919Y-88815125D01*
X266192919Y-88815125D01*
X266260599Y-88809728D01*
X266375391Y-88774179D01*
X266475734Y-88708057D01*
X266553684Y-88616598D01*
X266603067Y-88507044D01*
X266619975Y-88388069D01*
X266619975Y-86888069D01*
X266614578Y-86820389D01*
X266579029Y-86705597D01*
X266512907Y-86605254D01*
X266421448Y-86527304D01*
X266311894Y-86477921D01*
X266192919Y-86461013D01*
X264042919Y-86461013D01*
X263975239Y-86466410D01*
X263860447Y-86501959D01*
X263760104Y-86568081D01*
X263682154Y-86659540D01*
X263632771Y-86769094D01*
X263615863Y-86888069D01*
X244725000Y-86888069D01*
X244725000Y-81900304D01*
X245100305Y-81525000D01*
X255775000Y-81525000D01*
X255775000Y-82192706D01*
X255774047Y-82260960D01*
X255799713Y-82400804D01*
X255852053Y-82532999D01*
X255929073Y-82652511D01*
X256027839Y-82754787D01*
X256144590Y-82835931D01*
X256274879Y-82892852D01*
X256413742Y-82923383D01*
X256555890Y-82926361D01*
X256695910Y-82901672D01*
X256828468Y-82850256D01*
X256948514Y-82774072D01*
X257051477Y-82676022D01*
X257133434Y-82559841D01*
X257191264Y-82429953D01*
X257222763Y-82291306D01*
X257223750Y-82220634D01*
X257224929Y-82210123D01*
X257225000Y-82200000D01*
X257225000Y-82131130D01*
X257225031Y-82128910D01*
X257225000Y-82128753D01*
X257225000Y-80800000D01*
X257224158Y-80791414D01*
X257225031Y-80728910D01*
X257197415Y-80589438D01*
X257143234Y-80457986D01*
X257064553Y-80339562D01*
X256964368Y-80238675D01*
X256846496Y-80159169D01*
X256715426Y-80104072D01*
X256576150Y-80075483D01*
X256433973Y-80074490D01*
X256431300Y-80075000D01*
X244800000Y-80075000D01*
X244733396Y-80081531D01*
X244666636Y-80087372D01*
X244662974Y-80088436D01*
X244659180Y-80088808D01*
X244595051Y-80108169D01*
X244530759Y-80126848D01*
X244527377Y-80128601D01*
X244523724Y-80129704D01*
X244464550Y-80161167D01*
X244405137Y-80191964D01*
X244402159Y-80194341D01*
X244398791Y-80196132D01*
X244346843Y-80238500D01*
X244294556Y-80280240D01*
X244289252Y-80285470D01*
X244289140Y-80285561D01*
X244289054Y-80285665D01*
X244287348Y-80287347D01*
X243487348Y-81087348D01*
X243444880Y-81139049D01*
X243401793Y-81190399D01*
X243399955Y-81193742D01*
X243397537Y-81196686D01*
X243365911Y-81255668D01*
X243333627Y-81314392D01*
X243332474Y-81318028D01*
X243330673Y-81321386D01*
X243311091Y-81385434D01*
X243290843Y-81449264D01*
X243290418Y-81453050D01*
X243289303Y-81456698D01*
X243282530Y-81523381D01*
X243275071Y-81589877D01*
X243275019Y-81597324D01*
X243275004Y-81597469D01*
X243275017Y-81597604D01*
X243275000Y-81600000D01*
X243275000Y-89499695D01*
X243099696Y-89675000D01*
X200668155Y-89675000D01*
X200622594Y-89636770D01*
X200464396Y-89549800D01*
X200292318Y-89495213D01*
X200112915Y-89475090D01*
X200100000Y-89475000D01*
X198800000Y-89475000D01*
X198620333Y-89492616D01*
X198447510Y-89544795D01*
X198288113Y-89629548D01*
X198148213Y-89743647D01*
X198033140Y-89882747D01*
X197947277Y-90041548D01*
X197893893Y-90214003D01*
X197875023Y-90393542D01*
X189625010Y-90393542D01*
X189625010Y-89060960D01*
X192674047Y-89060960D01*
X192699713Y-89200804D01*
X192752053Y-89332999D01*
X192829073Y-89452511D01*
X192927839Y-89554787D01*
X193044590Y-89635931D01*
X193174879Y-89692852D01*
X193313742Y-89723383D01*
X193455890Y-89726361D01*
X193595910Y-89701672D01*
X193728468Y-89650256D01*
X193848514Y-89574072D01*
X193951477Y-89476022D01*
X194033434Y-89359841D01*
X194091264Y-89229953D01*
X194122763Y-89091306D01*
X194123750Y-89020634D01*
X194124929Y-89010123D01*
X194125000Y-89000000D01*
X194125000Y-88931130D01*
X194125031Y-88928910D01*
X194125000Y-88928753D01*
X194125000Y-86800304D01*
X194475000Y-86450304D01*
X194475000Y-88300000D01*
X194481530Y-88366600D01*
X194487372Y-88433365D01*
X194488436Y-88437028D01*
X194488808Y-88440820D01*
X194508162Y-88504923D01*
X194526848Y-88569242D01*
X194528602Y-88572626D01*
X194529704Y-88576276D01*
X194561158Y-88635432D01*
X194591964Y-88694863D01*
X194594341Y-88697841D01*
X194596132Y-88701209D01*
X194638500Y-88753157D01*
X194680240Y-88805444D01*
X194685466Y-88810744D01*
X194685561Y-88810860D01*
X194685669Y-88810949D01*
X194687348Y-88812652D01*
X195381607Y-89506912D01*
X195427839Y-89554787D01*
X195544590Y-89635931D01*
X195674879Y-89692852D01*
X195813742Y-89723383D01*
X195955890Y-89726361D01*
X196095910Y-89701672D01*
X196228468Y-89650256D01*
X196348514Y-89574072D01*
X196451477Y-89476022D01*
X196533434Y-89359841D01*
X196591264Y-89229953D01*
X196622763Y-89091306D01*
X196623781Y-89018449D01*
X196624960Y-89007592D01*
X196624074Y-88997461D01*
X196625031Y-88928910D01*
X196597415Y-88789438D01*
X196543234Y-88657986D01*
X196464553Y-88539562D01*
X196364368Y-88438675D01*
X196363176Y-88437871D01*
X195925000Y-87999696D01*
X195925000Y-86600304D01*
X196700305Y-85825000D01*
X225200000Y-85825000D01*
X225266600Y-85818470D01*
X225333365Y-85812628D01*
X225337028Y-85811564D01*
X225340820Y-85811192D01*
X225404923Y-85791838D01*
X225469242Y-85773152D01*
X225472626Y-85771398D01*
X225476276Y-85770296D01*
X225535432Y-85738842D01*
X225594863Y-85708036D01*
X225597841Y-85705659D01*
X225601209Y-85703868D01*
X225653157Y-85661500D01*
X225705444Y-85619760D01*
X225710744Y-85614534D01*
X225710860Y-85614439D01*
X225710949Y-85614331D01*
X225712652Y-85612652D01*
X233405510Y-77919794D01*
X261997640Y-77919794D01*
X262059725Y-78094166D01*
X262194669Y-78275942D01*
X262362483Y-78427899D01*
X262556718Y-78544198D01*
X262769909Y-78620369D01*
X262993864Y-78653484D01*
X263175000Y-78489814D01*
X263175000Y-77750000D01*
X263725000Y-77750000D01*
X263725000Y-78489814D01*
X263906136Y-78653484D01*
X264130091Y-78620369D01*
X264343282Y-78544198D01*
X264537517Y-78427899D01*
X264705331Y-78275942D01*
X264840275Y-78094166D01*
X264902360Y-77919794D01*
X265897640Y-77919794D01*
X265959725Y-78094166D01*
X266094669Y-78275942D01*
X266262483Y-78427899D01*
X266456718Y-78544198D01*
X266669909Y-78620369D01*
X266893864Y-78653484D01*
X267075000Y-78489814D01*
X267075000Y-77750000D01*
X267625000Y-77750000D01*
X267625000Y-78489814D01*
X267806136Y-78653484D01*
X268030091Y-78620369D01*
X268243282Y-78544198D01*
X268437517Y-78427899D01*
X268605331Y-78275942D01*
X268740275Y-78094166D01*
X268802360Y-77919794D01*
X268692145Y-77750000D01*
X267625000Y-77750000D01*
X267075000Y-77750000D01*
X266007855Y-77750000D01*
X265897640Y-77919794D01*
X264902360Y-77919794D01*
X264792145Y-77750000D01*
X263725000Y-77750000D01*
X263175000Y-77750000D01*
X262107855Y-77750000D01*
X261997640Y-77919794D01*
X233405510Y-77919794D01*
X234245098Y-77080206D01*
X261997640Y-77080206D01*
X262107855Y-77250000D01*
X263175000Y-77250000D01*
X263175000Y-76510186D01*
X263725000Y-76510186D01*
X263725000Y-77250000D01*
X264792145Y-77250000D01*
X264902360Y-77080206D01*
X265897640Y-77080206D01*
X266007855Y-77250000D01*
X267075000Y-77250000D01*
X267075000Y-76510186D01*
X267625000Y-76510186D01*
X267625000Y-77250000D01*
X268692145Y-77250000D01*
X268802360Y-77080206D01*
X268740275Y-76905834D01*
X268605331Y-76724058D01*
X268437517Y-76572101D01*
X268243282Y-76455802D01*
X268030091Y-76379631D01*
X267806136Y-76346516D01*
X267625000Y-76510186D01*
X267075000Y-76510186D01*
X266893864Y-76346516D01*
X266669909Y-76379631D01*
X266456718Y-76455802D01*
X266262483Y-76572101D01*
X266094669Y-76724058D01*
X265959725Y-76905834D01*
X265897640Y-77080206D01*
X264902360Y-77080206D01*
X264840275Y-76905834D01*
X264705331Y-76724058D01*
X264537517Y-76572101D01*
X264343282Y-76455802D01*
X264130091Y-76379631D01*
X263906136Y-76346516D01*
X263725000Y-76510186D01*
X263175000Y-76510186D01*
X262993864Y-76346516D01*
X262769909Y-76379631D01*
X262556718Y-76455802D01*
X262362483Y-76572101D01*
X262194669Y-76724058D01*
X262059725Y-76905834D01*
X261997640Y-77080206D01*
X234245098Y-77080206D01*
X236700304Y-74625000D01*
X257837579Y-74625000D01*
X258819058Y-75688269D01*
X258826361Y-75695554D01*
X258862796Y-75729012D01*
X258879074Y-75741653D01*
X258920511Y-75768669D01*
X258938646Y-75778464D01*
X258983960Y-75798304D01*
X259003457Y-75804985D01*
X259051414Y-75817109D01*
X259071746Y-75820497D01*
X259121044Y-75824575D01*
X259131349Y-75825000D01*
X259675736Y-75825000D01*
X259687987Y-75824398D01*
X259746514Y-75818634D01*
X259770549Y-75813853D01*
X259826827Y-75796781D01*
X259849466Y-75787404D01*
X259901332Y-75759681D01*
X259921706Y-75746067D01*
X259967167Y-75708758D01*
X259976256Y-75700520D01*
X261196177Y-74480599D01*
X261227374Y-74454997D01*
X261257528Y-74438879D01*
X261290240Y-74428955D01*
X261330402Y-74425000D01*
X263535533Y-74425000D01*
X263550000Y-74427056D01*
X264900000Y-74427056D01*
X264925783Y-74425000D01*
X265300000Y-74425000D01*
X265312251Y-74424398D01*
X265370778Y-74418634D01*
X265394813Y-74413853D01*
X265451091Y-74396781D01*
X265473730Y-74387404D01*
X265525596Y-74359681D01*
X265545970Y-74346067D01*
X265591431Y-74308758D01*
X265608758Y-74291431D01*
X265646067Y-74245970D01*
X265659681Y-74225596D01*
X265687404Y-74173730D01*
X265696781Y-74151091D01*
X265713853Y-74094813D01*
X265718634Y-74070778D01*
X265724398Y-74012251D01*
X265725000Y-74000000D01*
X265725000Y-71600000D01*
X265724398Y-71587749D01*
X265718634Y-71529222D01*
X265713853Y-71505187D01*
X265696781Y-71448909D01*
X265687404Y-71426270D01*
X265659681Y-71374404D01*
X265646067Y-71354030D01*
X265608758Y-71308569D01*
X265591431Y-71291242D01*
X265545970Y-71253933D01*
X265525596Y-71240319D01*
X265473730Y-71212596D01*
X265451091Y-71203219D01*
X265394813Y-71186147D01*
X265370778Y-71181366D01*
X265312251Y-71175602D01*
X265300000Y-71175000D01*
X264327043Y-71175000D01*
X264343282Y-71169198D01*
X264537517Y-71052899D01*
X264705331Y-70900942D01*
X264840275Y-70719166D01*
X264902360Y-70544794D01*
X264886133Y-70519794D01*
X265897640Y-70519794D01*
X265959725Y-70694166D01*
X266094669Y-70875942D01*
X266262483Y-71027899D01*
X266456718Y-71144198D01*
X266669909Y-71220369D01*
X266893864Y-71253484D01*
X267075000Y-71089814D01*
X267075000Y-70350000D01*
X267625000Y-70350000D01*
X267625000Y-71089814D01*
X267806136Y-71253484D01*
X268030091Y-71220369D01*
X268243282Y-71144198D01*
X268437517Y-71027899D01*
X268605331Y-70875942D01*
X268740275Y-70694166D01*
X268802360Y-70519794D01*
X268692145Y-70350000D01*
X267625000Y-70350000D01*
X267075000Y-70350000D01*
X266007855Y-70350000D01*
X265897640Y-70519794D01*
X264886133Y-70519794D01*
X264792145Y-70375000D01*
X263725000Y-70375000D01*
X263725000Y-70420000D01*
X263175000Y-70420000D01*
X263175000Y-70375000D01*
X262107855Y-70375000D01*
X261997640Y-70544794D01*
X262039700Y-70662924D01*
X261081982Y-69705206D01*
X261997640Y-69705206D01*
X262107855Y-69875000D01*
X263175000Y-69875000D01*
X263175000Y-69135186D01*
X263725000Y-69135186D01*
X263725000Y-69875000D01*
X264792145Y-69875000D01*
X264902360Y-69705206D01*
X264893459Y-69680206D01*
X265897640Y-69680206D01*
X266007855Y-69850000D01*
X267075000Y-69850000D01*
X267075000Y-69110186D01*
X267625000Y-69110186D01*
X267625000Y-69850000D01*
X268692145Y-69850000D01*
X268802360Y-69680206D01*
X268740275Y-69505834D01*
X268605331Y-69324058D01*
X268437517Y-69172101D01*
X268243282Y-69055802D01*
X268030091Y-68979631D01*
X267806136Y-68946516D01*
X267625000Y-69110186D01*
X267075000Y-69110186D01*
X266893864Y-68946516D01*
X266669909Y-68979631D01*
X266456718Y-69055802D01*
X266262483Y-69172101D01*
X266094669Y-69324058D01*
X265959725Y-69505834D01*
X265897640Y-69680206D01*
X264893459Y-69680206D01*
X264840275Y-69530834D01*
X264705331Y-69349058D01*
X264537517Y-69197101D01*
X264343282Y-69080802D01*
X264130091Y-69004631D01*
X263906136Y-68971516D01*
X263725000Y-69135186D01*
X263175000Y-69135186D01*
X262993864Y-68971516D01*
X262769909Y-69004631D01*
X262556718Y-69080802D01*
X262362483Y-69197101D01*
X262194669Y-69349058D01*
X262059725Y-69530834D01*
X261997640Y-69705206D01*
X261081982Y-69705206D01*
X261080599Y-69703823D01*
X261054997Y-69672626D01*
X261038879Y-69642472D01*
X261028955Y-69609760D01*
X261025000Y-69569598D01*
X261025000Y-68400000D01*
X261024398Y-68387749D01*
X261018634Y-68329222D01*
X261013853Y-68305187D01*
X260996781Y-68248909D01*
X260987404Y-68226270D01*
X260959681Y-68174404D01*
X260946067Y-68154030D01*
X260908758Y-68108569D01*
X260891431Y-68091242D01*
X260845970Y-68053933D01*
X260825596Y-68040319D01*
X260773730Y-68012596D01*
X260751091Y-68003219D01*
X260694813Y-67986147D01*
X260670778Y-67981366D01*
X260612251Y-67975602D01*
X260600000Y-67975000D01*
X255300000Y-67975000D01*
X255287749Y-67975602D01*
X255229222Y-67981366D01*
X255205187Y-67986147D01*
X255148909Y-68003219D01*
X255126270Y-68012596D01*
X255074404Y-68040319D01*
X255054030Y-68053933D01*
X255008569Y-68091242D01*
X254991242Y-68108569D01*
X254953933Y-68154030D01*
X254940319Y-68174404D01*
X254912596Y-68226270D01*
X254903219Y-68248909D01*
X254886147Y-68305187D01*
X254881366Y-68329222D01*
X254875602Y-68387749D01*
X254875000Y-68400000D01*
X254875000Y-71975000D01*
X236100000Y-71975000D01*
X236033355Y-71981535D01*
X235966635Y-71987372D01*
X235962972Y-71988436D01*
X235959180Y-71988808D01*
X235895077Y-72008162D01*
X235830758Y-72026848D01*
X235827374Y-72028602D01*
X235823724Y-72029704D01*
X235764568Y-72061158D01*
X235705137Y-72091964D01*
X235702159Y-72094341D01*
X235698791Y-72096132D01*
X235646843Y-72138500D01*
X235594556Y-72180240D01*
X235589252Y-72185469D01*
X235589140Y-72185561D01*
X235589054Y-72185665D01*
X235587347Y-72187348D01*
X224499696Y-83275000D01*
X195900000Y-83275000D01*
X195833400Y-83281530D01*
X195766635Y-83287372D01*
X195762972Y-83288436D01*
X195759180Y-83288808D01*
X195695063Y-83308166D01*
X195630759Y-83326848D01*
X195627377Y-83328601D01*
X195623724Y-83329704D01*
X195564550Y-83361167D01*
X195505137Y-83391964D01*
X195502159Y-83394341D01*
X195498791Y-83396132D01*
X195446843Y-83438500D01*
X195394556Y-83480240D01*
X195389256Y-83485466D01*
X195389140Y-83485561D01*
X195389051Y-83485669D01*
X195387348Y-83487348D01*
X192887348Y-85987348D01*
X192844880Y-86039049D01*
X192801793Y-86090399D01*
X192799955Y-86093742D01*
X192797537Y-86096686D01*
X192765911Y-86155668D01*
X192733627Y-86214392D01*
X192732474Y-86218028D01*
X192730673Y-86221386D01*
X192711091Y-86285434D01*
X192690843Y-86349264D01*
X192690418Y-86353050D01*
X192689303Y-86356698D01*
X192682530Y-86423381D01*
X192675071Y-86489877D01*
X192675019Y-86497324D01*
X192675004Y-86497469D01*
X192675017Y-86497604D01*
X192675000Y-86500000D01*
X192675000Y-88992706D01*
X192674047Y-89060960D01*
X189625010Y-89060960D01*
X189625010Y-88100294D01*
X195300305Y-82425000D01*
X210590926Y-82425000D01*
X210655890Y-82426361D01*
X210795910Y-82401672D01*
X210928468Y-82350256D01*
X211048514Y-82274072D01*
X211151477Y-82176022D01*
X211233434Y-82059841D01*
X211291264Y-81929953D01*
X211322763Y-81791306D01*
X211323812Y-81716193D01*
X211324982Y-81705061D01*
X211324102Y-81695396D01*
X211325031Y-81628910D01*
X211297415Y-81489438D01*
X211243234Y-81357986D01*
X211164553Y-81239562D01*
X211064368Y-81138675D01*
X210946496Y-81059169D01*
X210815426Y-81004072D01*
X210676150Y-80975483D01*
X210533973Y-80974490D01*
X210531300Y-80975000D01*
X195000000Y-80975000D01*
X194933396Y-80981531D01*
X194866636Y-80987372D01*
X194862973Y-80988436D01*
X194859180Y-80988808D01*
X194795098Y-81008155D01*
X194730759Y-81026847D01*
X194727372Y-81028603D01*
X194723724Y-81029704D01*
X194664585Y-81061149D01*
X194605137Y-81091964D01*
X194602159Y-81094341D01*
X194598791Y-81096132D01*
X194546874Y-81138475D01*
X194494556Y-81180239D01*
X194489251Y-81185471D01*
X194489140Y-81185561D01*
X194489055Y-81185663D01*
X194487348Y-81187347D01*
X188387358Y-87287338D01*
X188344890Y-87339039D01*
X188301803Y-87390389D01*
X188299965Y-87393732D01*
X188297547Y-87396676D01*
X188265921Y-87455658D01*
X188233637Y-87514382D01*
X188232484Y-87518018D01*
X188230683Y-87521376D01*
X188211101Y-87585424D01*
X188190853Y-87649254D01*
X188190428Y-87653040D01*
X188189313Y-87656688D01*
X188182540Y-87723371D01*
X188175081Y-87789867D01*
X188175029Y-87797314D01*
X188175014Y-87797459D01*
X188175027Y-87797594D01*
X188175010Y-87799990D01*
X188175010Y-94792706D01*
X188174057Y-94860960D01*
X174900000Y-94860960D01*
X174900000Y-89275000D01*
X178272944Y-89275000D01*
X178272944Y-90825000D01*
X178278341Y-90892680D01*
X178313890Y-91007472D01*
X178380012Y-91107815D01*
X178471471Y-91185765D01*
X178581025Y-91235148D01*
X178700000Y-91252056D01*
X179700000Y-91252056D01*
X179767680Y-91246659D01*
X179882472Y-91211110D01*
X179982815Y-91144988D01*
X180060765Y-91053529D01*
X180110148Y-90943975D01*
X180127056Y-90825000D01*
X180127056Y-89275000D01*
X180121659Y-89207320D01*
X180086110Y-89092528D01*
X180019988Y-88992185D01*
X179928529Y-88914235D01*
X179818975Y-88864852D01*
X179700000Y-88847944D01*
X178700000Y-88847944D01*
X178632320Y-88853341D01*
X178517528Y-88888890D01*
X178417185Y-88955012D01*
X178339235Y-89046471D01*
X178289852Y-89156025D01*
X178272944Y-89275000D01*
X174900000Y-89275000D01*
X174900000Y-84575000D01*
X178272944Y-84575000D01*
X178272944Y-86125000D01*
X178278341Y-86192680D01*
X178313890Y-86307472D01*
X178380012Y-86407815D01*
X178471471Y-86485765D01*
X178581025Y-86535148D01*
X178700000Y-86552056D01*
X179700000Y-86552056D01*
X179767680Y-86546659D01*
X179882472Y-86511110D01*
X179982815Y-86444988D01*
X179999930Y-86424907D01*
X180003341Y-86467680D01*
X180038890Y-86582472D01*
X180105012Y-86682815D01*
X180196471Y-86760765D01*
X180306025Y-86810148D01*
X180425000Y-86827056D01*
X181425000Y-86827056D01*
X181450783Y-86825000D01*
X186900000Y-86825000D01*
X186966600Y-86818470D01*
X187033365Y-86812628D01*
X187037028Y-86811564D01*
X187040820Y-86811192D01*
X187104923Y-86791838D01*
X187169242Y-86773152D01*
X187172626Y-86771398D01*
X187176276Y-86770296D01*
X187235432Y-86738842D01*
X187294863Y-86708036D01*
X187297841Y-86705659D01*
X187301209Y-86703868D01*
X187353157Y-86661500D01*
X187405444Y-86619760D01*
X187410744Y-86614534D01*
X187410860Y-86614439D01*
X187410949Y-86614331D01*
X187412652Y-86612652D01*
X188112652Y-85912653D01*
X188155140Y-85860926D01*
X188198207Y-85809601D01*
X188200045Y-85806258D01*
X188202463Y-85803314D01*
X188234099Y-85744313D01*
X188266373Y-85685608D01*
X188267526Y-85681975D01*
X188269327Y-85678615D01*
X188288900Y-85614593D01*
X188309157Y-85550736D01*
X188309582Y-85546945D01*
X188310696Y-85543302D01*
X188317465Y-85476668D01*
X188324929Y-85410123D01*
X188324981Y-85402676D01*
X188324996Y-85402531D01*
X188324983Y-85402396D01*
X188325000Y-85400000D01*
X188325000Y-83100000D01*
X188324158Y-83091414D01*
X188325031Y-83028910D01*
X188297415Y-82889438D01*
X188243234Y-82757986D01*
X188164553Y-82639562D01*
X188064368Y-82538675D01*
X187946496Y-82459169D01*
X187815426Y-82404072D01*
X187676150Y-82375483D01*
X187533973Y-82374490D01*
X187394312Y-82401132D01*
X187262485Y-82454394D01*
X187143514Y-82532246D01*
X187041930Y-82631724D01*
X186961604Y-82749039D01*
X186905593Y-82879721D01*
X186876032Y-83018794D01*
X186874047Y-83160960D01*
X186875000Y-83166153D01*
X186875000Y-85099695D01*
X186599696Y-85375000D01*
X181439467Y-85375000D01*
X181425000Y-85372944D01*
X180425000Y-85372944D01*
X180357320Y-85378341D01*
X180242528Y-85413890D01*
X180142185Y-85480012D01*
X180127056Y-85497763D01*
X180127056Y-84575000D01*
X180121659Y-84507320D01*
X180086110Y-84392528D01*
X180019988Y-84292185D01*
X179928529Y-84214235D01*
X179818975Y-84164852D01*
X179700000Y-84147944D01*
X178700000Y-84147944D01*
X178632320Y-84153341D01*
X178517528Y-84188890D01*
X178417185Y-84255012D01*
X178339235Y-84346471D01*
X178289852Y-84456025D01*
X178272944Y-84575000D01*
X174900000Y-84575000D01*
X174900000Y-76413133D01*
X177097983Y-76423568D01*
X177108912Y-76423141D01*
X177161183Y-76418804D01*
X177182722Y-76415100D01*
X177233439Y-76401725D01*
X177254003Y-76394326D01*
X177301616Y-76372322D01*
X177320577Y-76361454D01*
X177363629Y-76331494D01*
X177380406Y-76317492D01*
X177417583Y-76280492D01*
X177431668Y-76263779D01*
X177461832Y-76220869D01*
X177472789Y-76201959D01*
X177495018Y-76154452D01*
X177502514Y-76133925D01*
X177516130Y-76083272D01*
X177519937Y-76061750D01*
X177524522Y-76009499D01*
X177525000Y-75998572D01*
X177525000Y-71600000D01*
X177524398Y-71587749D01*
X177518634Y-71529222D01*
X177513853Y-71505187D01*
X177496781Y-71448909D01*
X177487404Y-71426270D01*
X177459681Y-71374404D01*
X177446067Y-71354030D01*
X177408758Y-71308569D01*
X177391431Y-71291242D01*
X177345970Y-71253933D01*
X177325596Y-71240319D01*
X177273730Y-71212596D01*
X177251091Y-71203219D01*
X177194813Y-71186147D01*
X177170778Y-71181366D01*
X177112251Y-71175602D01*
X177100000Y-71175000D01*
X174900000Y-71175000D01*
X174900000Y-71060960D01*
X181074047Y-71060960D01*
X181075000Y-71066153D01*
X181075000Y-82200000D01*
X181081530Y-82266600D01*
X181087372Y-82333365D01*
X181088436Y-82337028D01*
X181088808Y-82340820D01*
X181108162Y-82404923D01*
X181126848Y-82469242D01*
X181128602Y-82472626D01*
X181129704Y-82476276D01*
X181161158Y-82535432D01*
X181191964Y-82594863D01*
X181194341Y-82597841D01*
X181196132Y-82601209D01*
X181238500Y-82653157D01*
X181280240Y-82705444D01*
X181285466Y-82710744D01*
X181285561Y-82710860D01*
X181285669Y-82710949D01*
X181287348Y-82712652D01*
X182087348Y-83512653D01*
X182139106Y-83555167D01*
X182190399Y-83598207D01*
X182193739Y-83600043D01*
X182196686Y-83602464D01*
X182255742Y-83634130D01*
X182314392Y-83666373D01*
X182318023Y-83667525D01*
X182321386Y-83669328D01*
X182385468Y-83688920D01*
X182449264Y-83709157D01*
X182453051Y-83709582D01*
X182456699Y-83710697D01*
X182523376Y-83717470D01*
X182589877Y-83724929D01*
X182597324Y-83724981D01*
X182597469Y-83724996D01*
X182597604Y-83724983D01*
X182600000Y-83725000D01*
X183374980Y-83725000D01*
X183374980Y-83894138D01*
X183374047Y-83960960D01*
X183399713Y-84100804D01*
X183452053Y-84232999D01*
X183529073Y-84352511D01*
X183627839Y-84454787D01*
X183744590Y-84535931D01*
X183874879Y-84592852D01*
X184013742Y-84623383D01*
X184155890Y-84626361D01*
X184295910Y-84601672D01*
X184428468Y-84550256D01*
X184548514Y-84474072D01*
X184651477Y-84376022D01*
X184733434Y-84259841D01*
X184791264Y-84129953D01*
X184822763Y-83991306D01*
X184823753Y-83920408D01*
X184824909Y-83910103D01*
X184824924Y-83907921D01*
X184824960Y-83907592D01*
X184824929Y-83907239D01*
X184824980Y-83899980D01*
X184824980Y-83832562D01*
X184825031Y-83828910D01*
X184824980Y-83828652D01*
X184824980Y-83002669D01*
X184824996Y-83002511D01*
X184824980Y-83002342D01*
X184824980Y-83000000D01*
X184824138Y-82991414D01*
X184825011Y-82928910D01*
X184797395Y-82789438D01*
X184743214Y-82657986D01*
X184664533Y-82539562D01*
X184564348Y-82438675D01*
X184446476Y-82359169D01*
X184315406Y-82304072D01*
X184176130Y-82275483D01*
X184033953Y-82274490D01*
X184031280Y-82275000D01*
X182900305Y-82275000D01*
X182525000Y-81899696D01*
X182525000Y-71725000D01*
X188190926Y-71725000D01*
X188255890Y-71726361D01*
X188395910Y-71701672D01*
X188528468Y-71650256D01*
X188648514Y-71574072D01*
X188751477Y-71476022D01*
X188833434Y-71359841D01*
X188891264Y-71229953D01*
X188922763Y-71091306D01*
X188923812Y-71016193D01*
X188924982Y-71005061D01*
X188924102Y-70995396D01*
X188925031Y-70928910D01*
X188897415Y-70789438D01*
X188843234Y-70657986D01*
X188764553Y-70539562D01*
X188664368Y-70438675D01*
X188546496Y-70359169D01*
X188415426Y-70304072D01*
X188276150Y-70275483D01*
X188133973Y-70274490D01*
X188131300Y-70275000D01*
X181806994Y-70275000D01*
X181733973Y-70274490D01*
X181594312Y-70301132D01*
X181462485Y-70354394D01*
X181343514Y-70432246D01*
X181241930Y-70531724D01*
X181161604Y-70649039D01*
X181105593Y-70779721D01*
X181076032Y-70918794D01*
X181074047Y-71060960D01*
X174900000Y-71060960D01*
X174900000Y-70183250D01*
X176067000Y-70183250D01*
X176067000Y-70312345D01*
X176091326Y-70434639D01*
X176139043Y-70549838D01*
X176208317Y-70653514D01*
X176296486Y-70741683D01*
X176400162Y-70810957D01*
X176515361Y-70858674D01*
X176637655Y-70883000D01*
X176866750Y-70883000D01*
X177025000Y-70724750D01*
X177025000Y-70025000D01*
X176225250Y-70025000D01*
X176067000Y-70183250D01*
X174900000Y-70183250D01*
X174900000Y-69287655D01*
X176067000Y-69287655D01*
X176067000Y-69416750D01*
X176225250Y-69575000D01*
X177025000Y-69575000D01*
X177025000Y-68875250D01*
X176866750Y-68717000D01*
X176637655Y-68717000D01*
X176515361Y-68741326D01*
X176400162Y-68789043D01*
X176296486Y-68858317D01*
X176208317Y-68946486D01*
X176139043Y-69050162D01*
X176091326Y-69165361D01*
X176067000Y-69287655D01*
X174900000Y-69287655D01*
X174900000Y-51300000D01*
X176575000Y-51300000D01*
X176575000Y-67900000D01*
X176580635Y-67957468D01*
X176585666Y-68014970D01*
X176586582Y-68018123D01*
X176586903Y-68021396D01*
X176603585Y-68076650D01*
X176619696Y-68132105D01*
X176621210Y-68135026D01*
X176622159Y-68138169D01*
X176649263Y-68189144D01*
X176675831Y-68240399D01*
X176677879Y-68242965D01*
X176679424Y-68245870D01*
X176715940Y-68290642D01*
X176751931Y-68335728D01*
X176756443Y-68340304D01*
X176756518Y-68340396D01*
X176756603Y-68340466D01*
X176758058Y-68341942D01*
X176958058Y-68541942D01*
X177002688Y-68578601D01*
X177046896Y-68615696D01*
X177049775Y-68617279D01*
X177052315Y-68619365D01*
X177103147Y-68646621D01*
X177153786Y-68674460D01*
X177156924Y-68675456D01*
X177159816Y-68677006D01*
X177215010Y-68693881D01*
X177270055Y-68711342D01*
X177273317Y-68711708D01*
X177276464Y-68712670D01*
X177333937Y-68718508D01*
X177391274Y-68724939D01*
X177397699Y-68724984D01*
X177397818Y-68724996D01*
X177397929Y-68724986D01*
X177400000Y-68725000D01*
X177725250Y-68725000D01*
X177575000Y-68875250D01*
X177575000Y-69575000D01*
X177595000Y-69575000D01*
X177595000Y-70025000D01*
X177575000Y-70025000D01*
X177575000Y-70724750D01*
X177733250Y-70883000D01*
X177962345Y-70883000D01*
X178084639Y-70858674D01*
X178199838Y-70810957D01*
X178303514Y-70741683D01*
X178391683Y-70653514D01*
X178460957Y-70549838D01*
X178508674Y-70434639D01*
X178510976Y-70423064D01*
X178513890Y-70432472D01*
X178580012Y-70532815D01*
X178671471Y-70610765D01*
X178781025Y-70660148D01*
X178900000Y-70677056D01*
X180100000Y-70677056D01*
X180167680Y-70671659D01*
X180282472Y-70636110D01*
X180382815Y-70569988D01*
X180460765Y-70478529D01*
X180510148Y-70368975D01*
X180527056Y-70250000D01*
X180527056Y-69350000D01*
X180521659Y-69282320D01*
X180486110Y-69167528D01*
X180419988Y-69067185D01*
X180328529Y-68989235D01*
X180218975Y-68939852D01*
X180125000Y-68926497D01*
X180125000Y-68700000D01*
X180119365Y-68642532D01*
X180114334Y-68585030D01*
X180113418Y-68581877D01*
X180113097Y-68578604D01*
X180096415Y-68523350D01*
X180080304Y-68467895D01*
X180078790Y-68464974D01*
X180077841Y-68461831D01*
X180050737Y-68410856D01*
X180024169Y-68359601D01*
X180022121Y-68357035D01*
X180020576Y-68354130D01*
X179984060Y-68309358D01*
X179948069Y-68264272D01*
X179943557Y-68259696D01*
X179943482Y-68259604D01*
X179943397Y-68259534D01*
X179941942Y-68258058D01*
X179341942Y-67658058D01*
X179297312Y-67621399D01*
X179253104Y-67584304D01*
X179250225Y-67582721D01*
X179247685Y-67580635D01*
X179196853Y-67553379D01*
X179146214Y-67525540D01*
X179143076Y-67524544D01*
X179140184Y-67522994D01*
X179084990Y-67506119D01*
X179029945Y-67488658D01*
X179026683Y-67488292D01*
X179023536Y-67487330D01*
X178966063Y-67481492D01*
X178908726Y-67475061D01*
X178902301Y-67475016D01*
X178902182Y-67475004D01*
X178902071Y-67475014D01*
X178900000Y-67475000D01*
X177825000Y-67475000D01*
X177825000Y-65475000D01*
X178272944Y-65475000D01*
X178272944Y-67025000D01*
X178278341Y-67092680D01*
X178313890Y-67207472D01*
X178380012Y-67307815D01*
X178471471Y-67385765D01*
X178581025Y-67435148D01*
X178700000Y-67452056D01*
X179700000Y-67452056D01*
X179767680Y-67446659D01*
X179882472Y-67411110D01*
X179982815Y-67344988D01*
X180060765Y-67253529D01*
X180110148Y-67143975D01*
X180127056Y-67025000D01*
X180127056Y-66160960D01*
X201374047Y-66160960D01*
X201375000Y-66166153D01*
X201375000Y-77200000D01*
X201381530Y-77266600D01*
X201387372Y-77333365D01*
X201388436Y-77337028D01*
X201388808Y-77340820D01*
X201408162Y-77404923D01*
X201426848Y-77469242D01*
X201428602Y-77472626D01*
X201429704Y-77476276D01*
X201461158Y-77535432D01*
X201491964Y-77594863D01*
X201494341Y-77597841D01*
X201496132Y-77601209D01*
X201538500Y-77653157D01*
X201580240Y-77705444D01*
X201585466Y-77710744D01*
X201585561Y-77710860D01*
X201585669Y-77710949D01*
X201587348Y-77712652D01*
X203687347Y-79812652D01*
X203739074Y-79855140D01*
X203790399Y-79898207D01*
X203793742Y-79900045D01*
X203796686Y-79902463D01*
X203855687Y-79934099D01*
X203914392Y-79966373D01*
X203918025Y-79967526D01*
X203921385Y-79969327D01*
X203985407Y-79988900D01*
X204049264Y-80009157D01*
X204053055Y-80009582D01*
X204056698Y-80010696D01*
X204123332Y-80017465D01*
X204189877Y-80024929D01*
X204197324Y-80024981D01*
X204197469Y-80024996D01*
X204197604Y-80024983D01*
X204200000Y-80025000D01*
X211685802Y-80025000D01*
X211699713Y-80100796D01*
X211752053Y-80232991D01*
X211829073Y-80352503D01*
X211927839Y-80454779D01*
X212044590Y-80535923D01*
X212174879Y-80592844D01*
X212313742Y-80623375D01*
X212455890Y-80626353D01*
X212595910Y-80601664D01*
X212728468Y-80550248D01*
X212848514Y-80474064D01*
X212951477Y-80376014D01*
X213033434Y-80259833D01*
X213091264Y-80129945D01*
X213122763Y-79991298D01*
X213123750Y-79920626D01*
X213124929Y-79910115D01*
X213125000Y-79899992D01*
X213125000Y-79831122D01*
X213125031Y-79828902D01*
X213125000Y-79828745D01*
X213125000Y-78700012D01*
X213124158Y-78691426D01*
X213125031Y-78628922D01*
X213097415Y-78489450D01*
X213043234Y-78357998D01*
X212964553Y-78239574D01*
X212864368Y-78138687D01*
X212746496Y-78059181D01*
X212615426Y-78004084D01*
X212476150Y-77975495D01*
X212333973Y-77974502D01*
X212194312Y-78001144D01*
X212062485Y-78054406D01*
X211943514Y-78132258D01*
X211841930Y-78231736D01*
X211761604Y-78349051D01*
X211705593Y-78479733D01*
X211685343Y-78575000D01*
X204500305Y-78575000D01*
X202825000Y-76899696D01*
X202825000Y-71360960D01*
X203174047Y-71360960D01*
X203175000Y-71366153D01*
X203175000Y-74100000D01*
X203181530Y-74166600D01*
X203187372Y-74233365D01*
X203188436Y-74237028D01*
X203188808Y-74240820D01*
X203208162Y-74304923D01*
X203226848Y-74369242D01*
X203228602Y-74372626D01*
X203229704Y-74376276D01*
X203261158Y-74435432D01*
X203291964Y-74494863D01*
X203294341Y-74497841D01*
X203296132Y-74501209D01*
X203338500Y-74553157D01*
X203380240Y-74605444D01*
X203385466Y-74610744D01*
X203385561Y-74610860D01*
X203385669Y-74610949D01*
X203387348Y-74612652D01*
X204287347Y-75512652D01*
X204339074Y-75555140D01*
X204390399Y-75598207D01*
X204393742Y-75600045D01*
X204396686Y-75602463D01*
X204455668Y-75634089D01*
X204514392Y-75666373D01*
X204518028Y-75667526D01*
X204521386Y-75669327D01*
X204585434Y-75688909D01*
X204649264Y-75709157D01*
X204653050Y-75709582D01*
X204656698Y-75710697D01*
X204723381Y-75717470D01*
X204789877Y-75724929D01*
X204797324Y-75724981D01*
X204797469Y-75724996D01*
X204797604Y-75724983D01*
X204800000Y-75725000D01*
X217990926Y-75725000D01*
X218055890Y-75726361D01*
X218195910Y-75701672D01*
X218328468Y-75650256D01*
X218448514Y-75574072D01*
X218551477Y-75476022D01*
X218633434Y-75359841D01*
X218691264Y-75229953D01*
X218722763Y-75091306D01*
X218723812Y-75016193D01*
X218724982Y-75005061D01*
X218724102Y-74995396D01*
X218725031Y-74928910D01*
X218697415Y-74789438D01*
X218643234Y-74657986D01*
X218564553Y-74539562D01*
X218464368Y-74438675D01*
X218346496Y-74359169D01*
X218215426Y-74304072D01*
X218076150Y-74275483D01*
X217933973Y-74274490D01*
X217931300Y-74275000D01*
X205100305Y-74275000D01*
X204625000Y-73799696D01*
X204625000Y-72471061D01*
X204674879Y-72492852D01*
X204813742Y-72523383D01*
X204955890Y-72526361D01*
X205095910Y-72501672D01*
X205175002Y-72470994D01*
X205175002Y-73292706D01*
X205174049Y-73360960D01*
X205199715Y-73500804D01*
X205252055Y-73632999D01*
X205329075Y-73752511D01*
X205427841Y-73854787D01*
X205544592Y-73935931D01*
X205674881Y-73992852D01*
X205813744Y-74023383D01*
X205955892Y-74026361D01*
X206095912Y-74001672D01*
X206228470Y-73950256D01*
X206348516Y-73874072D01*
X206451479Y-73776022D01*
X206533436Y-73659841D01*
X206591266Y-73529953D01*
X206622765Y-73391306D01*
X206623752Y-73320634D01*
X206624931Y-73310123D01*
X206625002Y-73300000D01*
X206625002Y-73231130D01*
X206625033Y-73228910D01*
X206625002Y-73228753D01*
X206625002Y-66310960D01*
X220474047Y-66310960D01*
X220499713Y-66450804D01*
X220552053Y-66582999D01*
X220629073Y-66702511D01*
X220727839Y-66804787D01*
X220844590Y-66885931D01*
X220974879Y-66942852D01*
X221113742Y-66973383D01*
X221255890Y-66976361D01*
X221263609Y-66975000D01*
X226149696Y-66975000D01*
X226575000Y-67400305D01*
X226575000Y-71992706D01*
X226574047Y-72060960D01*
X226599713Y-72200804D01*
X226652053Y-72332999D01*
X226729073Y-72452511D01*
X226827839Y-72554787D01*
X226944590Y-72635931D01*
X227074879Y-72692852D01*
X227213742Y-72723383D01*
X227355890Y-72726361D01*
X227495910Y-72701672D01*
X227628468Y-72650256D01*
X227748514Y-72574072D01*
X227851477Y-72476022D01*
X227933434Y-72359841D01*
X227991264Y-72229953D01*
X228022763Y-72091306D01*
X228023750Y-72020634D01*
X228024929Y-72010123D01*
X228025000Y-72000000D01*
X228025000Y-71931130D01*
X228025031Y-71928910D01*
X228025000Y-71928753D01*
X228025000Y-67100000D01*
X228018469Y-67033392D01*
X228012628Y-66966636D01*
X228011564Y-66962973D01*
X228011192Y-66959180D01*
X227991845Y-66895098D01*
X227973153Y-66830759D01*
X227971397Y-66827372D01*
X227970296Y-66823724D01*
X227938872Y-66764625D01*
X227908037Y-66705137D01*
X227905657Y-66702156D01*
X227903868Y-66698791D01*
X227861548Y-66646901D01*
X227819761Y-66594556D01*
X227814529Y-66589251D01*
X227814439Y-66589140D01*
X227814337Y-66589055D01*
X227812653Y-66587348D01*
X226962652Y-65737348D01*
X226910951Y-65694880D01*
X226859601Y-65651793D01*
X226856258Y-65649955D01*
X226853314Y-65647537D01*
X226794332Y-65615911D01*
X226735608Y-65583627D01*
X226731972Y-65582474D01*
X226728614Y-65580673D01*
X226664566Y-65561091D01*
X226600736Y-65540843D01*
X226596950Y-65540418D01*
X226593302Y-65539303D01*
X226526619Y-65532530D01*
X226460123Y-65525071D01*
X226452676Y-65525019D01*
X226452531Y-65525004D01*
X226452396Y-65525017D01*
X226450000Y-65525000D01*
X221206994Y-65525000D01*
X221133973Y-65524490D01*
X220994312Y-65551132D01*
X220862485Y-65604394D01*
X220743514Y-65682246D01*
X220641930Y-65781724D01*
X220561604Y-65899039D01*
X220505593Y-66029721D01*
X220476032Y-66168794D01*
X220474047Y-66310960D01*
X206625002Y-66310960D01*
X206625002Y-65625000D01*
X219000000Y-65625000D01*
X219066600Y-65618470D01*
X219133365Y-65612628D01*
X219137028Y-65611564D01*
X219140820Y-65611192D01*
X219204923Y-65591838D01*
X219269242Y-65573152D01*
X219272626Y-65571398D01*
X219276276Y-65570296D01*
X219335432Y-65538842D01*
X219394863Y-65508036D01*
X219397841Y-65505659D01*
X219401209Y-65503868D01*
X219453157Y-65461500D01*
X219505444Y-65419760D01*
X219510744Y-65414534D01*
X219510860Y-65414439D01*
X219510949Y-65414331D01*
X219512652Y-65412652D01*
X220400304Y-64525000D01*
X223890926Y-64525000D01*
X223955890Y-64526361D01*
X224095910Y-64501672D01*
X224228468Y-64450256D01*
X224348514Y-64374072D01*
X224451477Y-64276022D01*
X224533434Y-64159841D01*
X224591264Y-64029953D01*
X224622763Y-63891306D01*
X224623812Y-63816193D01*
X224624982Y-63805061D01*
X224624102Y-63795396D01*
X224625031Y-63728910D01*
X224597415Y-63589438D01*
X224543234Y-63457986D01*
X224464553Y-63339562D01*
X224364368Y-63238675D01*
X224246496Y-63159169D01*
X224115426Y-63104072D01*
X223976150Y-63075483D01*
X223833973Y-63074490D01*
X223831300Y-63075000D01*
X220100000Y-63075000D01*
X220033400Y-63081530D01*
X219966635Y-63087372D01*
X219962972Y-63088436D01*
X219959180Y-63088808D01*
X219895063Y-63108166D01*
X219830759Y-63126848D01*
X219827377Y-63128601D01*
X219823724Y-63129704D01*
X219764550Y-63161167D01*
X219705137Y-63191964D01*
X219702159Y-63194341D01*
X219698791Y-63196132D01*
X219646843Y-63238500D01*
X219594556Y-63280240D01*
X219589256Y-63285466D01*
X219589140Y-63285561D01*
X219589051Y-63285669D01*
X219587348Y-63287348D01*
X219364680Y-63510016D01*
X219343234Y-63457986D01*
X219264553Y-63339562D01*
X219164368Y-63238675D01*
X219046496Y-63159169D01*
X218915426Y-63104072D01*
X218776150Y-63075483D01*
X218633973Y-63074490D01*
X218631300Y-63075000D01*
X205400000Y-63075000D01*
X205333396Y-63081531D01*
X205266636Y-63087372D01*
X205262974Y-63088436D01*
X205259180Y-63088808D01*
X205195051Y-63108169D01*
X205130759Y-63126848D01*
X205127377Y-63128601D01*
X205123724Y-63129704D01*
X205064550Y-63161167D01*
X205005137Y-63191964D01*
X205002159Y-63194341D01*
X204998791Y-63196132D01*
X204946843Y-63238500D01*
X204894556Y-63280240D01*
X204889252Y-63285470D01*
X204889140Y-63285561D01*
X204889054Y-63285665D01*
X204887348Y-63287347D01*
X204387348Y-63787348D01*
X204344880Y-63839049D01*
X204301793Y-63890399D01*
X204299955Y-63893742D01*
X204297537Y-63896686D01*
X204265911Y-63955668D01*
X204233627Y-64014392D01*
X204232474Y-64018028D01*
X204230673Y-64021386D01*
X204211091Y-64085434D01*
X204190843Y-64149264D01*
X204190418Y-64153050D01*
X204189303Y-64156698D01*
X204182530Y-64223381D01*
X204175071Y-64289877D01*
X204175019Y-64297324D01*
X204175004Y-64297469D01*
X204175017Y-64297604D01*
X204175000Y-64300000D01*
X204175000Y-70629115D01*
X204115426Y-70604072D01*
X203976150Y-70575483D01*
X203833973Y-70574490D01*
X203694312Y-70601132D01*
X203562485Y-70654394D01*
X203443514Y-70732246D01*
X203341930Y-70831724D01*
X203261604Y-70949039D01*
X203205593Y-71079721D01*
X203176032Y-71218794D01*
X203174047Y-71360960D01*
X202825000Y-71360960D01*
X202825000Y-66100000D01*
X202824158Y-66091414D01*
X202825031Y-66028910D01*
X202797415Y-65889438D01*
X202743234Y-65757986D01*
X202664553Y-65639562D01*
X202564368Y-65538675D01*
X202446496Y-65459169D01*
X202315426Y-65404072D01*
X202176150Y-65375483D01*
X202033973Y-65374490D01*
X201894312Y-65401132D01*
X201762485Y-65454394D01*
X201643514Y-65532246D01*
X201541930Y-65631724D01*
X201461604Y-65749039D01*
X201405593Y-65879721D01*
X201376032Y-66018794D01*
X201374047Y-66160960D01*
X180127056Y-66160960D01*
X180127056Y-65475000D01*
X180121659Y-65407320D01*
X180086110Y-65292528D01*
X180019988Y-65192185D01*
X179928529Y-65114235D01*
X179818975Y-65064852D01*
X179700000Y-65047944D01*
X178700000Y-65047944D01*
X178632320Y-65053341D01*
X178517528Y-65088890D01*
X178417185Y-65155012D01*
X178339235Y-65246471D01*
X178289852Y-65356025D01*
X178272944Y-65475000D01*
X177825000Y-65475000D01*
X177825000Y-60775000D01*
X178272944Y-60775000D01*
X178272944Y-62325000D01*
X178278341Y-62392680D01*
X178313890Y-62507472D01*
X178380012Y-62607815D01*
X178471471Y-62685765D01*
X178581025Y-62735148D01*
X178700000Y-62752056D01*
X179700000Y-62752056D01*
X179767680Y-62746659D01*
X179882472Y-62711110D01*
X179982815Y-62644988D01*
X179999930Y-62624907D01*
X180003341Y-62667680D01*
X180038890Y-62782472D01*
X180105012Y-62882815D01*
X180196471Y-62960765D01*
X180306025Y-63010148D01*
X180425000Y-63027056D01*
X181425000Y-63027056D01*
X181450783Y-63025000D01*
X189300000Y-63025000D01*
X189366600Y-63018470D01*
X189433365Y-63012628D01*
X189437028Y-63011564D01*
X189440820Y-63011192D01*
X189504923Y-62991838D01*
X189569242Y-62973152D01*
X189572626Y-62971398D01*
X189576276Y-62970296D01*
X189635432Y-62938842D01*
X189694863Y-62908036D01*
X189697841Y-62905659D01*
X189701209Y-62903868D01*
X189753157Y-62861500D01*
X189805444Y-62819760D01*
X189810744Y-62814534D01*
X189810860Y-62814439D01*
X189810949Y-62814331D01*
X189812652Y-62812652D01*
X190312653Y-62312652D01*
X190355167Y-62260894D01*
X190398207Y-62209601D01*
X190400043Y-62206261D01*
X190402464Y-62203314D01*
X190434130Y-62144258D01*
X190466373Y-62085608D01*
X190467525Y-62081977D01*
X190469328Y-62078614D01*
X190488920Y-62014532D01*
X190509157Y-61950736D01*
X190509582Y-61946949D01*
X190510697Y-61943301D01*
X190517470Y-61876624D01*
X190524929Y-61810123D01*
X190524981Y-61802676D01*
X190524996Y-61802531D01*
X190524983Y-61802396D01*
X190525000Y-61800000D01*
X190525000Y-53500000D01*
X190524158Y-53491414D01*
X190525031Y-53428910D01*
X190497415Y-53289438D01*
X190443234Y-53157986D01*
X190364553Y-53039562D01*
X190264368Y-52938675D01*
X190146496Y-52859169D01*
X190015426Y-52804072D01*
X189876150Y-52775483D01*
X189733973Y-52774490D01*
X189594312Y-52801132D01*
X189462485Y-52854394D01*
X189343514Y-52932246D01*
X189241930Y-53031724D01*
X189161604Y-53149039D01*
X189105593Y-53279721D01*
X189076032Y-53418794D01*
X189074047Y-53560960D01*
X189075000Y-53566153D01*
X189075000Y-61499695D01*
X188999696Y-61575000D01*
X181439467Y-61575000D01*
X181425000Y-61572944D01*
X180425000Y-61572944D01*
X180357320Y-61578341D01*
X180242528Y-61613890D01*
X180142185Y-61680012D01*
X180127056Y-61697763D01*
X180127056Y-60775000D01*
X180121659Y-60707320D01*
X180086110Y-60592528D01*
X180019988Y-60492185D01*
X179928529Y-60414235D01*
X179818975Y-60364852D01*
X179700000Y-60347944D01*
X178700000Y-60347944D01*
X178632320Y-60353341D01*
X178517528Y-60388890D01*
X178417185Y-60455012D01*
X178339235Y-60546471D01*
X178289852Y-60656025D01*
X178272944Y-60775000D01*
X177825000Y-60775000D01*
X177825000Y-56675000D01*
X178272944Y-56675000D01*
X178272944Y-58225000D01*
X178278341Y-58292680D01*
X178313890Y-58407472D01*
X178380012Y-58507815D01*
X178471471Y-58585765D01*
X178581025Y-58635148D01*
X178700000Y-58652056D01*
X179700000Y-58652056D01*
X179767680Y-58646659D01*
X179882472Y-58611110D01*
X179982815Y-58544988D01*
X180060765Y-58453529D01*
X180110148Y-58343975D01*
X180127056Y-58225000D01*
X180127056Y-56675000D01*
X180121659Y-56607320D01*
X180086110Y-56492528D01*
X180019988Y-56392185D01*
X179928529Y-56314235D01*
X179818975Y-56264852D01*
X179700000Y-56247944D01*
X178700000Y-56247944D01*
X178632320Y-56253341D01*
X178517528Y-56288890D01*
X178417185Y-56355012D01*
X178339235Y-56446471D01*
X178289852Y-56556025D01*
X178272944Y-56675000D01*
X177825000Y-56675000D01*
X177825000Y-51975000D01*
X178272944Y-51975000D01*
X178272944Y-53525000D01*
X178278341Y-53592680D01*
X178313890Y-53707472D01*
X178380012Y-53807815D01*
X178471471Y-53885765D01*
X178581025Y-53935148D01*
X178700000Y-53952056D01*
X179700000Y-53952056D01*
X179767680Y-53946659D01*
X179882472Y-53911110D01*
X179982815Y-53844988D01*
X179999930Y-53824907D01*
X180003341Y-53867680D01*
X180038890Y-53982472D01*
X180105012Y-54082815D01*
X180196471Y-54160765D01*
X180306025Y-54210148D01*
X180425000Y-54227056D01*
X181425000Y-54227056D01*
X181450783Y-54225000D01*
X187290926Y-54225000D01*
X187355890Y-54226361D01*
X187495910Y-54201672D01*
X187628468Y-54150256D01*
X187748514Y-54074072D01*
X187851477Y-53976022D01*
X187933434Y-53859841D01*
X187991264Y-53729953D01*
X188022763Y-53591306D01*
X188023812Y-53516193D01*
X188024982Y-53505061D01*
X188024102Y-53495396D01*
X188025031Y-53428910D01*
X187997415Y-53289438D01*
X187943234Y-53157986D01*
X187864553Y-53039562D01*
X187764368Y-52938675D01*
X187646496Y-52859169D01*
X187515426Y-52804072D01*
X187376150Y-52775483D01*
X187233973Y-52774490D01*
X187231300Y-52775000D01*
X181439467Y-52775000D01*
X181425000Y-52772944D01*
X180425000Y-52772944D01*
X180357320Y-52778341D01*
X180242528Y-52813890D01*
X180142185Y-52880012D01*
X180127056Y-52897763D01*
X180127056Y-51975000D01*
X180121659Y-51907320D01*
X180086110Y-51792528D01*
X180019988Y-51692185D01*
X179928529Y-51614235D01*
X179818975Y-51564852D01*
X179700000Y-51547944D01*
X178700000Y-51547944D01*
X178632320Y-51553341D01*
X178517528Y-51588890D01*
X178417185Y-51655012D01*
X178339235Y-51746471D01*
X178289852Y-51856025D01*
X178272944Y-51975000D01*
X177825000Y-51975000D01*
X177825000Y-51558884D01*
X177858883Y-51525000D01*
X179100000Y-51525000D01*
X179157468Y-51519365D01*
X179214970Y-51514334D01*
X179218123Y-51513418D01*
X179221396Y-51513097D01*
X179276650Y-51496415D01*
X179332105Y-51480304D01*
X179335026Y-51478790D01*
X179338169Y-51477841D01*
X179389144Y-51450737D01*
X179440399Y-51424169D01*
X179442965Y-51422121D01*
X179445870Y-51420576D01*
X179490642Y-51384060D01*
X179535728Y-51348069D01*
X179540304Y-51343557D01*
X179540396Y-51343482D01*
X179540466Y-51343397D01*
X179541942Y-51341942D01*
X179941941Y-50941942D01*
X179978576Y-50897342D01*
X180015696Y-50853104D01*
X180017279Y-50850224D01*
X180019365Y-50847685D01*
X180046631Y-50796834D01*
X180074460Y-50746214D01*
X180075455Y-50743078D01*
X180077006Y-50740185D01*
X180093886Y-50684976D01*
X180111342Y-50629945D01*
X180111708Y-50626683D01*
X180112670Y-50623536D01*
X180118508Y-50566063D01*
X180124939Y-50508726D01*
X180124984Y-50502301D01*
X180124996Y-50502182D01*
X180124986Y-50502071D01*
X180125000Y-50500000D01*
X180125000Y-49675062D01*
X180167680Y-49671659D01*
X180282472Y-49636110D01*
X180382815Y-49569988D01*
X180421158Y-49525000D01*
X190099696Y-49525000D01*
X191575000Y-51000305D01*
X191575000Y-53492706D01*
X191574047Y-53560960D01*
X191599713Y-53700804D01*
X191652053Y-53832999D01*
X191729073Y-53952511D01*
X191827839Y-54054787D01*
X191944590Y-54135931D01*
X192074879Y-54192852D01*
X192213742Y-54223383D01*
X192355890Y-54226361D01*
X192495910Y-54201672D01*
X192628468Y-54150256D01*
X192748514Y-54074072D01*
X192851477Y-53976022D01*
X192933434Y-53859841D01*
X192991264Y-53729953D01*
X193022763Y-53591306D01*
X193023750Y-53520634D01*
X193024929Y-53510123D01*
X193025000Y-53500000D01*
X193025000Y-53431130D01*
X193025031Y-53428910D01*
X193025000Y-53428753D01*
X193025000Y-50700000D01*
X193018469Y-50633396D01*
X193012628Y-50566636D01*
X193011564Y-50562974D01*
X193011192Y-50559180D01*
X192991831Y-50495051D01*
X192973152Y-50430759D01*
X192971399Y-50427377D01*
X192970296Y-50423724D01*
X192938833Y-50364550D01*
X192908036Y-50305137D01*
X192905659Y-50302159D01*
X192903868Y-50298791D01*
X192861500Y-50246843D01*
X192819760Y-50194556D01*
X192814530Y-50189252D01*
X192814439Y-50189140D01*
X192814335Y-50189054D01*
X192812653Y-50187348D01*
X190912652Y-48287348D01*
X190860951Y-48244880D01*
X190809601Y-48201793D01*
X190806258Y-48199955D01*
X190803314Y-48197537D01*
X190744332Y-48165911D01*
X190685608Y-48133627D01*
X190681972Y-48132474D01*
X190678614Y-48130673D01*
X190614566Y-48111091D01*
X190550736Y-48090843D01*
X190546950Y-48090418D01*
X190543302Y-48089303D01*
X190476619Y-48082530D01*
X190410123Y-48075071D01*
X190402676Y-48075019D01*
X190402531Y-48075004D01*
X190402396Y-48075017D01*
X190400000Y-48075000D01*
X180425138Y-48075000D01*
X180419988Y-48067185D01*
X180328529Y-47989235D01*
X180218975Y-47939852D01*
X180100000Y-47922944D01*
X178900000Y-47922944D01*
X178832320Y-47928341D01*
X178717528Y-47963890D01*
X178617185Y-48030012D01*
X178539235Y-48121471D01*
X178511974Y-48181949D01*
X178508674Y-48165361D01*
X178460957Y-48050162D01*
X178391683Y-47946486D01*
X178303514Y-47858317D01*
X178199838Y-47789043D01*
X178084639Y-47741326D01*
X177962345Y-47717000D01*
X177733250Y-47717000D01*
X177575000Y-47875250D01*
X177575000Y-48575000D01*
X177595000Y-48575000D01*
X177595000Y-49025000D01*
X177575000Y-49025000D01*
X177575000Y-49724750D01*
X177733250Y-49883000D01*
X177962345Y-49883000D01*
X178084639Y-49858674D01*
X178199838Y-49810957D01*
X178303514Y-49741683D01*
X178391683Y-49653514D01*
X178460957Y-49549838D01*
X178508674Y-49434639D01*
X178510976Y-49423064D01*
X178513890Y-49432472D01*
X178580012Y-49532815D01*
X178671471Y-49610765D01*
X178781025Y-49660148D01*
X178875000Y-49673503D01*
X178875000Y-50241117D01*
X178841116Y-50275000D01*
X177600000Y-50275000D01*
X177542487Y-50280639D01*
X177485030Y-50285666D01*
X177481877Y-50286582D01*
X177478604Y-50286903D01*
X177423350Y-50303585D01*
X177367895Y-50319696D01*
X177364974Y-50321210D01*
X177361831Y-50322159D01*
X177310856Y-50349263D01*
X177259601Y-50375831D01*
X177257035Y-50377879D01*
X177254130Y-50379424D01*
X177209382Y-50415920D01*
X177164271Y-50451931D01*
X177159699Y-50456441D01*
X177159604Y-50456518D01*
X177159531Y-50456606D01*
X177158058Y-50458059D01*
X176758058Y-50858058D01*
X176721399Y-50902688D01*
X176684304Y-50946896D01*
X176682721Y-50949775D01*
X176680635Y-50952315D01*
X176653379Y-51003147D01*
X176625540Y-51053786D01*
X176624544Y-51056924D01*
X176622994Y-51059816D01*
X176606119Y-51115010D01*
X176588658Y-51170055D01*
X176588292Y-51173317D01*
X176587330Y-51176464D01*
X176581492Y-51233937D01*
X176575061Y-51291274D01*
X176575016Y-51297699D01*
X176575004Y-51297818D01*
X176575014Y-51297929D01*
X176575000Y-51300000D01*
X174900000Y-51300000D01*
X174900000Y-49183250D01*
X176067000Y-49183250D01*
X176067000Y-49312345D01*
X176091326Y-49434639D01*
X176139043Y-49549838D01*
X176208317Y-49653514D01*
X176296486Y-49741683D01*
X176400162Y-49810957D01*
X176515361Y-49858674D01*
X176637655Y-49883000D01*
X176866750Y-49883000D01*
X177025000Y-49724750D01*
X177025000Y-49025000D01*
X176225250Y-49025000D01*
X176067000Y-49183250D01*
X174900000Y-49183250D01*
X174900000Y-48287655D01*
X176067000Y-48287655D01*
X176067000Y-48416750D01*
X176225250Y-48575000D01*
X177025000Y-48575000D01*
X177025000Y-47875250D01*
X176866750Y-47717000D01*
X176637655Y-47717000D01*
X176515361Y-47741326D01*
X176400162Y-47789043D01*
X176296486Y-47858317D01*
X176208317Y-47946486D01*
X176139043Y-48050162D01*
X176091326Y-48165361D01*
X176067000Y-48287655D01*
X174900000Y-48287655D01*
X174900000Y-47525000D01*
X223349695Y-47525000D01*
X211199696Y-59675000D01*
G36*
X224275000Y-46493862D02*
X224271045Y-46534024D01*
X224261121Y-46566736D01*
X224245003Y-46596890D01*
X224223316Y-46623316D01*
X224196890Y-46645003D01*
X224166736Y-46661121D01*
X224134024Y-46671045D01*
X224093862Y-46675000D01*
X174900000Y-46675000D01*
X174900000Y-43824457D01*
X174940442Y-43411997D01*
X175053126Y-43038772D01*
X175236154Y-42694545D01*
X175482559Y-42392421D01*
X175782958Y-42143911D01*
X176125897Y-41958484D01*
X176498325Y-41843199D01*
X176909332Y-41800000D01*
X224275000Y-41800000D01*
X224275000Y-46493862D01*
X224275000Y-46493862D01*
G37*
X224275000Y-46493862D02*
X224271045Y-46534024D01*
X224261121Y-46566736D01*
X224245003Y-46596890D01*
X224223316Y-46623316D01*
X224196890Y-46645003D01*
X224166736Y-46661121D01*
X224134024Y-46671045D01*
X224093862Y-46675000D01*
X174900000Y-46675000D01*
X174900000Y-43824457D01*
X174940442Y-43411997D01*
X175053126Y-43038772D01*
X175236154Y-42694545D01*
X175482559Y-42392421D01*
X175782958Y-42143911D01*
X176125897Y-41958484D01*
X176498325Y-41843199D01*
X176909332Y-41800000D01*
X224275000Y-41800000D01*
X224275000Y-46493862D01*
G36*
X189934024Y-98428955D02*
X189966736Y-98438879D01*
X189996890Y-98454997D01*
X190023316Y-98476684D01*
X190045003Y-98503110D01*
X190061121Y-98533264D01*
X190071045Y-98565976D01*
X190075000Y-98606138D01*
X190075000Y-105800000D01*
X176924458Y-105800000D01*
X176511997Y-105759558D01*
X176138773Y-105646875D01*
X175794543Y-105463844D01*
X175492419Y-105217439D01*
X175243913Y-104917044D01*
X175058484Y-104574102D01*
X174943199Y-104201675D01*
X174900000Y-103790668D01*
X174900000Y-98425000D01*
X189893862Y-98425000D01*
X189934024Y-98428955D01*
X189934024Y-98428955D01*
G37*
X189934024Y-98428955D02*
X189966736Y-98438879D01*
X189996890Y-98454997D01*
X190023316Y-98476684D01*
X190045003Y-98503110D01*
X190061121Y-98533264D01*
X190071045Y-98565976D01*
X190075000Y-98606138D01*
X190075000Y-105800000D01*
X176924458Y-105800000D01*
X176511997Y-105759558D01*
X176138773Y-105646875D01*
X175794543Y-105463844D01*
X175492419Y-105217439D01*
X175243913Y-104917044D01*
X175058484Y-104574102D01*
X174943199Y-104201675D01*
X174900000Y-103790668D01*
X174900000Y-98425000D01*
X189893862Y-98425000D01*
X189934024Y-98428955D01*
G36*
X268900000Y-103775542D02*
X268859558Y-104188003D01*
X268746875Y-104561227D01*
X268563844Y-104905457D01*
X268317439Y-105207581D01*
X268017044Y-105456087D01*
X267674102Y-105641516D01*
X267301675Y-105756801D01*
X266890668Y-105800000D01*
X191025000Y-105800000D01*
X191025000Y-100606138D01*
X191028955Y-100565976D01*
X191038879Y-100533264D01*
X191054997Y-100503110D01*
X191076684Y-100476684D01*
X191103110Y-100454997D01*
X191133264Y-100438879D01*
X191165976Y-100428955D01*
X191206138Y-100425000D01*
X254800000Y-100425000D01*
X254812251Y-100424398D01*
X254870778Y-100418634D01*
X254894813Y-100413853D01*
X254951091Y-100396781D01*
X254973730Y-100387404D01*
X255025596Y-100359681D01*
X255045970Y-100346067D01*
X255091431Y-100308758D01*
X255108758Y-100291431D01*
X255146067Y-100245970D01*
X255159681Y-100225596D01*
X255187404Y-100173730D01*
X255196781Y-100151091D01*
X255213853Y-100094813D01*
X255218634Y-100070778D01*
X255224398Y-100012251D01*
X255225000Y-100000000D01*
X255225000Y-95888069D01*
X263615863Y-95888069D01*
X263615863Y-97388069D01*
X263621260Y-97455749D01*
X263656809Y-97570541D01*
X263722931Y-97670884D01*
X263814390Y-97748834D01*
X263923944Y-97798217D01*
X264042919Y-97815125D01*
X266192919Y-97815125D01*
X266260599Y-97809728D01*
X266375391Y-97774179D01*
X266475734Y-97708057D01*
X266553684Y-97616598D01*
X266603067Y-97507044D01*
X266619975Y-97388069D01*
X266619975Y-95888069D01*
X266614578Y-95820389D01*
X266579029Y-95705597D01*
X266512907Y-95605254D01*
X266421448Y-95527304D01*
X266311894Y-95477921D01*
X266192919Y-95461013D01*
X264042919Y-95461013D01*
X263975239Y-95466410D01*
X263860447Y-95501959D01*
X263760104Y-95568081D01*
X263682154Y-95659540D01*
X263632771Y-95769094D01*
X263615863Y-95888069D01*
X255225000Y-95888069D01*
X255225000Y-94206138D01*
X255228955Y-94165976D01*
X255238879Y-94133264D01*
X255254997Y-94103110D01*
X255276684Y-94076684D01*
X255303110Y-94054997D01*
X255333264Y-94038879D01*
X255365976Y-94028955D01*
X255406138Y-94025000D01*
X268900000Y-94025000D01*
X268900000Y-103775542D01*
X268900000Y-103775542D01*
G37*
X268900000Y-103775542D02*
X268859558Y-104188003D01*
X268746875Y-104561227D01*
X268563844Y-104905457D01*
X268317439Y-105207581D01*
X268017044Y-105456087D01*
X267674102Y-105641516D01*
X267301675Y-105756801D01*
X266890668Y-105800000D01*
X191025000Y-105800000D01*
X191025000Y-100606138D01*
X191028955Y-100565976D01*
X191038879Y-100533264D01*
X191054997Y-100503110D01*
X191076684Y-100476684D01*
X191103110Y-100454997D01*
X191133264Y-100438879D01*
X191165976Y-100428955D01*
X191206138Y-100425000D01*
X254800000Y-100425000D01*
X254812251Y-100424398D01*
X254870778Y-100418634D01*
X254894813Y-100413853D01*
X254951091Y-100396781D01*
X254973730Y-100387404D01*
X255025596Y-100359681D01*
X255045970Y-100346067D01*
X255091431Y-100308758D01*
X255108758Y-100291431D01*
X255146067Y-100245970D01*
X255159681Y-100225596D01*
X255187404Y-100173730D01*
X255196781Y-100151091D01*
X255213853Y-100094813D01*
X255218634Y-100070778D01*
X255224398Y-100012251D01*
X255225000Y-100000000D01*
X255225000Y-95888069D01*
X263615863Y-95888069D01*
X263615863Y-97388069D01*
X263621260Y-97455749D01*
X263656809Y-97570541D01*
X263722931Y-97670884D01*
X263814390Y-97748834D01*
X263923944Y-97798217D01*
X264042919Y-97815125D01*
X266192919Y-97815125D01*
X266260599Y-97809728D01*
X266375391Y-97774179D01*
X266475734Y-97708057D01*
X266553684Y-97616598D01*
X266603067Y-97507044D01*
X266619975Y-97388069D01*
X266619975Y-95888069D01*
X266614578Y-95820389D01*
X266579029Y-95705597D01*
X266512907Y-95605254D01*
X266421448Y-95527304D01*
X266311894Y-95477921D01*
X266192919Y-95461013D01*
X264042919Y-95461013D01*
X263975239Y-95466410D01*
X263860447Y-95501959D01*
X263760104Y-95568081D01*
X263682154Y-95659540D01*
X263632771Y-95769094D01*
X263615863Y-95888069D01*
X255225000Y-95888069D01*
X255225000Y-94206138D01*
X255228955Y-94165976D01*
X255238879Y-94133264D01*
X255254997Y-94103110D01*
X255276684Y-94076684D01*
X255303110Y-94054997D01*
X255333264Y-94038879D01*
X255365976Y-94028955D01*
X255406138Y-94025000D01*
X268900000Y-94025000D01*
X268900000Y-103775542D01*
G36*
X264734024Y-71928955D02*
X264766736Y-71938879D01*
X264796890Y-71954997D01*
X264823316Y-71976684D01*
X264845003Y-72003110D01*
X264861121Y-72033264D01*
X264871045Y-72065976D01*
X264875000Y-72106138D01*
X264875000Y-72393862D01*
X264871045Y-72434024D01*
X264861121Y-72466736D01*
X264845003Y-72496890D01*
X264823621Y-72522944D01*
X263550000Y-72522944D01*
X263524217Y-72525000D01*
X262678736Y-72525000D01*
X262676684Y-72523316D01*
X262654997Y-72496890D01*
X262638879Y-72466736D01*
X262628955Y-72434024D01*
X262625000Y-72393862D01*
X262625000Y-72106138D01*
X262628955Y-72065976D01*
X262638879Y-72033264D01*
X262654997Y-72003110D01*
X262676684Y-71976684D01*
X262703110Y-71954997D01*
X262733264Y-71938879D01*
X262765976Y-71928955D01*
X262806138Y-71925000D01*
X264693862Y-71925000D01*
X264734024Y-71928955D01*
X264734024Y-71928955D01*
G37*
X264734024Y-71928955D02*
X264766736Y-71938879D01*
X264796890Y-71954997D01*
X264823316Y-71976684D01*
X264845003Y-72003110D01*
X264861121Y-72033264D01*
X264871045Y-72065976D01*
X264875000Y-72106138D01*
X264875000Y-72393862D01*
X264871045Y-72434024D01*
X264861121Y-72466736D01*
X264845003Y-72496890D01*
X264823621Y-72522944D01*
X263550000Y-72522944D01*
X263524217Y-72525000D01*
X262678736Y-72525000D01*
X262676684Y-72523316D01*
X262654997Y-72496890D01*
X262638879Y-72466736D01*
X262628955Y-72434024D01*
X262625000Y-72393862D01*
X262625000Y-72106138D01*
X262628955Y-72065976D01*
X262638879Y-72033264D01*
X262654997Y-72003110D01*
X262676684Y-71976684D01*
X262703110Y-71954997D01*
X262733264Y-71938879D01*
X262765976Y-71928955D01*
X262806138Y-71925000D01*
X264693862Y-71925000D01*
X264734024Y-71928955D01*
G36*
X267288003Y-41840442D02*
X267661228Y-41953126D01*
X268005455Y-42136154D01*
X268307579Y-42382559D01*
X268556089Y-42682958D01*
X268741516Y-43025897D01*
X268856801Y-43398325D01*
X268900000Y-43809332D01*
X268900000Y-46675000D01*
X225306138Y-46675000D01*
X225265976Y-46671045D01*
X225233264Y-46661121D01*
X225203110Y-46645003D01*
X225176684Y-46623316D01*
X225154997Y-46596890D01*
X225138879Y-46566736D01*
X225128955Y-46534024D01*
X225125000Y-46493862D01*
X225125000Y-41800000D01*
X266875543Y-41800000D01*
X267288003Y-41840442D01*
X267288003Y-41840442D01*
G37*
X267288003Y-41840442D02*
X267661228Y-41953126D01*
X268005455Y-42136154D01*
X268307579Y-42382559D01*
X268556089Y-42682958D01*
X268741516Y-43025897D01*
X268856801Y-43398325D01*
X268900000Y-43809332D01*
X268900000Y-46675000D01*
X225306138Y-46675000D01*
X225265976Y-46671045D01*
X225233264Y-46661121D01*
X225203110Y-46645003D01*
X225176684Y-46623316D01*
X225154997Y-46596890D01*
X225138879Y-46566736D01*
X225128955Y-46534024D01*
X225125000Y-46493862D01*
X225125000Y-41800000D01*
X266875543Y-41800000D01*
X267288003Y-41840442D01*
M02*
