<?xml version="1.0" standalone="no"?>
 <!DOCTYPE svg PUBLIC "-//W3C//DTD SVG 1.1//EN" 
 "http://www.w3.org/Graphics/SVG/1.1/DTD/svg11.dtd"> 
<svg xmlns="http://www.w3.org/2000/svg" version="1.1" 
    width="11.4097cm" height="9.96442cm" viewBox="0 0 44920 39230 ">
<title>SVG Picture created as modular_eside_rev14-F.CrtYd.svg date 2018/05/02 17:43:15 </title>
  <desc>Picture generated by PCBNEW </desc>
<g style="fill:#000000; fill-opacity:1;stroke:#000000; stroke-opacity:1;
stroke-linecap:round; stroke-linejoin:round; "
 transform="translate(0 0) scale(1 1)">
</g>
<g style="fill:#000000; fill-opacity:0.0; 
stroke:#000000; stroke-width:-0.000393701; stroke-opacity:1; 
stroke-linecap:round; stroke-linejoin:round;">
</g>
<g style="fill:#000000; fill-opacity:0.0; 
stroke:#000000; stroke-width:19.685; stroke-opacity:1; 
stroke-linecap:round; stroke-linejoin:round;">
<path d="M30649 12362
L29232 12362
" />
<path d="M30649 12362
L30649 11850
" />
<path d="M29232 11850
L29232 12362
" />
<path d="M29232 11850
L30649 11850
" />
<path d="M36366 11377
L36366 9606
" />
<path d="M36366 11377
L37055 11377
" />
<path d="M37055 9606
L36366 9606
" />
<path d="M37055 9606
L37055 11377
" />
<path d="M10492 25275
L10492 23425
" />
<path d="M10492 25275
L11200 25275
" />
<path d="M11200 23425
L10492 23425
" />
<path d="M11200 23425
L11200 25275
" />
<path d="M17755 27027
L22440 27027
" />
<path d="M22440 25452
L22440 27027
" />
<path d="M17755 25452
L17755 27027
" />
<path d="M17755 25452
L22440 25452
" />
<circle cx="6122.05" cy="29271.7" r="964.567" /> 
<circle cx="23838.6" cy="5649.61" r="964.567" /> 
<circle cx="41555.1" cy="5649.61" r="964.567" /> 
<circle cx="23838.6" cy="29271.7" r="964.567" /> 
<circle cx="41555.1" cy="29271.7" r="964.567" /> 
<circle cx="6122.05" cy="5649.61" r="964.567" /> 
<path d="M23267 11673
L23267 13011
" />
<path d="M23267 13011
L21889 13011
" />
<path d="M21889 13011
L21889 11673
" />
<path d="M21889 11673
L23267 11673
" />
<path d="M23937 13011
L23937 11673
" />
<path d="M23937 11673
L25314 11673
" />
<path d="M25314 11673
L25314 13011
" />
<path d="M25314 13011
L23937 13011
" />
<path d="M14133 13661
L14133 12440
" />
<path d="M14133 13661
L15590 13661
" />
<path d="M15590 12440
L14133 12440
" />
<path d="M15590 12440
L15590 13661
" />
<path d="M34685 23582
L34685 25748
" />
<path d="M37637 23582
L37637 25748
" />
<path d="M34685 23582
L37637 23582
" />
<path d="M34685 25748
L37637 25748
" />
<path d="M12224 19035
L15374 19035
" />
<path d="M12224 15885
L15374 15885
" />
<path d="M12224 19035
L12224 15885
" />
<path d="M15374 19035
L15374 15885
" />
<path d="M20629 24665
L20629 23169
" />
<path d="M20629 23169
L22047 23169
" />
<path d="M22047 23169
L22047 24665
" />
<path d="M22047 24665
L20629 24665
" />
<path d="M14702 27905
L16828 27905
" />
<path d="M14702 24968
L16828 24968
" />
<path d="M14702 27905
L14702 24968
" />
<path d="M16828 27905
L16828 24968
" />
<path d="M8641 16318
L8641 11200
" />
<path d="M8641 11200
L7460 11200
" />
<path d="M7460 11200
L7460 16318
" />
<path d="M7460 16318
L8641 16318
" />
<path d="M20688 21673
L15570 21673
" />
<path d="M15570 21673
L15570 22854
" />
<path d="M15570 22854
L20688 22854
" />
<path d="M20688 22854
L20688 21673
" />
<path d="M37114 18346
L37114 16574
" />
<path d="M37114 18346
L37803 18346
" />
<path d="M37803 16574
L37114 16574
" />
<path d="M37803 16574
L37803 18346
" />
<path d="M24527 16870
L24527 18051
" />
<path d="M24527 18051
L23149 18051
" />
<path d="M24527 16870
L23149 16870
" />
<path d="M23149 16870
L23149 18051
" />
<path d="M8543 19909
L10314 19909
" />
<path d="M8543 19909
L8543 20598
" />
<path d="M10314 20598
L10314 19909
" />
<path d="M10314 20598
L8543 20598
" />
<path d="M39917 23956
L41456 23956
" />
<path d="M39917 23956
L39917 24507
" />
<path d="M41456 24507
L41456 23956
" />
<path d="M41456 24507
L39917 24507
" />
<path d="M39917 24783
L41456 24783
" />
<path d="M39917 24783
L39917 25334
" />
<path d="M41456 25334
L41456 24783
" />
<path d="M41456 25334
L39917 25334
" />
<path d="M13996 9996
L13996 11535
" />
<path d="M13996 9996
L13444 9996
" />
<path d="M13444 11535
L13996 11535
" />
<path d="M13444 11535
L13444 9996
" />
<path d="M14744 9996
L14744 11535
" />
<path d="M14744 9996
L14192 9996
" />
<path d="M14192 11535
L14744 11535
" />
<path d="M14192 11535
L14192 9996
" />
<path d="M15492 9996
L15492 11535
" />
<path d="M15492 9996
L14940 9996
" />
<path d="M14940 11535
L15492 11535
" />
<path d="M14940 11535
L14940 9996
" />
<path d="M16240 9996
L16240 11535
" />
<path d="M16240 9996
L15688 9996
" />
<path d="M15688 11535
L16240 11535
" />
<path d="M15688 11535
L15688 9996
" />
<path d="M33799 23346
L33799 25196
" />
<path d="M33799 23346
L33090 23346
" />
<path d="M33090 25196
L33799 25196
" />
<path d="M33090 25196
L33090 23346
" />
<path d="M17480 19429
L19330 19429
" />
<path d="M17480 19429
L17480 20137
" />
<path d="M19330 20137
L19330 19429
" />
<path d="M19330 20137
L17480 20137
" />
<path d="M17224 11279
L17224 9429
" />
<path d="M17224 11279
L17933 11279
" />
<path d="M17933 9429
L17224 9429
" />
<path d="M17933 9429
L17933 11279
" />
<path d="M10807 21535
L10807 19685
" />
<path d="M10807 21535
L11515 21535
" />
<path d="M11515 19685
L10807 19685
" />
<path d="M11515 19685
L11515 21535
" />
<path d="M19685 17027
L17834 17027
" />
<path d="M19685 17027
L19685 16318
" />
<path d="M17834 16318
L17834 17027
" />
<path d="M17834 16318
L19685 16318
" />
<path d="M17834 15413
L19685 15413
" />
<path d="M17834 15413
L17834 16122
" />
<path d="M19685 16122
L19685 15413
" />
<path d="M19685 16122
L17834 16122
" />
<path d="M24980 14094
L24980 15944
" />
<path d="M24980 14094
L24271 14094
" />
<path d="M24271 15944
L24980 15944
" />
<path d="M24271 15944
L24271 14094
" />
<path d="M22933 14094
L22933 15944
" />
<path d="M22933 14094
L22224 14094
" />
<path d="M22224 15944
L22933 15944
" />
<path d="M22224 15944
L22224 14094
" />
<path d="M13248 14291
L13248 12440
" />
<path d="M13248 14291
L13956 14291
" />
<path d="M13956 12440
L13248 12440
" />
<path d="M13956 12440
L13956 14291
" />
<path d="M19685 17933
L17834 17933
" />
<path d="M19685 17933
L19685 17224
" />
<path d="M17834 17224
L17834 17933
" />
<path d="M17834 17224
L19685 17224
" />
<path d="M13956 21141
L13956 22992
" />
<path d="M13956 21141
L13248 21141
" />
<path d="M13248 22992
L13956 22992
" />
<path d="M13248 22992
L13248 21141
" />
<path d="M12972 21141
L12972 22992
" />
<path d="M12972 21141
L12263 21141
" />
<path d="M12263 22992
L12972 22992
" />
<path d="M12263 22992
L12263 21141
" />
<path d="M12165 27145
L14015 27145
" />
<path d="M12165 27145
L12165 27854
" />
<path d="M14015 27854
L14015 27145
" />
<path d="M14015 27854
L12165 27854
" />
<path d="M12165 26082
L14015 26082
" />
<path d="M12165 26082
L12165 26791
" />
<path d="M14015 26791
L14015 26082
" />
<path d="M14015 26791
L12165 26791
" />
<path d="M10570 9940
L10570 11791
" />
<path d="M10570 9940
L9862 9940
" />
<path d="M9862 11791
L10570 11791
" />
<path d="M9862 11791
L9862 9940
" />
<path d="M11555 9940
L11555 11791
" />
<path d="M11555 9940
L10846 9940
" />
<path d="M10846 11791
L11555 11791
" />
<path d="M10846 11791
L10846 9940
" />
<path d="M11161 26200
L11161 27539
" />
<path d="M11161 27539
L9783 27539
" />
<path d="M9783 27539
L9783 26200
" />
<path d="M9783 26200
L11161 26200
" />
<path d="M17283 7736
L17283 6397
" />
<path d="M17283 6397
L18661 6397
" />
<path d="M18661 6397
L18661 7736
" />
<path d="M18661 7736
L17283 7736
" />
<path d="M17933 25433
L17933 23582
" />
<path d="M17933 25433
L18641 25433
" />
<path d="M18641 23582
L17933 23582
" />
<path d="M18641 23582
L18641 25433
" />
<path d="M16771 7814
L14921 7814
" />
<path d="M16771 7814
L16771 7106
" />
<path d="M14921 7106
L14921 7814
" />
<path d="M14921 7106
L16771 7106
" />
</g>
<g style="fill:#000000; fill-opacity:0.0; 
stroke:#000000; stroke-width:59.0551; stroke-opacity:1; 
stroke-linecap:round; stroke-linejoin:round;">
<path d="M9251 27322
L9251 26456
" />
<path d="M8228 27322
L8228 26456
" />
<path d="M9232 27322
L8228 27322
" />
<path d="M8228 26456
L9232 26456
" />
<path d="M20354 6377
L20354 7244
" />
<path d="M21377 6377
L21377 7244
" />
<path d="M20374 6377
L21377 6377
" />
<path d="M21377 7244
L20374 7244
" />
</g>
<g style="fill:#000000; fill-opacity:0.0; 
stroke:#000000; stroke-width:19.685; stroke-opacity:1; 
stroke-linecap:round; stroke-linejoin:round;">
<path d="M34448 26956
L36220 26956
" />
<path d="M34448 26956
L34448 27645
" />
<path d="M36220 27645
L36220 26956
" />
<path d="M36220 27645
L34448 27645
" />
<path d="M37874 27649
L36102 27649
" />
<path d="M37874 27649
L37874 26960
" />
<path d="M36102 26960
L36102 27649
" />
<path d="M36102 26960
L37874 26960
" />
<path d="M10314 19539
L8543 19539
" />
<path d="M10314 19539
L10314 18850
" />
<path d="M8543 18850
L8543 19539
" />
<path d="M8543 18850
L10314 18850
" />
<path d="M29055 8255
L30826 8255
" />
<path d="M29055 8255
L29055 8944
" />
<path d="M30826 8944
L30826 8255
" />
<path d="M30826 8944
L29055 8944
" />
<path d="M10314 15925
L10314 14507
" />
<path d="M10314 15925
L10826 15925
" />
<path d="M10826 14507
L10314 14507
" />
<path d="M10826 14507
L10826 15925
" />
<path d="M27452 15196
L27452 16968
" />
<path d="M27452 15196
L26763 15196
" />
<path d="M26763 16968
L27452 16968
" />
<path d="M26763 16968
L26763 15196
" />
<path d="M28228 15374
L28228 16791
" />
<path d="M28228 15374
L27716 15374
" />
<path d="M27716 16791
L28228 16791
" />
<path d="M27716 16791
L27716 15374
" />
<path d="M29055 10066
L30826 10066
" />
<path d="M29055 10066
L29055 10755
" />
<path d="M30826 10755
L30826 10066
" />
<path d="M30826 10755
L29055 10755
" />
<path d="M26220 17381
L26220 18799
" />
<path d="M26220 17381
L25708 17381
" />
<path d="M25708 18799
L26220 18799
" />
<path d="M25708 18799
L25708 17381
" />
<path d="M23011 19330
L24429 19330
" />
<path d="M23011 19330
L23011 19842
" />
<path d="M24429 19842
L24429 19330
" />
<path d="M24429 19842
L23011 19842
" />
<path d="M15649 12795
L17066 12795
" />
<path d="M15649 12795
L15649 13307
" />
<path d="M17066 13307
L17066 12795
" />
<path d="M17066 13307
L15649 13307
" />
<path d="M23791 19960
L23791 21732
" />
<path d="M23791 19960
L23102 19960
" />
<path d="M23102 21732
L23791 21732
" />
<path d="M23102 21732
L23102 19960
" />
<path d="M22795 23188
L22795 24606
" />
<path d="M22795 23188
L22283 23188
" />
<path d="M22283 24606
L22795 24606
" />
<path d="M22283 24606
L22283 23188
" />
<path d="M30826 11665
L29055 11665
" />
<path d="M30826 11665
L30826 10976
" />
<path d="M29055 10976
L29055 11665
" />
<path d="M29055 10976
L30826 10976
" />
<path d="M37059 11811
L37059 13582
" />
<path d="M37059 11811
L36370 11811
" />
<path d="M36370 13582
L37059 13582
" />
<path d="M36370 13582
L36370 11811
" />
<path d="M15011 21181
L15011 22952
" />
<path d="M15011 21181
L14322 21181
" />
<path d="M14322 22952
L15011 22952
" />
<path d="M14322 22952
L14322 21181
" />
<path d="M38877 17677
L40295 17677
" />
<path d="M38877 17677
L38877 18188
" />
<path d="M40295 18188
L40295 17677
" />
<path d="M40295 18188
L38877 18188
" />
<path d="M38877 16771
L40295 16771
" />
<path d="M38877 16771
L38877 17283
" />
<path d="M40295 17283
L40295 16771
" />
<path d="M40295 17283
L38877 17283
" />
<path d="M39704 24586
L37854 24586
" />
<path d="M39704 24586
L39704 23877
" />
<path d="M37854 23877
L37854 24586
" />
<path d="M37854 23877
L39704 23877
" />
<path d="M39704 25413
L37854 25413
" />
<path d="M39704 25413
L39704 24704
" />
<path d="M37854 24704
L37854 25413
" />
<path d="M37854 24704
L39704 24704
" />
<path d="M6673 19133
L6673 16574
" />
<path d="M6673 19133
L7854 19133
" />
<path d="M7854 16574
L6673 16574
" />
<path d="M7854 16574
L7854 19133
" />
<path d="M18956 15078
L18956 13228
" />
<path d="M18956 15078
L19665 15078
" />
<path d="M19665 13228
L18956 13228
" />
<path d="M19665 13228
L19665 15078
" />
<path d="M11830 11791
L11830 9940
" />
<path d="M11830 11791
L12539 11791
" />
<path d="M12539 9940
L11830 9940
" />
<path d="M12539 9940
L12539 11791
" />
<path d="M27460 13228
L27460 15078
" />
<path d="M27460 13228
L26751 13228
" />
<path d="M26751 15078
L27460 15078
" />
<path d="M26751 15078
L26751 13228
" />
<path d="M30866 9862
L29015 9862
" />
<path d="M30866 9862
L30866 9153
" />
<path d="M29015 9153
L29015 9862
" />
<path d="M29015 9153
L30866 9153
" />
</g>
<g style="fill:#000000; fill-opacity:0.0; 
stroke:#000000; stroke-width:59.0551; stroke-opacity:1; 
stroke-linecap:round; stroke-linejoin:round;">
<path d="M35570 8208
L35570 20807
" />
<path d="M31633 8208
L35570 8208
" />
<path d="M31633 20807
L31633 8208
" />
<path d="M35570 20807
L31633 20807
" />
</g>
<g style="fill:#000000; fill-opacity:0.0; 
stroke:#000000; stroke-width:19.685; stroke-opacity:1; 
stroke-linecap:round; stroke-linejoin:round;">
<path d="M25688 15196
L25688 13110
" />
<path d="M25688 13110
L26555 13110
" />
<path d="M26555 13110
L26555 15196
" />
<path d="M26555 15196
L25688 15196
" />
<path d="M28070 13086
L30629 13086
" />
<path d="M28070 13086
L28070 13956
" />
<path d="M30629 13956
L30629 13086
" />
<path d="M30629 13956
L28070 13956
" />
</g> 
</svg>
