G04 #@! TF.FileFunction,Soldermask,Top*
%FSLAX46Y46*%
G04 Gerber Fmt 4.6, Leading zero omitted, Abs format (unit mm)*
G04 Created by KiCad (PCBNEW 4.0.7) date Sun Apr  1 16:24:37 2018*
%MOMM*%
%LPD*%
G01*
G04 APERTURE LIST*
%ADD10C,0.100000*%
%ADD11R,2.900000X0.720000*%
%ADD12R,1.700000X1.900000*%
%ADD13R,1.150000X1.200000*%
%ADD14R,2.580000X2.000000*%
%ADD15C,4.800000*%
%ADD16R,1.750000X1.750000*%
%ADD17O,1.750000X1.750000*%
%ADD18R,1.200000X1.300000*%
%ADD19R,0.900000X1.200000*%
%ADD20R,0.800000X1.200000*%
%ADD21R,1.950000X1.000000*%
%ADD22R,1.575000X1.575000*%
%ADD23R,0.650000X1.100000*%
%ADD24R,1.100000X0.650000*%
%ADD25R,1.687500X1.687500*%
%ADD26R,1.050000X1.460000*%
%ADD27R,1.000000X1.950000*%
%ADD28R,2.400000X1.400000*%
%ADD29R,1.400000X2.400000*%
%ADD30R,1.650000X1.900000*%
%ADD31R,1.150000X0.700000*%
%ADD32R,1.050000X0.700000*%
%ADD33R,1.050000X0.750000*%
%ADD34R,0.700000X1.150000*%
%ADD35O,1.900000X1.100000*%
%ADD36R,1.900000X1.650000*%
%ADD37R,1.600000X1.300000*%
%ADD38R,1.300000X1.600000*%
%ADD39R,1.900000X1.700000*%
%ADD40R,2.900000X1.300000*%
%ADD41R,1.400000X1.650000*%
%ADD42R,1.200000X1.150000*%
%ADD43R,1.650000X1.400000*%
%ADD44R,1.100000X1.700000*%
%ADD45R,1.200000X0.880000*%
%ADD46R,0.825000X0.800000*%
%ADD47R,1.550000X1.350000*%
%ADD48R,1.300000X1.200000*%
%ADD49C,1.400000*%
G04 APERTURE END LIST*
D10*
D11*
X239800000Y-55360000D03*
X239800000Y-55980000D03*
X239800000Y-56600000D03*
X239800000Y-57220000D03*
X239800000Y-57840000D03*
X239800000Y-58460000D03*
X239800000Y-59080000D03*
X239800000Y-59700000D03*
X239800000Y-60320000D03*
X239800000Y-60940000D03*
X239800000Y-61560000D03*
X239800000Y-62180000D03*
X239800000Y-62800000D03*
X239800000Y-63420000D03*
D12*
X178800000Y-97650000D03*
X178800000Y-94950000D03*
D13*
X227300000Y-76150000D03*
X227300000Y-74650000D03*
D14*
X207810000Y-96100000D03*
X216990000Y-96100000D03*
D15*
X176900000Y-103800000D03*
X221900000Y-43800000D03*
X266900000Y-43800000D03*
X221900000Y-103800000D03*
X266900000Y-103800000D03*
X176900000Y-43800000D03*
D16*
X175900000Y-74800000D03*
D17*
X175900000Y-72800000D03*
D18*
X219650000Y-59800000D03*
X217750000Y-59800000D03*
X218700000Y-61800000D03*
X222950000Y-61800000D03*
X224850000Y-61800000D03*
X223900000Y-59800000D03*
D19*
X197900000Y-63500000D03*
D20*
X199500000Y-63500000D03*
X198700000Y-63500000D03*
D19*
X200300000Y-63500000D03*
D20*
X198700000Y-61700000D03*
D19*
X197900000Y-61700000D03*
D20*
X199500000Y-61700000D03*
D19*
X200300000Y-61700000D03*
D21*
X250500000Y-90195000D03*
X250500000Y-91465000D03*
X250500000Y-92735000D03*
X250500000Y-94005000D03*
X255900000Y-94005000D03*
X255900000Y-92735000D03*
X255900000Y-91465000D03*
X255900000Y-90195000D03*
D22*
X253787500Y-92687500D03*
X253787500Y-91512500D03*
X252612500Y-92687500D03*
X252612500Y-91512500D03*
D23*
X193900000Y-77200000D03*
X194400000Y-77200000D03*
X194900000Y-77200000D03*
X195400000Y-77200000D03*
X195900000Y-77200000D03*
X196400000Y-77200000D03*
X196900000Y-77200000D03*
X197400000Y-77200000D03*
X197900000Y-77200000D03*
X198400000Y-77200000D03*
X198900000Y-77200000D03*
D24*
X199800000Y-76300000D03*
X199800000Y-75800000D03*
X199800000Y-75300000D03*
X199800000Y-74800000D03*
X199800000Y-74300000D03*
X199800000Y-73800000D03*
X199800000Y-73300000D03*
X199800000Y-72800000D03*
X199800000Y-72300000D03*
X199800000Y-71800000D03*
X199800000Y-71300000D03*
D23*
X198900000Y-70400000D03*
X198400000Y-70400000D03*
X197900000Y-70400000D03*
X197400000Y-70400000D03*
X196900000Y-70400000D03*
X196400000Y-70400000D03*
X195900000Y-70400000D03*
X195400000Y-70400000D03*
X194900000Y-70400000D03*
X194400000Y-70400000D03*
X193900000Y-70400000D03*
D24*
X193000000Y-71300000D03*
X193000000Y-71800000D03*
X193000000Y-72300000D03*
X193000000Y-72800000D03*
X193000000Y-73300000D03*
X193000000Y-73800000D03*
X193000000Y-74300000D03*
X193000000Y-74800000D03*
X193000000Y-75300000D03*
X193000000Y-75800000D03*
X193000000Y-76300000D03*
D25*
X198331250Y-71868750D03*
X197043750Y-71868750D03*
X195756250Y-71868750D03*
X194468750Y-71868750D03*
X198331250Y-73156250D03*
X197043750Y-73156250D03*
X195756250Y-73156250D03*
X194468750Y-73156250D03*
X198331250Y-74443750D03*
X197043750Y-74443750D03*
X195756250Y-74443750D03*
X194468750Y-74443750D03*
X198331250Y-75731250D03*
X197043750Y-75731250D03*
X195756250Y-75731250D03*
X194468750Y-75731250D03*
D26*
X214600000Y-91300000D03*
X215550000Y-91300000D03*
X216500000Y-91300000D03*
X216500000Y-89100000D03*
X214600000Y-89100000D03*
D27*
X199490000Y-99300000D03*
X200760000Y-99300000D03*
X202030000Y-99300000D03*
X203300000Y-99300000D03*
X203300000Y-93900000D03*
X202030000Y-93900000D03*
X200760000Y-93900000D03*
X199490000Y-93900000D03*
D19*
X191500000Y-63500000D03*
D20*
X193100000Y-63500000D03*
X192300000Y-63500000D03*
D19*
X193900000Y-63500000D03*
D20*
X192300000Y-61700000D03*
D19*
X191500000Y-61700000D03*
D20*
X193100000Y-61700000D03*
D19*
X193900000Y-61700000D03*
D28*
X181800000Y-69400000D03*
X181800000Y-67400000D03*
X181800000Y-65400000D03*
X181800000Y-63400000D03*
X181800000Y-61400000D03*
X181800000Y-59400000D03*
D29*
X212400000Y-86000000D03*
X210400000Y-86000000D03*
X208400000Y-86000000D03*
X206400000Y-86000000D03*
X204400000Y-86000000D03*
X202400000Y-86000000D03*
D30*
X256500000Y-75050000D03*
X256500000Y-72550000D03*
D31*
X220650000Y-73550000D03*
X220650000Y-74050000D03*
D32*
X220650000Y-74600000D03*
X220650000Y-73000000D03*
D33*
X223150000Y-73000000D03*
D31*
X223150000Y-73550000D03*
X223150000Y-74050000D03*
D32*
X223150000Y-74600000D03*
D34*
X221900000Y-74800000D03*
X222400000Y-74800000D03*
X221400000Y-74800000D03*
X221900000Y-72800000D03*
X221400000Y-72800000D03*
X222400000Y-72800000D03*
D35*
X263450000Y-70125000D03*
X263450000Y-77500000D03*
X267350000Y-70100000D03*
X267350000Y-77500000D03*
D36*
X184050000Y-80900000D03*
X186550000Y-80900000D03*
D37*
X263600000Y-91100000D03*
X265800000Y-91100000D03*
X263600000Y-93100000D03*
X265800000Y-93100000D03*
D38*
X196200000Y-55700000D03*
X196200000Y-57900000D03*
X198100000Y-55700000D03*
X198100000Y-57900000D03*
X200000000Y-55700000D03*
X200000000Y-57900000D03*
X201900000Y-55700000D03*
X201900000Y-57900000D03*
D12*
X246300000Y-89750000D03*
X246300000Y-92450000D03*
D39*
X206750000Y-79700000D03*
X209450000Y-79700000D03*
D12*
X206000000Y-60450000D03*
X206000000Y-57750000D03*
X189700000Y-83150000D03*
X189700000Y-80450000D03*
D39*
X210350000Y-71800000D03*
X207650000Y-71800000D03*
X207650000Y-69500000D03*
X210350000Y-69500000D03*
D12*
X223900000Y-66250000D03*
X223900000Y-68950000D03*
X218700000Y-66250000D03*
X218700000Y-68950000D03*
X195900000Y-64750000D03*
X195900000Y-62050000D03*
D39*
X210350000Y-74100000D03*
X207650000Y-74100000D03*
D12*
X195900000Y-84150000D03*
X195900000Y-86850000D03*
X193400000Y-84150000D03*
X193400000Y-86850000D03*
D39*
X193250000Y-99300000D03*
X195950000Y-99300000D03*
X193250000Y-96600000D03*
X195950000Y-96600000D03*
D12*
X227300000Y-66150000D03*
X227300000Y-68850000D03*
D39*
X227050000Y-57100000D03*
X224350000Y-57100000D03*
D40*
X182500000Y-75650000D03*
X182500000Y-72750000D03*
D41*
X250100000Y-98800000D03*
X252100000Y-98800000D03*
X256300000Y-98800000D03*
X254300000Y-98800000D03*
X186600000Y-78200000D03*
X184600000Y-78200000D03*
D13*
X188200000Y-67350000D03*
X188200000Y-68850000D03*
D42*
X222350000Y-79200000D03*
X220850000Y-79200000D03*
X203650000Y-62600000D03*
X202150000Y-62600000D03*
D43*
X220900000Y-81400000D03*
X220900000Y-83400000D03*
D13*
X218600000Y-90900000D03*
X218600000Y-89400000D03*
D41*
X224700000Y-55000000D03*
X226700000Y-55000000D03*
X224700000Y-52900000D03*
X226700000Y-52900000D03*
D43*
X198600000Y-84500000D03*
X198600000Y-86500000D03*
X243600000Y-68800000D03*
X243600000Y-66800000D03*
X246000000Y-68800000D03*
X246000000Y-66800000D03*
X248400000Y-66800000D03*
X248400000Y-68800000D03*
D42*
X262650000Y-75000000D03*
X261150000Y-75000000D03*
X262650000Y-72700000D03*
X261150000Y-72700000D03*
D44*
X260389398Y-91035280D03*
X258489398Y-91035280D03*
X260389398Y-93100000D03*
X258489398Y-93100000D03*
D45*
X202300000Y-47400000D03*
D46*
X203250000Y-47350000D03*
X203250000Y-46700000D03*
X203250000Y-46050000D03*
X201350000Y-47350000D03*
X201350000Y-46700000D03*
X201350000Y-46050000D03*
D47*
X202300000Y-46400000D03*
D45*
X188700000Y-97300000D03*
D46*
X187750000Y-97350000D03*
X187750000Y-98000000D03*
X187750000Y-98650000D03*
X189650000Y-97350000D03*
X189650000Y-98000000D03*
X189650000Y-98650000D03*
D47*
X188700000Y-98300000D03*
D48*
X183500000Y-98650000D03*
X183500000Y-96750000D03*
X181500000Y-97700000D03*
X209400000Y-46550000D03*
X209400000Y-48450000D03*
X211400000Y-47500000D03*
D12*
X207800000Y-93050000D03*
X207800000Y-90350000D03*
X206000000Y-49250000D03*
X206000000Y-51950000D03*
D49*
X179200000Y-56800000D03*
X179200000Y-61800000D03*
M02*
