G04 #@! TF.FileFunction,Soldermask,Top*
%FSLAX46Y46*%
G04 Gerber Fmt 4.6, Leading zero omitted, Abs format (unit mm)*
G04 Created by KiCad (PCBNEW 4.0.7) date Sun Apr  1 16:38:54 2018*
%MOMM*%
%LPD*%
G01*
G04 APERTURE LIST*
%ADD10C,0.100000*%
%ADD11R,1.400000X2.000000*%
%ADD12C,4.800000*%
%ADD13R,1.100000X3.100000*%
%ADD14R,1.400000X3.100000*%
%ADD15R,1.600000X1.250000*%
%ADD16R,1.750000X1.750000*%
%ADD17O,1.750000X1.750000*%
%ADD18R,1.700000X1.900000*%
%ADD19C,0.254000*%
G04 APERTURE END LIST*
D10*
D11*
X99491858Y-64508092D03*
X102491858Y-64508092D03*
X94791858Y-64458092D03*
X91791858Y-64458092D03*
X84091858Y-41358092D03*
X87091858Y-41358092D03*
X99491858Y-72208092D03*
X102491858Y-72208092D03*
X84091858Y-64458092D03*
X87091858Y-64458092D03*
X84091858Y-56758092D03*
X87091858Y-56758092D03*
X79391858Y-72158092D03*
X76391858Y-72158092D03*
X79391858Y-56758092D03*
X76391858Y-56758092D03*
X79391858Y-64458092D03*
X76391858Y-64458092D03*
X84091858Y-49058092D03*
X87091858Y-49058092D03*
X110191858Y-64558092D03*
X107191858Y-64558092D03*
X68691858Y-41358092D03*
X71691858Y-41358092D03*
X110191858Y-56858092D03*
X107191858Y-56858092D03*
X79391858Y-79858092D03*
X76391858Y-79858092D03*
X84091858Y-72158092D03*
X87091858Y-72158092D03*
X94791858Y-49058092D03*
X91791858Y-49058092D03*
X99491858Y-41408092D03*
X102491858Y-41408092D03*
X68691858Y-72158092D03*
X71691858Y-72158092D03*
X79391858Y-49058092D03*
X76391858Y-49058092D03*
X68691858Y-56758092D03*
X71691858Y-56758092D03*
X110191858Y-72258092D03*
X107191858Y-72258092D03*
X68691858Y-64458092D03*
X71691858Y-64458092D03*
X125591858Y-56708092D03*
X122591858Y-56708092D03*
X94791858Y-72158092D03*
X91791858Y-72158092D03*
X114891858Y-41358092D03*
X117891858Y-41358092D03*
X94791858Y-56758092D03*
X91791858Y-56758092D03*
X99491858Y-49108092D03*
X102491858Y-49108092D03*
X114891858Y-49058092D03*
X117891858Y-49058092D03*
X99491858Y-56808092D03*
X102491858Y-56808092D03*
X68691858Y-49058092D03*
X71691858Y-49058092D03*
X114891858Y-56758092D03*
X117891858Y-56758092D03*
X125591858Y-64508092D03*
X122591858Y-64508092D03*
X110191858Y-79958092D03*
X107191858Y-79958092D03*
X125591858Y-49108092D03*
X122591858Y-49108092D03*
X94791858Y-79858092D03*
X91791858Y-79858092D03*
X114891858Y-64458092D03*
X117891858Y-64458092D03*
X114891858Y-72158092D03*
X117891858Y-72158092D03*
X125591858Y-72208092D03*
X122591858Y-72208092D03*
X110191858Y-49158092D03*
X107191858Y-49158092D03*
X125591858Y-79908092D03*
X122591858Y-79908092D03*
X130291858Y-41408092D03*
X133291858Y-41408092D03*
X130291858Y-49008092D03*
X133291858Y-49008092D03*
X130291858Y-56808092D03*
X133291858Y-56808092D03*
X130291858Y-64508092D03*
X133291858Y-64508092D03*
X130291858Y-72208092D03*
X133291858Y-72208092D03*
X79391858Y-41358092D03*
X76391858Y-41358092D03*
X94791858Y-41358092D03*
X91791858Y-41358092D03*
X110191858Y-41458092D03*
X107191858Y-41458092D03*
X125591858Y-41408092D03*
X122591858Y-41408092D03*
X130291858Y-79908092D03*
X133291858Y-79908092D03*
X114891858Y-79858092D03*
X117891858Y-79858092D03*
X99391858Y-79908092D03*
X102391858Y-79908092D03*
X84091858Y-79858092D03*
X87091858Y-79858092D03*
X68691858Y-79858092D03*
X71691858Y-79858092D03*
D12*
X112200000Y-90600000D03*
X67225000Y-30625000D03*
X157175000Y-30600000D03*
X157200000Y-90600000D03*
X112200000Y-30600000D03*
X67200000Y-90600000D03*
D13*
X150300000Y-79600000D03*
D14*
X149100000Y-79600000D03*
D13*
X147900000Y-79600000D03*
X150300000Y-60600000D03*
D14*
X149100000Y-60600000D03*
D13*
X147900000Y-60600000D03*
X150300000Y-41600000D03*
D14*
X149100000Y-41600000D03*
D13*
X147900000Y-41600000D03*
D15*
X125691858Y-44408092D03*
X125691858Y-46108092D03*
X122491858Y-46108092D03*
X122491858Y-44408092D03*
X125691858Y-52108092D03*
X125691858Y-53808092D03*
X122491858Y-53808092D03*
X122491858Y-52108092D03*
X125691858Y-59808092D03*
X125691858Y-61508092D03*
X122491858Y-61508092D03*
X122491858Y-59808092D03*
X125691858Y-67508092D03*
X125691858Y-69208092D03*
X122491858Y-69208092D03*
X122491858Y-67508092D03*
X125691858Y-75208092D03*
X125691858Y-76908092D03*
X122491858Y-76908092D03*
X122491858Y-75208092D03*
X125691858Y-82908092D03*
X125691858Y-84608092D03*
X122491858Y-84608092D03*
X122491858Y-82908092D03*
X114791858Y-76858092D03*
X114791858Y-75158092D03*
X117991858Y-75158092D03*
X117991858Y-76858092D03*
X114791858Y-69158092D03*
X114791858Y-67458092D03*
X117991858Y-67458092D03*
X117991858Y-69158092D03*
X114791858Y-61458092D03*
X114791858Y-59758092D03*
X117991858Y-59758092D03*
X117991858Y-61458092D03*
X114791858Y-53758092D03*
X114791858Y-52058092D03*
X117991858Y-52058092D03*
X117991858Y-53758092D03*
X114791858Y-46058092D03*
X114791858Y-44358092D03*
X117991858Y-44358092D03*
X117991858Y-46058092D03*
X114791858Y-38358092D03*
X114791858Y-36658092D03*
X117991858Y-36658092D03*
X117991858Y-38358092D03*
X110291858Y-44458092D03*
X110291858Y-46158092D03*
X107091858Y-46158092D03*
X107091858Y-44458092D03*
X110291858Y-52158092D03*
X110291858Y-53858092D03*
X107091858Y-53858092D03*
X107091858Y-52158092D03*
X110291858Y-59858092D03*
X110291858Y-61558092D03*
X107091858Y-61558092D03*
X107091858Y-59858092D03*
X110291858Y-67558092D03*
X110291858Y-69258092D03*
X107091858Y-69258092D03*
X107091858Y-67558092D03*
X110291858Y-75258092D03*
X110291858Y-76958092D03*
X107091858Y-76958092D03*
X107091858Y-75258092D03*
X110291858Y-82958092D03*
X110291858Y-84658092D03*
X107091858Y-84658092D03*
X107091858Y-82958092D03*
X99391858Y-76908092D03*
X99391858Y-75208092D03*
X102591858Y-75208092D03*
X102591858Y-76908092D03*
X99391858Y-69208092D03*
X99391858Y-67508092D03*
X102591858Y-67508092D03*
X102591858Y-69208092D03*
X99391858Y-61508092D03*
X99391858Y-59808092D03*
X102591858Y-59808092D03*
X102591858Y-61508092D03*
X99391858Y-53808092D03*
X99391858Y-52108092D03*
X102591858Y-52108092D03*
X102591858Y-53808092D03*
X99391858Y-46108092D03*
X99391858Y-44408092D03*
X102591858Y-44408092D03*
X102591858Y-46108092D03*
X99391858Y-38408092D03*
X99391858Y-36708092D03*
X102591858Y-36708092D03*
X102591858Y-38408092D03*
X94891858Y-44358092D03*
X94891858Y-46058092D03*
X91691858Y-46058092D03*
X91691858Y-44358092D03*
X94891858Y-52058092D03*
X94891858Y-53758092D03*
X91691858Y-53758092D03*
X91691858Y-52058092D03*
X94891858Y-59758092D03*
X94891858Y-61458092D03*
X91691858Y-61458092D03*
X91691858Y-59758092D03*
X94891858Y-67458092D03*
X94891858Y-69158092D03*
X91691858Y-69158092D03*
X91691858Y-67458092D03*
X94891858Y-75158092D03*
X94891858Y-76858092D03*
X91691858Y-76858092D03*
X91691858Y-75158092D03*
X94891858Y-82858092D03*
X94891858Y-84558092D03*
X91691858Y-84558092D03*
X91691858Y-82858092D03*
X83991858Y-76858092D03*
X83991858Y-75158092D03*
X87191858Y-75158092D03*
X87191858Y-76858092D03*
X83991858Y-69158092D03*
X83991858Y-67458092D03*
X87191858Y-67458092D03*
X87191858Y-69158092D03*
X83991858Y-61458092D03*
X83991858Y-59758092D03*
X87191858Y-59758092D03*
X87191858Y-61458092D03*
X83991858Y-53758092D03*
X83991858Y-52058092D03*
X87191858Y-52058092D03*
X87191858Y-53758092D03*
X83991858Y-46058092D03*
X83991858Y-44358092D03*
X87191858Y-44358092D03*
X87191858Y-46058092D03*
X83991858Y-38358092D03*
X83991858Y-36658092D03*
X87191858Y-36658092D03*
X87191858Y-38358092D03*
X79491858Y-44358092D03*
X79491858Y-46058092D03*
X76291858Y-46058092D03*
X76291858Y-44358092D03*
X79491858Y-52058092D03*
X79491858Y-53758092D03*
X76291858Y-53758092D03*
X76291858Y-52058092D03*
X79491858Y-59758092D03*
X79491858Y-61458092D03*
X76291858Y-61458092D03*
X76291858Y-59758092D03*
X79491858Y-67458092D03*
X79491858Y-69158092D03*
X76291858Y-69158092D03*
X76291858Y-67458092D03*
X79491858Y-75158092D03*
X79491858Y-76858092D03*
X76291858Y-76858092D03*
X76291858Y-75158092D03*
X79491858Y-82858092D03*
X79491858Y-84558092D03*
X76291858Y-84558092D03*
X76291858Y-82858092D03*
X68591858Y-76858092D03*
X68591858Y-75158092D03*
X71791858Y-75158092D03*
X71791858Y-76858092D03*
X68591858Y-69158092D03*
X68591858Y-67458092D03*
X71791858Y-67458092D03*
X71791858Y-69158092D03*
X68591858Y-61458092D03*
X68591858Y-59758092D03*
X71791858Y-59758092D03*
X71791858Y-61458092D03*
X68591858Y-53758092D03*
X68591858Y-52058092D03*
X71791858Y-52058092D03*
X71791858Y-53758092D03*
X68591858Y-46058092D03*
X68591858Y-44358092D03*
X71791858Y-44358092D03*
X71791858Y-46058092D03*
X68591858Y-38358092D03*
X68591858Y-36658092D03*
X71791858Y-36658092D03*
X71791858Y-38358092D03*
X130191858Y-76908092D03*
X130191858Y-75208092D03*
X133391858Y-75208092D03*
X133391858Y-76908092D03*
X130191858Y-69208092D03*
X130191858Y-67508092D03*
X133391858Y-67508092D03*
X133391858Y-69208092D03*
X130191858Y-61508092D03*
X130191858Y-59808092D03*
X133391858Y-59808092D03*
X133391858Y-61508092D03*
X130191858Y-53808092D03*
X130191858Y-52108092D03*
X133391858Y-52108092D03*
X133391858Y-53808092D03*
X130191858Y-46108092D03*
X130191858Y-44408092D03*
X133391858Y-44408092D03*
X133391858Y-46108092D03*
X130191858Y-38408092D03*
X130191858Y-36708092D03*
X133391858Y-36708092D03*
X133391858Y-38408092D03*
X130191858Y-84608092D03*
X130191858Y-82908092D03*
X133391858Y-82908092D03*
X133391858Y-84608092D03*
X125691858Y-36708092D03*
X125691858Y-38408092D03*
X122491858Y-38408092D03*
X122491858Y-36708092D03*
X114791858Y-84558092D03*
X114791858Y-82858092D03*
X117991858Y-82858092D03*
X117991858Y-84558092D03*
X110291858Y-36758092D03*
X110291858Y-38458092D03*
X107091858Y-38458092D03*
X107091858Y-36758092D03*
X99391858Y-84608092D03*
X99391858Y-82908092D03*
X102591858Y-82908092D03*
X102591858Y-84608092D03*
X94891858Y-36658092D03*
X94891858Y-38358092D03*
X91691858Y-38358092D03*
X91691858Y-36658092D03*
X83991858Y-84558092D03*
X83991858Y-82858092D03*
X87191858Y-82858092D03*
X87191858Y-84558092D03*
X79491858Y-36658092D03*
X79491858Y-38358092D03*
X76291858Y-38358092D03*
X76291858Y-36658092D03*
X68591858Y-84558092D03*
X68591858Y-82858092D03*
X71791858Y-82858092D03*
X71791858Y-84558092D03*
D16*
X158200000Y-59600000D03*
D17*
X158200000Y-61600000D03*
D18*
X155800000Y-59250000D03*
X155800000Y-61950000D03*
D19*
G36*
X156422302Y-60873000D02*
X154876302Y-60873000D01*
X154876302Y-60327000D01*
X156422302Y-60327000D01*
X156422302Y-60873000D01*
X156422302Y-60873000D01*
G37*
X156422302Y-60873000D02*
X154876302Y-60873000D01*
X154876302Y-60327000D01*
X156422302Y-60327000D01*
X156422302Y-60873000D01*
M02*
