M48
;DRILL file {KiCad 4.0.7} date Sun Apr  1 16:24:39 2018
;FORMAT={-:-/ absolute / metric / decimal}
FMAT,2
METRIC,TZ
T1C0.300
T2C0.400
T3C0.800
T4C2.200
%
G90
G05
M71
T1
X175.9Y-49.6
X175.9Y-52.8
X175.9Y-56.
X175.9Y-59.2
X175.9Y-62.4
X175.9Y-65.6
X175.9Y-68.8
X175.9Y-78.8
X175.9Y-82.
X175.9Y-85.2
X175.9Y-88.4
X175.9Y-91.6
X175.9Y-94.8
X181.7Y-100.3
X181.7Y-101.6
X181.8Y-71.
X182.2Y-94.1
X182.2Y-95.4
X183.1Y-100.3
X183.1Y-101.6
X183.5Y-94.125
X183.5Y-95.4
X184.1Y-83.
X184.1Y-83.9
X184.5Y-100.3
X184.5Y-101.6
X184.8Y-94.1
X184.8Y-95.4
X185.Y-97.7
X186.4Y-97.7
X187.6Y-83.1
X187.9Y-100.3
X187.9Y-101.7
X187.9Y-103.1
X188.2Y-71.
X188.7Y-93.3
X188.7Y-94.4
X188.7Y-95.4
X189.3Y-100.3
X189.3Y-101.7
X189.3Y-103.1
X189.7Y-93.3
X189.7Y-94.4
X189.7Y-95.4
X191.Y-60.3
X191.8Y-59.3
X192.7Y-58.4
X193.4Y-89.
X193.9Y-57.4
X195.3Y-59.7
X195.9Y-89.
X197.5Y-88.2
X198.7Y-90.4
X198.8Y-88.2
X200.1Y-90.4
X200.9Y-50.2
X200.9Y-48.8
X202.1Y-66.1
X202.3Y-48.8
X202.3Y-50.2
X202.4Y-88.3
X203.7Y-48.8
X203.7Y-50.2
X203.9Y-71.3
X204.9Y-71.8
X204.9Y-97.7
X205.9Y-73.3
X206.Y-55.9
X206.Y-47.5
X206.2Y-98.9
X206.8Y-76.2
X208.1Y-76.2
X209.4Y-50.1
X209.4Y-51.5
X210.8Y-50.1
X210.8Y-51.5
X212.2Y-51.5
X212.2Y-50.1
X212.4Y-78.7
X212.4Y-79.9
X214.8Y-93.4
X215.3Y-72.9
X215.3Y-76.7
X216.2Y-93.4
X216.7Y-76.7
X216.7Y-72.9
X217.6Y-93.4
X218.Y-75.
X218.7Y-63.8
X221.2Y-66.25
X223.4Y-78.2
X223.9Y-63.8
X225.5Y-78.2
X227.3Y-72.
X252.Y-86.4
X252.Y-87.8
X252.Y-89.2
X252.5Y-96.3
X253.2Y-95.6
X253.2Y-97.
X253.4Y-86.4
X253.4Y-87.8
X253.4Y-89.2
X253.9Y-96.3
X256.4Y-96.8
X256.4Y-69.3
X256.4Y-70.3
X256.5Y-80.8
X256.5Y-82.2
X257.4Y-69.3
X257.4Y-70.3
X257.8Y-95.5
X257.8Y-98.1
X257.8Y-96.8
X258.4Y-69.3
X258.4Y-70.3
X259.2Y-96.8
X259.4Y-69.3
X259.4Y-70.3
X259.4Y-72.7
X259.4Y-75.
T2
X184.4Y-44.3
X194.4Y-44.3
X194.4Y-103.3
X204.4Y-44.3
X204.4Y-103.3
X214.4Y-44.3
X214.4Y-103.3
X229.4Y-44.3
X229.4Y-103.3
X239.4Y-44.3
X239.4Y-103.3
X249.4Y-44.3
X249.4Y-103.3
X259.3Y-44.3
X259.3Y-103.3
T3
X175.9Y-72.8
X175.9Y-74.8
X179.2Y-56.8
X179.2Y-61.8
T4
X176.9Y-43.8
X176.9Y-103.8
X221.9Y-43.8
X221.9Y-103.8
X266.9Y-43.8
X266.9Y-103.8
T2
X263.75Y-70.125G85X263.15Y-70.125
G05
X263.75Y-77.5G85X263.15Y-77.5
G05
X267.65Y-70.1G85X267.05Y-70.1
G05
X267.65Y-77.5G85X267.05Y-77.5
G05
T0
M30
